<mxfile host="app.diagrams.net" agent="Mozilla/5.0 (Windows NT 10.0; Win64; x64) AppleWebKit/537.36 (KHTML, like Gecko) Chrome/135.0.0.0 Safari/537.36" version="26.2.12">
  <diagram name="PÃ¡gina-1" id="yUuqMvKYRrNEgDj3A1oT">
    <mxGraphModel dx="514" dy="1423" grid="1" gridSize="10" guides="1" tooltips="1" connect="1" arrows="1" fold="1" page="1" pageScale="1" pageWidth="827" pageHeight="1169" math="0" shadow="0">
      <root>
        <mxCell id="0" />
        <mxCell id="1" parent="0" />
        <mxCell id="zb_kXf3CehQWzueffiuh-1" value="" style="shape=image;verticalLabelPosition=bottom;labelBackgroundColor=default;verticalAlign=top;aspect=fixed;imageAspect=0;image=data:image/png,iVBORw0KGgoAAAANSUhEUgAAAr0AAADiCAYAAABDY3/TAAAAAXNSR0IArs4c6QAAAARnQU1BAACxjwv8YQUAAAAJcEhZcwAADsMAAA7DAcdvqGQAAP+lSURBVHhe7J0JXFTl+sd/A8wGCAME4saquEMokUrikialqWim4YJXu/3dMi0VvW6YCGpmmWJKLplkKlJqbiUqYlcxKJBF1EiRFBUVNRYZYHj+7ywwDMzMGRbLvPPtM8bZ3vO8z35mzpnhEQNGjBgxYsSIESNGjDzDmKj+b8SIESNGjBgxYsTIM4ux6TVixIgRI0aMGDHyzGNseo0YMWLEiBEjRow88xibXiNGjBgxYsSIESPPPPqbXtlVfBfxKY7fqaxagev/3Yfd33yDb2q/9hxF+oOq/XQju34QEXM+RGy2TLVGTdkv2xEyZwMSHqpW/A8ju3YA4XPX4dR9bp02Gtk1HAifi3Wn7qtWPHuUnNuMuYt3qZYY0lykZ91HU2i3ztgqFL7+AdPryfwmOU8dNOxWgnOb52LxrkzlNi6acP7PJpV4lHUIn82diBGD+sG//xCM+2AdfrhaqtreMP7SuH4qkCI3PQvK6dbTR59BdOWKKp6If/yd+b3kHDbPXYxdmRWqFY1A11iy6zgY8QHmrjuJ/H9UWNWMjb+Pvzsn6YyJJ2RX3U1vZQESQsdhUujXOH+/6gsepDj7yb8QFBRU9zV+EWL/4JZMdusnfLX+S8T/UTcIKi4fQuT6ffj1z3+U5z4RZHkJ2BEZg+SHf8GXa8jykLAjEjHJz+7VRlnuzzj64wXlAisCnw/3wYRduU3S9GmMXU0pzq6bh/A4gmc3hyfzkYqG3cqQ+/NR/HjhjnKbPpp4/s8eUmREvYlu3cciMkOErgMDMfKVTpCdXoHXXxiAZT89Uu1Xf/7SuP7bkeHa58PhM2EXchWOVg8ffUbRnivUPBH/+Dvze1kufj76Iy7cqfsmV73RMVbp2XWYFx4H8uwGh3/MZ9e1Y+Pv4+/OSbpi4knZVetQ0j9OYs1bvTB49S8o1tCDOUZsz8Hd/HzkV71+/w7/18ESbVnT+39dzFT7GTHydCEZvRUZ51cpF6gI+XeLmqzh0xi7CtkN5NuMxqboMPSTqNY9USQYvTUD51f1Vy3roYnn/6xRlhyO4Nkn0HrhcSQf3YRlc2bivfmr8c1Px/Fh53SET12J82WqnY3ogVCUfxdF1Y5WDx99RtGaK55lJKOxNeM8VvUXqlY0Aq1jyXAj3wajN0Uj7K9JtE1E7dj430V7TDw5u9Zteiv/wObgQHx6exAit0+HR60+VtjMDnb29rCXv+xMkBj+Pr7CZER9GogWTXmV9eg7vNt7HNZ8vRKjnneEOV8I2/YBmH8wl6lDH4/w3bu98VbEViwd7AEboRAS1954OyqZbZFTgH3TeiNowWKM7GgLC1tvzDtVwirdNRxcEgjvlpbgm4nh0DEAs3ddBNsCPDyEOX39MfvgA8UISorww/z+6Pv+QfZ3Je7Er0aQbxtYCcwgsu+AQbO/QVaNT0Ir78RjdZAv2lgJYCayR4dBs/FNjR1KMnZi5ssesBUJYO0+AAuO57OwqIE++XTNSRclGdg582V42IogsHbHgAXHkV/zZJV3EL86CL5trCAwE8G+wyDM/iYL3B/sViD3yHKM9nWGRMiH2L4zXl90CLkKg1Ui//THCO7THg4WfJiyce08+mN6dBakimO57MZGyD+Nj4P7oL2DBfimTM92Hug/PRpZygHY6XNxZPlo+DpLIOSLYd/5dSw6pPSXR9+9i14DQ9kgeYieMgFfXJIie/s4+AVvQ46MSzaGIWMrKMO1g0sQ6OOP4A9X4O2XvREwexcuVpmjwX7N0Gs3uf56YWBogmpZhy3KGzh/XejUCxtzzxT4DV2FpOoGsQJpn4yA3+SvFEsF+6ahd9ACLB7ZEbYWtvCed4pN4zw2BPuhnb0FBAJrOPmMQljc7eoGvezaQSwJ9EZLSz7MxA7oGDAbu9TKxfkNwfBrZw8LAYsjJx+MCovD7XoVlmL8sPELpLeaiLA5vmimWqtA5IV3I1bi/TFeECoUw603rrjm9Gmd6I61yvw9mOI3FKvUikdF2icY4TcZX8k/jSvYh2m9g7Bg8Uh0tLWArfc8nCrh0J3e/KONSuRFT8GELy5Bmr0d4/yCsS2noJaPcuRNA2KFK69qpTIfe6b4YeiqJBatKirS8MkIP0z+6g+2oMxF49Z8jZWjnoejOR9C2/YImH9QlcsYbIzTHwejT3sHWPBN2bnt4NF/OqI5DKeZKwzI+w2hsfmdIwYrco9g+WhfOEuE4Ivt0fn1RTikUIyWOvT9brzbayBCE+Sa5s7x+vxa4Q/VY1XlAh/4B3+IFW+/DO9auYDThgahr6Y1NB9piw02YH1jrPgkFg3ohUk7an5iV4bzEUPQe+oe1XJd9PkcZ+7Q2msUNWH95LBrY+pnFfIfp9CkmHKyrlIh+6v85wXURexDyzMrlJtqUXR6NnUUudG/Dxeo1nAjPTeXOghcacbJUtUaNcVfjyALQR/65LqM6F4UBYhEZOn6Mi3YGU9JiQcpLKAl8VtMpANy4XRyj6IChCQQPUfPT/6cjp89TbsW9CNHvhP9a/99Itlt2jhAQCbmXvTOzjN0JmYvJeQX0pmQrmRu/TxNXn+YzibG0bbZfmQvcKFJ+/NJxo75cpgN2QTuZKOreLCX3nKQ0JAtt6g8fTX5S2yo+zsb6UhiCp39dgUNczWntlOO0AP5vuXptNpfQjbd36GNRxIp5ey3tGKYK5m3nUJH5DsUnaT3PIT03Esf0Ffx5yg+OoT6OpoRj+9Hq7Plui/mlK/unJgOtVJEJ9/zIOFzL9EHX8XTufhoCunrSGY8Pvmtzmbbyyl9tT9JbLrTOxuPUGLKWfp2xTByNW9LUxTC6kaaspx8La3J++1NdDwpmU5GTaKuFhIaFHmVmWUvBTmKqN2Yz+hYUjqlM3t+FOhCfEkg7WRm4bQb2743yJFE7cbQZ8eSKD09kQ5+FEgufAkFKgaQUspyX7K09qa3Nx2npOSTFDWpK1lIBlHk1QrmTgEkcghm+xVS2v4wCnThU5thSylqfyo94JTN0LGZpc6EUFdzazaH9XT4bCLFbZtNfvYCcpm0nxQmabBfc9lNrj8ROQQfUOyt2xbpDZi/LvTppYxufNaPxC7T6ER1qEvpp/c9SOy3mv0to9sbB5DAxJy83tlJZ87E0N6EPPr5P+z4DsEUdTKFMn49Rh8HOpGg9dt0pIgdUnyGQrqak/Xzk2n94bOUGLeNZvvZk8BlEu1nyi3/+T9sjh0oOOokpWT8Ssc+DiQnQWt6W3GwgUgTKaQTn+zHf8eijgMuvXHGNZdP60ZfrMlufEb9xC40Ta14kv70PnmIleeV3d5IAwQmZO71Du08c4Zi9iZQXqI+3XHkH+Up6lCYtp/C5PpoM4yWRu2n1AeaPsqZN7lihSuv6kJ2gz7rJyaXaSdI7Zo/0fseYo1YElm60ssLdlJ8ErNLWAC15Legiaogvbc3iBxF7WjMZ8coKT2dEg9+pIgpCasR+ixXM1dw+0dDaGx+L9cfg9IUWu5rSdbeb9Om40mUfDKKJnW1IMmgSLpapqUOXdrEbOhAwQces4O5crx+v1b6g2osjlxgiA0NQa88jchHdWOjITFWQHtGP0fiXqvoUpW7lJ6id90tqd+nTD5tcPgcV+7Q2j9d2t1k9ZPTrg2un2q0NL1q9Da9Fb/TZy9bkSRgE+XoynpaqFfTKxSQ/9pr1QaXxs8kd9ELFHZRX0JQBpbwxXCqFluWR1uGSMjq9a10p1xuNCGJBkTSzaqBC2PoLTsx9YzIouqR2THbhkrIvP96kotTsGcMOUiG0rbbyoPuf/0G2T33Bn19r5TipjqTqEeE2vEY96JHkq3VUNqez/wwbio5i3pQhOYONNLWioayHQpjx5G92J8+rk50Mrq5+VWyEqgcjUs+bXPSRWEsjbMXk//H2dVjyW5upletBMqkWBpHU51F1CPikvpcTKfRI23Jauh2YtPRgZTiZ7qT0HMhJUtVq1gCPhE2liZvOE+yO+dp17rtdFqRkJRIE2ZRu2p7ctntDp3ftY62n66RAKQJNKudiF4Iu0gV0nia6S4kz4XJTBIVRScobOxk2nC+VDOwytMotLuYPBf9ylI8Ow2XbAaPXUgxb9mRuGcEZVUrT0Z524aSxLw/rW+MX3PZTZXklQ2FflvUe/660KuXEoOaXqFoAEVWO+1jig2ypWa9w+jXh8p1FTk/0ubIA5TBElphzFtkJ+5JEWrlMhfZRkMl5tR//XUqjg0i22a9KezXh0rdVuTQj5sj6YD8YEN5fIgmt+BTx3mJ6jnpgEtvnHEt4/Bp1aq6cMSaIU2vUEQDIm9Wn/exPt0ZkB+1U05pod1J7LmIfpU7moaPcudNrljhyqs6MajpZc2Z/1q6pj4x83WlXeR2vHN+F63bflp5IatASgmz2pHohTDSFzI18xCnfzSERud3/TGo0L/QkxaqHY+FfBiNnbyBzpdoqUM1G1WuHC/jyFs1xuLKBTJOGxqCfnkal49qxUYDY+zP/cHUQtidQtMUAUbFP04hZ+sA2nRD+wFcPmdY06tp46arn3I1cNi1wX2hmgbfkFCRshVfnLHGyHfHwrk+o/B44KESldo+w5E34Wwr20UJTwK3to7V92CYSCRoxqtAWRnXB0CmcPXvi7amqkUTB/TwbYuySxm4onh+jgcbZ2fYqgauuJqOS8Vt0LO3GztSBTvG368TZJfTcLEcsHktCIMtTmPf93dQWZmP7/eegOBVtk6Sh9T0W6i4tAkjvLqgSxflq0/oGZQ8voLM7MfIS03HrYpL2DTCq3p7lz6hOFPyGFcyL+G3jCwUtvKGT5tqgeHQqwfaqW4tMUS+2nPSRUVOBrIKW8Hbp031WCYOvdBDdTJZXirSb1Xg0qYR8KqStUsfhJ4pweMrmchWf+qhSWUBMi/ehHU3X3QWqNbBAv0XRmPLdF92Dl+MHu+DR7ERCJk2ASMG+KDTsEhky5gvVDuDHrtVOsB39Hj4PIpFRMg0TBgxAD6dhiEyW8aOr4SsIBMXb1qjm29nqE/fHwujt2C6r/77ybhkqzR07IqrSL9UjDY9e8NNbSg4+Puhk+wy0pSGapBfc9lNAw5b1MYw29TFYL3ogWfjDOdqpxWh34TxcPplMXxatobXwPGY/10hfEcNRmfLClxNv4TiNj3RW61cJrs//DrJcDntIkz7TcB4p1+w2KclWnsNxPj536HQdxQGd7ZU7W0APAuYi4GyUo6PyBn69VaOHI64ZgPo9Wmdmq+nfbXCs4Gzs221D4r06M6w/FNPZFx5U5VodMZKBUdezVbfutAgeJC4tYWj+sSQNOOhokw+KrOj72iM93mE2IgQTJswAgN8OmFYZDZkzG56QqYGFdz+0QAan9/1xWAlCjIv4qZ1N/iqHY+F/EJEb5kOZchz1SE9Ob7MUL/mzgVKl9RnQwPQG2fdmjQfNTTGmg0cgyEO6dj3TQrTSjHi9xzCn31HY7jWe02byuc0bdxk9dNQuza4L1Si0zX1U4akvd/islMgJrxcj4LCMGEVRcyMU/hnbQEr8eejP1HBE8PcQiUWzxSm6rkrqOqH9cODSCzWmJypGRuImBEUSzw2rpl6rDIZU7cZ+BqGZ/uYsRXyhkouquVAjB1mi5/2HcDNWwew93QzDAl6BdaQQspiyKp7EOaGhCCk6rVkDaK2R+BNdzNIlTsgaG6N7SFLsCZqOyLedAfJZEwxZkwCNTyRCMIqAQ2Rr/acdFEhg4xpRn5oNTwRRFUnk0qZda3QPWhuDVlDsGRNFLZHvAk2HR2Uy4eGmSlfqwyVeTGY5OODNz+MRWqBEG7+E7Fs6Sg4aXigHrtV5iFmkg983vwQsakFELr5Y+KypRhVNUB5BZuXGUz5nBqoA6dsBo9dBhm7qDLTNBRzY7lt2RyUhpKvqL9fc9lNA/22qI1httGCIXqpFebyJFhzFY8pwqzG4TaDPsW5lKPYNGcIXIvOYcu8N+DrPQrbrspYGCiUy85YA6ZLZRjIQDaD8Om5FBzdNAdDXItwbss8vOHrjVHbrjI5DYTfEV08+LiZmYG76hvlqpHlxGL5gk/xw3XWmHLorYIrrrl8WieG2LeO4uXvKaiR+6Cm4nXrzqD8U1+486YCPbHClVc1xNWCptjyZlVDQey8uoK0Enkxk+Dj8yY+jE1FgdAN/hOXYekop3oVVE7/aAhNkN/1xWC50vGgO+S56pC+2mx43uLMBcoVemxoCPrladJ81NAYM++HoOFtcCV2NxIL4rD3qBQDxwxFcx2OaJjP1TpZ7dyh0Kvaxk1XPw20q56cYAj1iVE1st8Qd+oa7Pu9qrq6MxyzNm3hLHqE1KSMWlfif+JsYiaopTvaWahWNRgZci9dQpFqCeyvjIyrMHVrr/WKxszZFU5mN9g+D1RNsZwSpKX/BrR2gStfvixC77Ej0DJxP3Zsi8FPzw3H2H5MUNMWcHUyR3GJNXoGjcf48crX2EHecG/viba2fLRwdYJ5cQmsewZVbx8/dhC83dvDs60DXNu5QnjrIjIL1GeXXr6C68z+cgyTzzDMnNvBVXgLFzML1GNJL+OK6mSmLdi5zItRYt0TQVWyjh+LQd7uaO/ZVvcVvIkdXJysUJB9ucaDQxXI2jIVY5cexI2Yjdhzrz/WJSXjh91fYM2SGRjSvBzyb6djMaVCt93cb8dg45576L8uCck/7MYXa5ZgxpDmKFcNYGLnAierAmRfVj9wgYosbJk6FksP3VKtqEL+aUMVlZyyGTy2mTPzBTPcyMhAza+sLklLx29oDZf6GKoWXHbTQK8tDrG/6zd/XXDpRV5wqEyKx9UJswy3b99T71ubyvtI2r0O+253w+RlUdh/Lhs309aiT9ERRB++B2cWR2Y3MpChqVwow8AZfybtxrp9t9Ft8jJE7T+H7JtpWNunCEeiDxv+MJuJPV4N7APhuWjsyNTMUEzhSN0ejhUbDuE3VqT1680MzhxxXXlDv0/rhMu+TO+mVAapWvEou30b93QOWYn7enR3r03D80/1p3a14cybXKXJlCOvqt/Frou8aBLKpI/V5b3sNm7rVpAmlTcQs3EP7vVfh6TkH7D7izVYMmMImpf/yfQj/88QuP2jITQ6v0NfDObDzsUJVgXZuFwjoCqytmDq2KU4dMuQmeupzQKuvFUF053eXOCKhmfaGuiNs2ONzkc1Y6PhNV6IXm+NgNv1w4heE41jeBVvDbZVbauNAT7XgNzRZPXzL7Jrw5reP5ORfMkU3j18WStYmwpcPhqFzfuSUUOvaqxewZjBz+HiumBMiNiNk0kXkHruGL5cFIT39zxAhzffQo96NtJ1ITw4FI6QmCsokRXj8p45WHaAh4Dxw7VfAdkNwbjB5ogLn4GopAI2gxL8/m0IlsYUo8eYN9BedVUh8B2LUa5nsWbNf9FmZBB6KuS0RsC4QNgnf4Lp4SdwU8rC+m4i1k58BX2Hh+FMMdsjYBwC7ZPxyfRwnFDugMS1E/FK3+EIYzvYvDYRI21OYuV723DhkQyl17/HotC9qM4hBspnEDavYeJIG5xc+R62XXgEWel1fL8oFHurTmYdgHGB9kj+ZDrCT9xkZV6Gu4lrMfGVvhgedgZsOjowR78xw+GYuB4LdmSikHl7YeYOhK74Er8UWive/eSV3UVOzkPm+DLc/2UrZi77Hg/l7/hUf5Ksx24CdvXHK8PdnBw8ZKLK7v+CrTOX4fuHLGjlA7Ar3jHDHZG4fgFrVgpZsBUic0coVnz5CwqtbVTjq+AJIBQQih4+ZLpkocYlm8Fj22HIuMEwjwvHjKgkFLDBS37/FiFLY1DcYwzeqJehasFlNw3026Le89eFXr3YQeLsDJt7p7D3YI58JOQeW461Rx/Vfh9BjQkPv+9fgRkzl+NIrvy53wr8efMP3C+zhZOTNQuDcRhsHofwGVFIUioX34YsRUxxD4x5oyPMft+PFTNmYvmRXHY2dvSfN/HH/TLYOjnBmsV9xeWjiNq8D8laE1MVJmgzbilmdcnEijfGYc2xK0x/bLX0Jn7a8C+MXXMJHaYtwUQXU069cca1/B0NfT6tE/32NZE4w9nmHk7tPYgcpghp7jEsX3sUj3QrHjx9urNvaP7hQSAUgIoe4mFVUa2GO29ywZVXdWIigbOzDe6d2ouDSgXh2PK1OKpbQbWQvyPHQ9ndHOQoDYdfts7EMqXhDPiWGyWc/sE0XbuWll48hKio75Cq/roDTRqb3zli0LzfGAx3TMT6BTuQyQKjsjATO0JX4MtfCmFtY0g7oa82c+StGujPBe3VtwjogVOXHHHWuHxUKzYaUeMFL7yFNzpcxbY130Pw2hgM1PjKGU24fK7+uaMp62dT2JWj/5SjurdXK7oeZCtPXULeQleacaruw2hEhfTlUCHxu4eS6t7qOsjunaaVgR1JYsaTq1Lx4glbUK9pX1NW1ZDyG5bFLWjyYfkN8EoU5xV705JUHQMrUD4sYfPia+TfQkB8AZ9MhK2o7/zDlCe/81lxI7aYWr9zTP0QA0N2O46WvuJEYp4picyFZCZqRf6zYumaxqkq6GL4iyTkd6elF2pskN2jhPAh5GZhQiYCEQnZvEStB9CSuDuqm61ldC8hnIa4WZCJiYBEQjPiiVrTgCVxdEexA9sev4wGthaRCZ/JzLejHsGB1MVc/UCDXvl0zEkXsnvxtGxgaxKZ8EnA55Ndj2AK7GKueohDvj2Bwoe4kYWJCQlE7Fw8EbUesITilMLqRlZAZyIGk4vYlATmYuKbiMll8Cr67wO26X4cLXjRlszY/C0sRSSw9aKx4fMpQCKhYdvleuKy232KW/Ai2ZoxmSwsSSSwJa+x4TQ/QEKSYdsVepQVnKGIwS4kNhWQuZgdL3ahwav+q3gSXONBNnpMp2Z5kNBUSM26zqH4W1yy1WNsZou4pa+Qk5hHpiJz5gsiauU/i2KrHKnBfs2G1ms3pf6qnozXZ4uGzF8X+vRC0gzaNMKNxCZmzGdFZO4yhBZPe4ksajzIJm79Dh2r4bTl2V/TZE8JmZqKqJkVk5tvT74z9lGOIgzYMXFL6RUnMfHYdnMWR6JW/jQr9prigTx2MH092ZMkpixGmlmRmOnI3ncG7VMeTIVfDlXEbtVDH/qQ5cXR8sBOJOEzOwotyUJgSqbN3OnVhd/TdVU65PZpjrg2wKd1ote+UsrYNILcxCYsT5gz3bvQkMXT6CUL1cMq8gfZxK3pHU3F69WdYfmxLo9PzSIPoSkJm3WlOQl5tXyUI29yxgpXXtWNNGMTjXATkwmLT3OmI5chi2naSxY1YklMLSYfZpGiojyVlniLyXtJKluQ0f24BfSirRmT24IsRQKy9RpL4fMDSCIZRtv1nFwzD3Hl/bq1NH/TIObDPWnlbyon1EJj8ztXDBaciaDBLmIyFZgzPzEhsctgWqVI8lrqUI2Hz6pylM4cL0efX2uMxZELOG1omC71x1nj8pFmbEgbHGPsRJSx/AUSmLnRjJPqWNEOl8/pzx3abMydB+VqNLQ2c+iUMydw9588+T+K7vdvoDT/EtIv32ZXl9Zw7tQVrjZa7j2oN/fxxattsLTVPmR/2gWX025B6OaFTo5135OuSwUKslNx8Q7g2METbe3UN+sbguxRDtIyclEkbIXOnu6wrX247BFy0jKQWyREq86ecK+9Q+kdZF3IRrF9Z3Rzk2h5G75x8mlSijtZF5BdbI/O3dwgqXMyGR7lpCEjtwjCVp3h6W6rvgmdg4qC35GamQeZQwd4t7dXH8eu8K5fuIDrpRK09eqCluaq9QoMsRu70r5+AReul0LS1gtdNAdQwXT0eyoy82Rw6OCN9vY6pGay5KRcwB+VreDZ3RXW0CdbFQaOzagoyEaq0lDwbGtnsO644bKbJvpsUf/560KfXspw93IKLj9ohnbendDckE9xKotwMzMdvz80gb2HFzo2rxW7FQXITr2IO3BEB8+20AyDShTdzET67w9hYu8Br47NtXwaZTjSu1dYjrqFElM7uHfthFaWtRSu16dV6I1rQ3xaNzrtyyi7exkplx+gWTtvdDJM8Ry6a0j+YfPLScGFPyrRyrM7XOVvudeCM29ywZVXdVF2F5dTLuNBs3bw7tQc9f2AsbLwOi5cuI5SSVt4dWmJ+lmuBpx5vwaV+dg84t/A5u/wf7pu3FTQyPxuQAz+npqJPJkDOni3h55UWAPDa7M+v9ZAby7gwGBdcsjT4HykLTYaFmP5X45Ax4/a43DKKvQw5BAOn6t37jAkD9ajfjbKrhz8rU3vk0EdWFe3vNaogmfkr8RoNyNGjBjRR+m5UARt74B1m8agjf4+7Snk6crx/2xdqpB/hP84BWGDBuLw4AT8tKCTQbd2/C/zTzW1HnjgmZjCRPHVaEb+ORjtZsSIESP6EL24BPui/qlN2tOV4//ZupRTgaQl3WFl64uPSv+NiGnGhtcQnsF3eo0YMWLEiBEjRp5tZI+u4+K1Ujh2MvQWEyPGpteIESNGjBgxYsTIM88zeHuDESNGjBgxYsSIESOaGJteI0aMGDFixIgRI888xqbXiBEjRowYMWLEyDPP39b0Vj7KwqHP5mLiiEHo598fQ8Z9gHU/XDX412y0IruGA+Fzse7UfdUKI02N7NoBhM9dh1P3df3cSQN5ymxXcm4z5i7epVoyop8SnNs8F0t3Z6HOD289ZWj4b8k5bJ67GLsyuaX+R/tD5SNkHfoMcyeOwKB+/ug/ZBw+WPcDrjYu2eLagXDMXXdKtfzXoZmDlL63eFemcqMedNpQdh0HIz5gczmJ/CZOa0+KhvqxHGluOrIakb+fWA1ocgz3DcOQIjc9C09y2o21zdNKzXn93bn0b2l6pRlReLNbd4yNzICo60AEjnwFnWSnseL1FzBg2U/Q+auAXMjykLAjEjHJD1UrjDQ1srwE7IiMQfLDJn7+8SmzXVnuzzj64wXVkhH9PEbG/kh8EXft6W96a/pvWS5+PvojLtyRqbbq5h/rD9IMRL3ZDd3HRiJD1BUDA0filU4ynF7xOl4YsAw/NTzZIi9hByJjklXLfx2aOagMuT8fxY8X7ig36kGXDUvPrsO88DiQZzc4/EM++2yoH8uufY7hPhOwK7cRTe+TqgFNjuG+wQ27yPt8OHwm7EIjVKeXprDN00jtef3dufSvD/GyZIQHz8aJ1gtxPPkoNi2bg5nvzcfqb37C8Q87Iz18KlaeL1PtbMTI34Nk9FZknF+lWjLyTCIZja0Z57GqP/cvDv0z/aEMyeHBmH2iNRYeT8bRTcswZ+Z7mL/6G/x0/EN0Tg/H1JXn2V7/ZCQYvTUD51f1Vy3rRrsNZbiRb4PRm6IR1k+iWvcPox5+TEX5uFv0bDVVujHcN7ghFOXfxZNU3bNqm9rz+rtz6V/e9Bb/sBFfpLfCxLA58G2mWqlABK93I7Dy/THwEkrZciXyT3+M4D7t4WDBh6mZCHYe/TE9OgvyrQpKMrBz5svwsBVBYO2OAQuOI7/GxWdl/ml8HNwH7R0swDc1g8jOA/2nRyOregBdVCD3yHKM9nWGRMiH2L4zXl90CLnsQroyfw+m+A3FqiR1qahI+wQj/Cbjqz+YYQv2YVrvICxYPBIdbS1g6z0Pp0oe4fyGYPi1s4eFQABrJx+MCovD7So/KLuGg0sC4d3SEnwzMRw6BmD2rosoUW3WxaPv3kXvtyKwdelgeNgIIZS4ovfbUUhWvHvD9LdnCvyGroJa1AqkfTICfpO/Ui1X4k78agT5toGVgOnHvgMGzf4GWTU+9izJ2ImZL3vAVsTkdh+ABcfzWfirqbwTj9VBvmhjJYCZyB4dBs3GNzUH0EUjbVewbxp6By3A4pEdYWthC+95+j5mLcO1g0sQ6N0SlnwziB06ImD2LlxUKVjbWHLd9hoYqtyBWSLjqxno72ELkcASrXu+jcg1U/DSqM9U2zn08Og7vNt7HNZ8vRKjnneEOV8I2/YBmH8wl5Vc/TTUhxW+MW4ltocOR+fnmI4tWqPnVGbbjGhM7e2MZswPbTwGY0XCA7a3Ib7C1uQewfLRvnCWCMEX26Pz64twSB4UKuhBIla94YXmYgGEtu0xcM63yFFt5prHo/MbEOzXDvYWAuYPTvAZFYa46gDRDZf/6fVfuV16DURogmrSFbk4snw0fJ0lEPLFsO/8OhYdUtpI0x/kIXsQSwK90dKSDzOxAzoGzMauKocyxN6VdxC/Ogi+bawgYLnNvsMgzP4mq/r2robqQ4PiH7Dxi3S0mhiGOZrJFiKvdxGx8n2M8RIq8im3n7EY2DkTLytiwBruAxbguGbA4vTHwejT3gEWfFNmCzt49J+OaO5k2zgb4hG+e7cXBoYmKBfrbUMf+Ad/iBVvvwzvmjZUjNsb49Z8jZWjnoejOV/h0wHzDyrqgF44bMuMiw3BfmhnbwEB06WTzyiExd1W/LiWLprCj8vzojFlwhe4JM3G9nF+CN6WY5Dd9OvfgDpdB6Vu34rYiqWDPWAjFELi2htvRyWrP+XlqImG5X9N31DmxDX4euUoPO9oDr7QFu0D5uNgtUF11elK5EVPwYQvLkGavR3j/IKxLecu9k3rjaAFizGyoy0sbL0x99uv9PcGihX1sE0D6pbcHnpregN8rybFJxdhQK9J2FHz3eiy84gY0htT99R9R71Sy7xqx2GjaydXvNVG/j29fx1SSgzpRHz78fRdsWqVLu7tpSBHEbUb8xkdS0qn9MSD9FGgC/ElgbTzvnyHIjr5ngcJn3uJPvgqns7FR1NIX0cy4/HJb3W2fADaG+RIonZj6LNjSZSenkgHPwokF76EApUD6ESaspx8La3J++1NdDwpmU5GTaKuFhIaFHmVZDc+o35iF5p2olS1N9v/p/fJQ+xHq7MrSHZ7Iw0QmJC51zu088wZitmbQHmJ/2HHd6DgqJOUkvErHfs4kJwErentI0Xs6GI6E9KVzK2fp8nrD9PZxDjaNtuP7AUuNGl/PsmUp9DKvagAEgpE9Nzzk+nz42fp9K4F1M+RT07/2k/32ZE3PutHYpdppBZVSj+970Fiv9WKpfL01eQvsaHu72ykI4kpdPbbFTTM1ZzaTjlCD+Q7FJ2k9zyE9NxLH9BX8ecoPjqE+jqaEY+vnCsbgFb7S8im+zu08UgipZz9llYMcyXztlPoiGIAXTTWdjK6vXEACUzMyeudnXTmTAztTchXjKyN4jMh1NXcmp6fvJ4On02kuG2zyc9eQC6T9lO+TPtYct2KHIIVxxfGvUsewufopQ920KnEBNqzJIDaMBubdZyn2M6ph3tRFCASkaXry7RgZzwlMV8OC2hJ/BYT6UChcgjtNNyHFb7BF5PzoFCKPZtCCRtHkTPfiuycXqB/b46jnxNjaV4vCYl6rmR7c/sKCwpa7mtJ1t5v06bjSZR8MoomdbUgyaBIulpxj6IChMQzbU5950XT6ZRkOrpmGLXhN6cJ++UT5JhH+c/0HzZWh+AoOpmSQb8e+5gCnQTU+u0jzFP0wKV3Lv9V2MWBgg88ZjtLKWW5L1lae9Pbm45TUvJJiprUlSwkgyjyaoWGPzCHopCu5mTN4m794bOUGLeNZvvZk8BlEu3PZxHLae9ySl/tTxKb7vTOxiOUmHKWvl0xjFzN29IUueAN1UctpIkh1IlvT+O5ky2nnxWdfE8VA19R/Ll4ig7pS45mPOKr/OPe3iByFLWjMZ8do6T0dEo8+BEFuvBJEriT5SI9NNaGTPaoABE5BB9gfzehDVXjiixd6eUFOyk+iekkLIBa8lvQRL1By2Fbtv3n/zCZOgRT1MkUyvj1GH0c6ESC1m+Tohxoo6n8OD2F9ofJ7dqGhi2Nov2pD7jtxnlurjqtDWW+EIieYzn5czp+9jTtWtCPHPlO9K/98oO4aqKh+b+mb8jVxOwvsiTXlxfQzvgkNtcwCmjJpxYTldvLf9ZdpwvT9lOYfF5thtHSqP2Uev82bRwgIBNzL3pn5xk6E7OX4i98qrc3qK9tGlK39Nf0BvhebQr20OjnxNRr1SWSz0hO6al3yd2yH33KYqwOhWl1fa5mHDa6dnLFW13+4qb3MR2a3IL4rFlIlKpW6UB25zztWredTisSkBJpwixqJ3qBwi4y5RbG0jh7Mfl/nF2tfNnNzfSqlUDZOMnu0Pld62j76RqNozSBZrUT0QthF6uPqYuU4me6k9BzISVXy1hEJ8LG0uQN5w1reoUiGhB5s/q8j2ODyLZZbwr79aFyXUUO/bg5kg5kMKsVxtBbdmLqGZGllkmWR9uGSsi8/3q6rp5+HRSNjfBFCs+s1gDlbRlCEqvXaeudco5GppTipjqTqEcEXaqhjHvRI8nWaihtZzmkMHYc2Yv96WNFwMqR0c3Nr5KVQDnX0rip5CzqQRGaA9BIWysaKh9AF422nTLghaIBFHlTj4IUFFLMW3Yk7hlBWdViMj1tG0oS8/60/nq51rHUgfmAvhllS80GRtawxX3a85aDwo/lcOpBHrhCAfmvvVY9H2n8THKv8mVdNNiHlfILVXZSUHqcpjjxyXnKcRaFcpgONrxMohaTFX9zNb0KeYWetFAdFFR0IozGTt5A50tVReylj6jaVaRnaU57Efksz+Sex+NYCrJtRr3DfqWHih0qKOfHzRR5IINZTzdceufyX2VCVTUL0nia6S4kz4XJbOYqik5Q2NjJtOF8aQ1/kIfsW2Qn7kkRaodiIbuNhkrMqf/66yTjsndpHE11FlGPCHXhYMJQ9Ehbshq6nfIbqI/aPD40mVrwO9I87mTL4WeFFDvOnsT+H6vtK7tJm1+1IoHCP2R05/wuWrf9NCvGys1sAEqY1Y5EL4SRPhdvtA1rNjZNacOqxsx/LV1TG5GNr9SJTrhsy6IvNojlk95h9KvSuKwc/EibIw+QvBxooyn9uDwtlLqLPWnRr+VsA7fduM7NWae1otSt8MVwUpeuPNoyREJWr2+lO4+4aqKh+b9u0ysU+NNatUEVtV4+Vzl66zRrrtJCu5PYcxEpVSdveoUkGhBJVSJw9Qb1s01D6hZXTa+/79XlT9of3IKE3UMpTS4mu0D5cYozWQdsohtVYtRCc15KO1TFYaNrJ2e81eUvvr2BBwtzMVBWyvktDSYOvhg93gePYiMQMm0CRgzwQadhkciWVaKyklCRk4Gswlbw9mlT/XvTJg690KOdWdUCfEePh8+jWESETMOEEQPg02kYIrNl7PhKjY/oNagsQObFm7Du5ovO1T/rZ4H+C6OxZbqvapkDng2cnW2r7x0R9ZuA8U6/YLFPS7T2Gojx879Doe8oDO5siYqr6bhU3AY9e7upfzebye7v1wmyy2m4WK5apwNTV3/0bVutATj08EXbskvIuMLxSJEsD6npt1BxaRNGeHVBly7KV5/QMyh5fAWZ2SXIychCYStv+LSpMX6vHlCqWIa81HTcqriETSO8qo/v0icUZ0oe40pmts57BZvKdjwbZzjbcrhwxVWkXypGm5694aZWMBz8/dBJdhlpKgXrHKviN6RllcD5BV+0rN4sQc8encFX/G2gHngSuLV1rPYJE4kEzXgVKCvT6YkG60EXPCt3eLRSTZpnDkuxGVo4t1HJbQJzFos8mSGPnlWiIPMiblp3g686KGDRfyGit0yHr+JWQh4k7h6oOh1MrGBlyYO09DH3PET9MGG8E35Z7IOWrb0wcPx8fFfoi1GDO8NSNVxduPR+Cb/p9V9NKgsycfGmNbr5doY67PtjYfQWTFdOUEUFrqZfQnGbnuitdig2RX/4dZLhctpFKDxKj71lealIv1WBS5tGwKtK7i59EHqmBI+vZCLbpCH6qAvPwhxi5n2l3MlWv30qcpCRVYhW3j5Qq9IBvXq0g1KVTK++ozHe5xFiI0IwbcIIDPDphGGR2ZCx41m61sFTbkO5T7u1haPaiJA046GiTFdmk6dVDtuWidBvwng4/bIYPi1bw2vgeMz/rhC+owaDlQMtVHDkYU0M14EcLrtxn5urTuvGFK7+faEuXQ7o4dsWZZcycPE3w2qiQfm/FjyJG9qqDQqJpBl4FUp76qvT2uHBxtkZhopQL9s0pG5x1nSTevqeNpph4JghcEjfh29SWO0ojseeQ3+i7+jhaFE/UzAaXzu54011UA3qLWbj4KNjFw/wb2Yi466Wu0hkOYhdvgCf/nAdlXkxmOTjgzc/jEVqgRBu/hOxbOkoOFVJXCFjKjOBWc3A54kgEvKUf1fmIWaSD3ze/BCxqQUQuvlj4rKlGFU9gC7K5UPDzJTPXFoXtYJZXhhqruKZwtSsxtE2g/DpuRQc3TQHQ1yLcG7LPLzh641R265CViZjac0MfI0ExmPHsxVsXBlHZ8MTiSGuOSVTM5YoSH6okjqikmqVFFLmEFbdgzA3JAQhVa8laxC1PQJvupsxPTBFmJipCpsSnkiEKhVLlQMgaG6N40OWYE3UdkS86a5xnAZNZDueqSlqqlk7ZZD3dWaaCmbHyufFErNKwVxjkbwIqP6ujUF6kPtEdfJSwil6g31YCY/Ph7LBVcNjcuhEp6+wqFAGBfg6hVb5bB3YCJzzsMGgT88h5egmzBniiqJzWzDvDV94j9qGq9U3btWFS+/E4b8alFcwn2Sxo3uC1ZQpHUrTv5lelSErU+pMn72lUuaVVugeNLeG3CFYsiYK2yPehLtZw/RRG37HLvDg30Rmxl0tvitDTuxyLPj0B1wv57IP041ClRqahEgkVM2pEnkxk+Dj8yY+jE1FgdAN/hOXYekoJ84C81TbUO7T9Q1aTtvKy8GnOJdyFJvmDIFr0TlsmfcGfL1HYZsO43LlYQ3qoQND7MZ1bs46rRPmP2Kxhn+YsvzCEi0qDayJhuV/TeTHaFq0xgD66rRqF03k/mFWyyWqMqaKmr1BvWzTkLrFXdPr63vaMO8XhOFtriB2dyIK4vbiqHQgxgxtzhnr2mh07TQg3mrTEDkbgQnsXw1EH+E5RO/IZMJqIk3djvAVG3DoNxluxGzEnnv9sS4pGT/s/gJrlszAkObl+JNlb3lDZ+bcDq7CW7iYWaBO6NLLuHKdeQqj8kYMNu65h/7rkpD8w258sWYJZgxpjvKqAXRhYgcXJysUZF9WP2jGQjBry1SMXXqIRSYzAJVB+ljt3GW3b+OeziErcT9pN9btu41uk5chav85ZN9Mw9o+RTgSfRj32rjCyewGMjIeqOeBEqSl/wa0doFr7a6lFrLcS7hUpFpgFGVk4KqpG9qzS3F5wqYyKdSiluH27XvK85i2gKuTOYpLrNEzaDzGj1e+xg7yhnt7T7S1FcC5nSuEty4is0AtmfTyFShVbIoWrk4wLy6Bdc+g6uPHjx0Eb/f28Gyrfqe7Nk/Mdtowc2bzNMMNppcHNQ4tSUvHb2gNFy4Fm7VD145iXE9OquEPfyIpKUv1blDD9cBFk+qBA72+wmZg5+IEq4JsXK7xMFVF1hZMHbsUh27pl4VrHpX3k7B73T7c7jYZy6L241z2TaSt7YOiI9E4rPPhLS69O8BVr/9qYmLnAierAmRfrvFQR0UWtkwdi6WHbqlWyDGDMzuv2Y0MZGg6FJQh6woOj2Khx2LevBgl1j0RVCX3+LEY5O2O9p5tIXnQEH3UxcT+VQT2EeJc9A5k1k222B6+AhsO/QYZl5+xGGrnKsSti5lQq1KKy1eus8zIqLyBmI17cK//OiQl/4DdX6zBkhlD0Lz8T6ZL3ReL/2Qb6oLLtra4j6Td67DvdjdMXhaF/eeycTNtLfoUHUH04duqUWrCZG1KHfBqNFycduM6dyVnndaNDLmXLkFduopYDbwKU7f26OjWuJrYMPTXaXnY1VSdVjh6g3rZpiF1i6umSx7U0/d0IOyFt0a44frhaKyJPga8+hYG26q2aUOn4hpfOznjTcsAf3HTy07YZhyWzuqCzBVvYNyaY7hSKLeoFDd/2oB/jV2DSx2mYclEF8UVDq/sLnJyHjIHkeH+L1sxc9n3eCi/mpF/XGfzGiaOtMHJle9h24VHkJVex/eLQrG3qgDLr+J5Zbibk4OHbJXs/i/YOnMZvn/IzqYYQBfm6DdmOBwT12MBa8wLWeQWZu5A6Iov8UuhNUwkznC2uYdTew8iR8rGyj2G5WuP4pHaz2thAt7v+7FixkwsP5LLpGd+/udN/HG/DLZOTrC2H4Jxg80RFz4DUUkFrIiU4PdvQ7A0phg9xryB9rWucGpDDw4hPCQGV0pkKL68B3OWHQAvYDyGNzeDxNkZNvdOYe/BHLnWkHtsOdYefaS6FrVGwLhA2Cd/gunhJ3CTCSa7m4i1E19B3+FhOFMsV/FEjLQ5iZXvbcOFRzKUXv8ei0L3okrF1gHjEGifjE+mh+OEcgAkrp2IV/oOR5h8AF08Mdtpww5Dxg2GeVw4ZkQloYAl65Lfv0XI0hgU9xiDN7gUDAmGTBmHlmeWYdy8L3Hy7Gns/XA83t9zB6QK5gbrgYsm1YM+TDh8RX51PwbDHROxfgFroFjMVhZmYkfoCnz5SyGsbTjSCMc8THi/Y/+KGZi5/AhylQGCm3/cR5mtE5ysdY/NpXcu/9XAvB/GDHdE4voF2JFZyAp2ITJ3hGLFl7+g0NpGtZMSuyHjMNg8DuEzopCkdCh8G7IUMcU9MOaN9iyVc2AdgHGB9kj+ZDrCT9xk2pbhbuJaTHylL4aHncFjLn1UXMbRqM3Yl1ygHE8XJm0wbuksdMlcgTfGrcGxK2xebLX05k/Y8K+xWHOpA6YtmQgXIZef2eC1iSNhc3Il3tt2AY9kpbj+/SKE7r2lKt7yd+V4KLubgxzlAPhl60wsUw6g91a2f6wNdcFh22ITHn7fvwIzZi7HEaVx8efNP3C/zBZOTtbKMWrRlDrgCYQQUBEePpR3rdx24zo3Z53WCeHBoXCExFxBiawYl/fMwbIDPASMH47mjayJDYOjTjO7CYQCUNFDKFSnBc7eoF62aUjd4qjpj7l8rxQXD0Uh6rtU9bdoaEWAF956Ax2ubsOa7wV4bcxAaH43jCaa89Kk0bWTK95Uu2mgurf3r0WWR3HLA6mThE88UyFZWgjI1LQZub+6kL6/rrwdWXY/jha8aEtmJgKysBSRwNaLxobPpwCJhIZtv6O4qVl2L56WDWxNIhM+Cfh8susRTIFdzFUPQ92nuAUvkq2ZCQksLEkksCWvseE0P0BCkmHb6Y6Om64VyAroTMRgchGbksBcTHwTMbkMXkX/VTwMKKWMTSPITWxCZiJzEpm70JDF0+glC9WN/fIH2cSt6Z1j6pvZqTybvp7sSRJTUxI1syIxk9Xedwbty1HN9XYcLX3FicQ8tt1cyMZtRf6zYuma8r5vnShuCLd5kV7zb8HmL2ByCqlV3/l0OE81OWkGbRrhRmITMzauiMxdhtDiaS+RRdUT+bJ7lBA+hNwsTMhEICKhGY9ErQfQkjilftkOdC9+GQ1sLSIT+fh8O+oRHEhdzKseImHbE8JpiJsFmTA7iYRmxBO1pgFL4vTrl9E42ykfZBC3fodqqlknstsUt/QVchLzyJTZTGgmolb+syhWoWDtY9W82V5+s376l1Ooj5uEhHxLauU7jmaO8CBh14Wq7Rx6kN+ML25Bkw8rHyGTU566hLzF3rQkVY+RG+HDcvnFLSZT9Sml/6U57cXUc+Vv1Tf8P9w2hMRVc+TyFTbHgjMRNNhFTKYCc+bDJiR2GUyrFEEhf2BETC0mH1Y9JMcoz6APu4up68IkA+ZRTtlfTyZPiSmzTzOyEvOJb+9LM/bl1Hg4QRtc/sfhvzUfAJLvXXCGIga7kNhUQOZMBhOxCw1e9V/FN5lo+gPzmbil9IqTmOUvpit2XlErf5oVe40U1jTA3rJ7CRQ+xI0sTJhORCzmeSJqPWAJxSkE59BH4Zc0VMin7qFp8iUOZJQXt5wCO0mIz/KL0NKCBCwPNXN/lRZ+f105niF+xnJF/LKB1FpkQnwBk8euBwUHdiFz1YNs9+MW0Iu2ZiyPWJClSEC2XmMpfH4ASSTDaLs+R22sDWs9rNRkNtTq06m0xFtM3ktSVSu0o9+2bJjsr2myp4TVPBE1s2L1hW9PvjP2kaocaKHp/Jgen6JZHkIyFTajrnPiDbCb/nMbUqfrorSZzYuvkX8LNibzJxNhK+o7/zBVlS79NdHQ/K/pG3VyIrN06hJvEnsvUS3qr9OPT80iDyGLoWZdaU58Lm0cIKbW7xyjGo+t6e0N5BhumwS5Eupdt7hqun7fy6dNg4TE77mSftPpiypYfl/+goDM3GbQSXWa006tedWOw8bWTq54qw1P/o+q//3rkd7FlfTLuFViCjv3rujUylLzrWd2JXT9wgVcL5WgrVcXtDRXrdegFHeyLiC72B6du7lBojkACq9fwIXrpZC09UIX7QPopKLgd6Rm5kHm0AHe7e3VN58zyu5eRsrlB2jWzhudmtd+QEAblSi6mYn03x/CxN4DXh2bQ6TaoqQCBdmpuHgHcOzgibZ2Nc+mnftfvIo2S1thX/an6HI5DbeEbvDq5Fhr3DLcvZyCyw+aoZ13J2gTVfYoB2kZuSgStkJnT3fY1j516R1kXchGsX1ndHOT1P14QPYIOWkZyC0SolVnT7jXGUAXT8522qgoyEaqUsHwbGunYU/dVOJORiJuWXvi+TZVd/tLcXJGBwzOeA+P42ep1jEarAd9NL0edMPtK0yJ+D01E3kyB3Twbg97g6fIPY/KopvITP8dD03s4eHVEc01HVk3XHrn8l8NWBz+norMPBkcOnijvb4JMl1kp17EHTiig2dbGBCytZDhUU4aMnKLIGzVGZ7utho+2WB9aEWKu1fScflWCUzt3NG1UytYNiDeSu9k4UJ2Mew7d4ObZsCydH0dFy5cR6mkLby6tES9PPUfa0Nd6LctMy5uZqbj94cmsPfwQkdDjNtEOqgszEHKhT9Q2coTL7haG2Y3fec2qE7X5D6+eLUNlrbah+xPu+By2i0I3bzQybG2DupfExuPvjrNYiQnBRf+qEQrz+5w1fEpFHdvYLht5DSkbumt6Xp8rzJ/M0b8G9j83f+huT4Hq8zHlyM64qP2h5GyqgenTNrmpUGjaydHvNXg7216jTSK6qb36ha81qiCaEQ3FUhZ7IOeX3fFtuObEeQuxP2kzzBh6H+Q9++fkPJhd9V+RowYMWKEG3XTe3XLa7XepDHy91GKc6FB2N5hHTaNaaPzokp+Z8vjlDAMGngYgxN+woJOT+R+kyeG/otFI081PJ4JTE143DfYG2kEZvCasRLvO5/CJA8JzC0t4NjrQ1zvuwZb5hkbXiNGjBipH6xmmZjChBUuY+l6mhDhxSX7EKWn4UVFEpZ0t4Kt70co/XcEpv3DGl45xnd6jRgxiAo8yLmI3+6Uw8qlIzo0r9eHt0aMGDFixMg/HBkeXb+Ia6WO6FTrls9/Csam14gRI0aMGDFixMgzj/H2BiNGjBgxYsSIESPPPMam14gRI0aMGDFixMgzj7HpNWLEiBEjRowYMfLM8z/Z9MpyD2PZuEHwf6k/Jm3Jgo4fWDGIknObMXfpbmQ1ZpB6Irt2AOFz1+HUfW0/yVMfSnBu81ws3pWpWtaPYq6Ld6mW9FG/cZ8Ij84gcu6H2HdFplrxtCPDtQPhmLvulGq5adH0mfrZR5qbjqxG+FrT+asWZNdwIHwu1p26r1rBTWPnU29KzmHz3MXYlfmkksST9R0FlY+QdegzzJ04AoP6+aP/kHH4YN0PuNqoHwZsQrmbWMdP3EekuUjPuq/4+qcngxS56VlQTuEpyMdVyH7Ht8vfx6xZsxSv2bPfx5yQxVixIQbn8+S/EqZGdmUflr0/Dxt/eqBao6YibScWzt2Es6rfMa5I/RLz53yG+Bo/l/zUUvRffD53KXb/lU1DbWS5OLxsHAb5v4T+k7Y0qn/5q3ugxtaT/8GmtwSHFk/Cip/M0CtwOAZ2dWyUEh5n7EfkF3G49hf6rywvATsiY5D8sLHPIJYh9+ej+PHCHdWyfspyf8bRHy+olvRRv3GfBJVFqYiN3I5TN/7GxFIvZMhL2IHImGTVctOi6TOG20d27XMM95mAXbkNLyZN569akOUhYUckYpIfqlbopynmU2/KcvHz0R9x4c6TugB7sr4DaQai3uyG7mMjkSHqioGBI/FKJxlOr3gdLwxYhp/0/2apHppQ7ibU8RP3EXah9vlwH0zYlfuEml52MfH5cPhM2AXlFP7+fFxNxR+I/3IDdpz4Dffu38e9e/nI+/1XHPn033ip04v4v705TPqqXU9i22drMGvSf3CsVt9b8dsxfL7hO6SVKDVYdvkINq7fh1+qf/P36aWyOA3fbvgCcX9l01CLkkOLMWnFTzDrFYjhA7vCsRFN0F/dAzW2nvzvNb2VhcjLK0SLV2dj2Qcz8daLNv/D93hIMHprBs6v6q9a1o9k9FZknF+lWtJH/cY18ldjuH2oKB93i/7CBvEJ87fMRzIaWzPOY1V/Q3658WmjDMnhwZh9ojUWHk/G0U3LMGfme5i/+hv8dPxDdE4Px9SV59lefzNNqOMn7iNUhPy7RU/wXV5CUf5dqKfwtOVjHpoHLMS2nTuxc2c0du07jP9m/oqvhhbhy/97Gxuza1y48MyAnK2Y+Z9jqPt+r5GGUYnCvDwUtngVs5d9gJlvvQib/6Em6C+eaiXy90yB39BVSKrOkhVI+2QE/CZ/pVh69N276D1uDb5eOQrPO5qDL7RF+4D5OJhbFQhsjNMfI7hPezhY8GFqJoKdR39Mj86C5ocjWqi4gLVvvIbV7OR3vpuBXj3fxXeP2Ih34rE6yBdtrAQwE9mjw6DZ+Carxud2Fbk4snw0fJ0lEPLFsO/8OhYdyq2+IgU9QOKqN+DVXAyBXN6Bc/BtjmprZT5OfxyMPu0dYME3ZePbwaP/dERncUpbTUnGTsx82QO2IgGs3QdgwfF8ltbUcMqvk0f47t1eGBiaoFzi0L18e6+BoYq/5VTkHsHy0b5wlgjBF9uj8+uLcEixr+a48sJ57eASBHq3hCXfDGKHjgiYvQsXS1SbdVF8EosG9MKkHTXfESnD+Ygh6D11j2rZAJgN9kzxw9BVSeriXJGGT0b4YfJXf6hWlCDjqxno72ELkcASrXu+jcg1U/DSqM+UmznsWLBvGnoHLcDikR1ha2EL73lcH9my8+2ciZcV57OG+4AFOJ6veeXacLty+Uxt+1Qg98hyjPZ1hkTIh9i+M15fdAg5f0RjyoQvcEmaje3j/BC8LYftyx1/XP6Ksms4uCQQ3i0twTcTw6FjAGbvusg0YgAlGdg582V42IogsHbHgAXHoam2StyJX40g3zawEphBZN8Bg2Z/A7naKvO0z0fX/goK9mFa7yAsWDwSHW0tYOs9D9/vlsfJSmwPHY7OzzE5LFqj51R2TEY0pvZ2RjOBADYeg7EiQVWmH32Hd3sNRGiC3Pvkuu+NcWu+xspRz8PRnA+hbXsEzD+IqhRXmX8aHwf3QXsHC/BNmUx2Hug/PRrqlMHlOw2MN20U/4CNX6Sj1cQwzPFtplqpROT1LiJWvo8xXkKl7TlzHYfcjcmV9dTxo/MbEOzXDvYWAuZHTvAZFYa425VafaRubJ/grGO6Yiq3PA/RUybgi0tSZG8fB7/gbVCUCr0xUYB903ojaMFijOxoCwtbb8w7pcuYlciLnoIJX1yCNHs7xvkFY1tOQa141+/z3DWYjdCI3KQVoRve+iQMw/kJ2PJlqvqWQ1NP/GtmXxRsew8La7/d2yRw+wpXPCn1VY98oIBQ8N8wDGlvA4HACi4vvY2olELlJi05R27uptF5BS6sfQOvrWa18M53mNGrJ95VNkGIXx0E3zZWELCcbt9hEGZ/k4Xq0RvTAxlQM/TBWU+4ZK+N/Ht6/zpkdOOzfiR2mUYnSlWrSEo/ve9BYr/ViqV7UQEkElmS68sLaGd8EiUeDKOAlnxqMfGAYjvd20tBjiJqN+YzOpaUTumJB+mjQBfiSwJp533lLjqR3aZzuz+hCZ0FZD8ghD7fepSyitJptb+EbLq/QxuPJFLK2W9pxTBXMm87hY48kB8kpZTlvmRp7U1vbzpOScknKWpSV7KQDKLIqxUKeYU8U2redx5Fn06h5KNraFgbPjWfsF9xynt7g8hR1I7GfHaMktLT2Xw+okAXPkkCdxKXuAqKTtJ7HkJ67qUP6Kv4cxQfHUJ9Hc2Ix/ej1dkVROVc8uvjHkUFiMghWKlbLt0rtjsEK/4maQot97Uka++3adPxJEo+GUWTulqQZFAkXa3QHLf4TAh1Nbem5yevp8NnEylu22zysxeQy6T9lC9T7KKDAtoz+jkS91pFl9hUFZSeonfdLanfp1dVK7Qju/EZ9RO70DS5o8lu0Gf9xOQy7QSp3e4net9DTH6rsxWLhXHvkofwOXrpgx10KjGB9iwJoDYCEzLrOE+xXb8dZXR74wASmJiT1zs76cyZGNqbkK84ThdFJ99Tne8rij8XT9EhfcnRjEd8VRw0yq5cPlPL7tKU5eRraU3eb2+i40nJdDJqEnW1kNCgj4/Q/rBAcuG3oWFLo2h/KjsxV/xxnruYzoR0JXPr52ny+sN0NjGOts32I3uBC03an880qY8iOvmeBwmfe4k++CqezsVHU0hfRzLj8avtWJ6+mvwlNtT9nY10JDGFzn67goa5mlPbKUfoQWFanfno3Z+NJ7u9kQYwPzD3eod2njlDMXsT6NImFvN8MTkPCqXYsymUsHEUOfOtyM7pBfr35jj6OTGW5vWSkKjnSoVMLHAoQORAwQceyxcUuhdZutLLC3ZSfFIiHQwLoJb8FjTxQKFi+94gRxK1G0OfHUui9HS2/SO5zBIKVCU4Lt9peLzVRZoYQp349jT+u2LVGt1w5TouuRuVK+uj4/Kf6T8sV3UIjqKTKRn067GPKdBJQK3fPkJFdXzkvpbYvs1Zx3TGVGQ6pe0PU8yrzbClFLU/lfkZR0ywurVxgIBMzL3onZ1n6EzMXkrQY8jCtP0UJo/JNsNoadR+Sn2gGe9cPs9ZgxuTm+T5201A7ef8l2msFvJ5DhSS8JXP6TabXmncVHIS+tDytCzaGGBHAo+pdKxAuevjfUFkI3qFPr+j1EPx7lHUTNCb1rCaXD+44pE7nhQ9QD3ygTKn8MjUxoemfRFH5xJ20YJ+zYnv8jYdYvPTlnPypY2p8zVhtercbvpkQmcS2A+gkM+30tGsIkpf7U8Sm+70zsYjlJhylr5dMYxczdvSFMXgjeuBOGuGPjjrSTmH7HV5KpteocCf1l6rCmopxc90J9ELYYol2Z3ztGvddjpdI+ilCbOonegFCrtogMPL8mjDy2JynXFS0QDJA8tZ1IMiqrsqxr1oGmlrRUO3s8ZFGk8z3YXkuTBZHaRFJyhs7GTacL5UJe9L9JHCAHKkdHZOexL5LGd/y+jO+V20bvvpGsVGSgmz2inmY4i4hbHjyF7sTx9Xjy+jm5tfJSuB0uic8utFMxly6V6+varplcbPJHehJy1MVqeuohNhNHbyBjpfWnPcQop5y47EPSMoq1pEGeVtG0oS8/60/rrajtr4c38wtRB2p9C0csVy8Y9TyNk6gDbd0H9c/ZreB/TNKFtqNjCS1OLcpz1vORBf0fRy2VHZ9ApFAyjypn65lBRS7Dh7Evt/TGqz3qTNr1qRQBUHjbErl89o2l1pY6HnQlKbsohOhI2lyRvOU3laKHUXe9KiX5X654o/znMXxtBbdmLqGZFF1TNjMbltqITM+6+voX8tFMbSOHsx+X+cXX2s7OZmetVKoLJjKcVNdSZRjwj1RRLjXvRIsrUaSnK1ac6He39FARKKaEDkTTYT1XZFnFTpklF6nKY48cl5ynGSt1zyOedteJlELSYrltgBtRoyIQn815I6zOQ5RkQvhF1kh96h87vW0fbTNS4ApAk0q51yO9Mwh+80Lt5q8/jQZGrB70jzEuu0KLXgihEuuRuZK+uj48exFGTbjHqH/UoPFdsrKOfHzRR5IINpr7aPaIttrjqmP6bYCSi0u5g8F/3KSjaDKybK5U2vkEQDIsmg9MJGTQvtTmLPRaQM25rxzu3zXHWgUTVHX9PLmv/do6yIz86TyYaubnrZQsVvkTTITkAeU4+RvO9t2qZXj68YEE/1zQdVOeWljy7XymPswvar+1pzTuPqfG2U8ohdZ9BJZRNEU51F1CPiktr/mF6iR9qS1dDtrOFuTA/EztaIno2znnDJrlpTk6fyTg6exA1tq++sNoFE0gy8CuXnSCYOvhg93gePYiMQMm0CRgzwQadhkciWVaKyUuNNbwOQIS81HbcqLmHTCC906dJF+eoTijMlj3ElMxulBZm4eNMa3Xw7q39yz6I/FkZvwXRf5f1jPIk7PFpV/Qa1CaysLMGTyt9cN4GD72iM93mE2IgQTJswAgN8OmFYZDZklUxeTnErkJORhcJW3vBpox7foVcPtDOT/80tf/WnbwaiT/dqKlGQeRE3rbvBt7P6hwgt+i9E9JbpUKlFScVVpF8qRpueveFW/TPdbA7+fugku4y0i+WqddppNnAMhjikY983KUwbxYjfcwh/9h2N4S2a0HUrfkNaVgmcX/BFy+phJejZozP4ir8NsyPPxhnOtgbIVZGDjKxCtPL2gdqsDujVox0UZm2UXbl8phaVBci8eBPW3XyhNqUF+i+MxpbpvqplNfrjr5zz3BVX03GpuA169naD2h0c4O/XCbLLadDnDhU5GcgqbAVvnzbVx5o49EKPqsFleUhNv4WKS5swwkulM/bqE3oGJY+vIDO7ltYM3Z9nA2dnWzYTNTyrGjHPM4el2AwtnNtU+4u5uRg8ma4nO3iQuLVVPzxiIoGkGQ8VZex8TBe+o8fD51EsIkKmYcKIAfDpNAyR2TKm30oQl+80Mt5qw7Mwh5h5Wynnp6gcMVLO5fOGxZjh6NGxqB8mjHfCL4t90LK1FwaOn4/vCn0xanBnWKp2r43BsS2nnjFlWEzwYOPsDENF0ImBPq+7DjR9zVFTzmQoY+FkDgueapUK07b/hw0f9sP9rTOx8IcHrAI1JXp8xcB4qnc+MHVGDz+XGnnsRbzgXoqs9CtK/WnknCepc7lLpCL9VgUubRoBr6qxu/RB6JkSPL6SiSu3G9MDyefW0J6Nu5ZxyV475ctpbAg1jFrzlE+85iqeqak6+BWoI6AyLwaTfHzw5oexSC0Qws1/IpYtHQWnBs5EKmVaseqOoLkhCAmpei3BmqjtiHjTHWblFczlzGDKrxWFNeCZmqkSd20qkRczCT4+b+LD2FQUCN3gP3EZlo5yMljxFTIZs5Lm+DyRCEKVOJzyK3czGH26r0l5BZPLzBR61KKiDPJYN+NrSqLUGXN6GUc1M++HoOFtcCV2NxIL4rD3qBQDxwxF8wbYW/NM8kKquYbkxVX1tyaG2VGuOzNOfchhPqUwq4ZVIRIJq7XdGLty+Ywm5Wx/uSn5OiytCVf8cZ67TMZmbwZNd+DBVK4Lpn+97sAElTGNa6pNBFH14FIo1RaEudU6Y68laxC1PQJvumuclGHg/jwWE7UMy+PzoSxoanhsP8Ng82W+okHV8JV5iJnkA583P0RsagGEbv6YuGwpRlUnOC7faWS81YLfsQs8+DeRmXFXS2zIkBO7HAs+/QHXWQHTHyNccjc+V2qiR8ewwaBPzyHl6CbMGeKKonNbMO8NX3iP2oarTEZtaI3tWqpU17H6xZRhMSGfj5lh4+nFMJ/XVweauuZUU5aBjCsyPNe2vZZvEzBF2//7DB/2u4+tMxchrrB+fqwffb5iWDzVPx/wIeDXnCQbT75YVZNq5ZwnpnM5UimbpRW6B82tMXYIlqyJwvaIN+FOjemB5Cmt4T0bZz3hkl2LUA3LJ41A7lxUJsXjap8tw+3b97QkVG1U4kbMRuy51x/rkpLxw+4vsGbJDAxpXo4/2QAsP9QTU7RwdYJ5cQmsewZh/PjxytfYQfB2bw/PtrYws3OBk1UBsi/fVstYkYUtU8di6aFbqhU6qLyBmI17cK//OiQl/4DdX6zBkhlD0Lz8T3m4GDBnMzi3c4Xw1kVk1vj+QenlK7iuuGjklv/JGNgEdi5OsCrIxuXbarkqsrZg6tilOHSrxszMnOHqZIYbGRl4UGN1SVo6fkNruLjWThW1EaLXWyPgdv0wotdE4xhexVuDbVXbDIUlEFNCmfSxuk6V3cbteyqBzNqha0cxricnQT2dP5GUlMXKF6PRdqwF00k7VyFuXcyE2qxSXL5ynRU/OY2xK5fP1MLEDi5OVijIvlxj7hXI2jIVY5cekmdu1To5XPHHfW4zZ1c4md1ARkbNd2tKkJb+G9DaBfrcwcy5HVyFt3Axs0B9rPQyrlQNbtqC+Zo5ikus0TNIpTP2GjvIG+7tPdFW/jZZzfkYsv9fTOWNGGzccw/91yUh+Yfd+GLNEswY0hzlVQmOy3caHW+amNi/isA+QpyL3oFMVnc1kKZie/gKbDj0G7tg5IgRLrmbOsb0UHk/CbvX7cPtbpOxLGo/zmXfRNraPig6Eo3D8iDQ8Hnt6K1jXDHFOqqaZ2hMTOhC5xQa7fNPquZU4u7RrYi91hyvBvqzrK8FUw/832fL0O/eFry3+hdIq3X/BGnieKpGdhNXflN9ybCcwnSk55jB1UNbA/tk67xpC+Z/5sUose6JoKqxx4/FIG93tPdsi+fsG9EDsSMa3rNx1xMu2bW581+c1U0gcXaGzb1T2HswR37Nidxjy7H26KPaF806kV9x8cruIifnIVOnDPd/2YqZy77HQ/lonB/B1cU6YBwC7ZPxyfRwnLgpZc54F4lrJ+KVvsMRdqZY8U7jmOGOSFy/ADsyC5mRCpG5IxQrvvwFhdY2qlF0Ib9656Hsbg5yHjKjye7jl60zsez7h8xyUt1PF9bA5rWJGGlzEivf24YLj2Qovf49FoXuRVVfySn/E8K83xgMd0zE+gWsGBayolSYiR2hK/DlL4Ww1vj+EzsMGTcY5nHhmBGVhALmrCW/f4uQpTEo7jEGb7TXdzWsRPDCW3ijw1VsW/M9BK+NwUDNh8i5MZHA2dkG907txcEcpiNpLo4tX4uj1d/pKMGQKePQ8swyjJv3JU6ePY29H47H+3vugBTVo/F21MQGr00cCZuTK/Hetgt4JCvF9e8XIXTvreqk0hi7cvmMJuboN2Y4HBPXY8GOTBSyLFSYuQOhK77EL4XW4AmEEFARHj5UZhmu+OM8t90QjBtsjrjwGYhKKmCtQAl+/zYES2OK0WPMG9DrDjavYeJIG5xc+R62XXgEWel1fL8oFHurB7dGwLhA2Cd/gunhJ6BUWyLWTnwFfYeHQa42zflw7/+XY8aHGa8Md3NyoHS1X7B15jIoXU3uaVy+Y0C8VVzG0ajN2JdcoDhCLyZtMG7pLHTJXIE3xq3BsSssB7LV0ps/YcO/xmLNpQ6YtmQiXEy5YoRL7qaOMd2Y8H7H/hUzMHP5EeQym6PiT9z84z7KbJ3gZG1Sx+frwlXH9McUOwGEAkLRw4fKhr8xMaEVHgRCAajoIepOofE+3xQ1p/zBH7iUmYlM9kr7+RRi1r6DIZOjUfH6ciwM0HWTibzvnYLPPuyLP1njU6KnaSi9eAhRUd8htcHfIV1F4+uXVughDkf8B/tzSlFZdBHR7y/DIf5rGD/0Oa1NGbfOS3HxUBSivktFvadsHYBxgfZI/mQ6wk/cZN4sw93EtZj4Sl8MDzuD4kb1QNw1Qx+c9YRLdtVuGqju7f3rkGbQphFuJDYxI5G5iMxdhtDiaS+RRY0H2cQtJtNh5R3gjHJKXeJNYu8liiXZ/Tha8KItmZkIyMJSRAJbLxobPp8CJBIatv1O9Y3fOqn1IJv8xuh7CeE0xM2CTNiYIqEZ8UStacCSOFLdI0+ygjMUMdiFxKYCMhfzyUTsQoNX/bf6Sdfa8mZ82J3EXReyv2V0P24BvWhrRiYCC7IUCcjWayyFzw8giWQYba86gV6YfPHLaGBrEZnwBcTn21GP4EDqYl514zy3/Lqp+YADt+7l26u/vYGdt+BMBA12EZOpwJzEfBMSuwymVf9VaEVjXJLdprilr5CTmEemInMSmomolf8sir2mfDiKG6bT5S+QwMyNZpysFk4vGg+yMaQZm2iEm5hM2LnNmQwuQxbTtJcsqp/6lz9Ekf7lFOrjJiEh35Ja+Y6jmSM8SGiQHcsVD7uIW79Dx6ofbOFAdo/ilw2k1iIT4gv4xLfrQcGBXchcFQfyczbcrlw+U9s+BXQmYjC5iE1JYC4mvomYXAavIoUpH5+iWR5CMhU2o65zEgyIP65zs9PdjqOlrziRmGfKcoCQzEStyH9WLBniDrJ78bRsYGsSmfBJwOeTXY9gCuxirrYj02tC+BByszBhthIxX+ORqPUAWhKnyg215sO1v+KhEnFreqeGYevEifS/NKe9mHqu/K36YYqH24aQuCpW6jxkJaYWkw+rHnJhlKfSEm8xeS9JZSe8T3ELXiRbMxMSWFiSSGBLXmPDaX6AhCTDtittz+U7XPFW+CUNFfKpe2iacpkTGeXFLafAThLiM5sJLS1IYGpKzdxfpYXfX1fN2YBcp1fuRubK+uiY5ZPsryeTp8SU6acZWbGczrf3pRn7cpRz0fCReO2xzVHH9MYUk+rULJZbTIXUrOscSpCy3fXFhOLbG8TU+p1j6gdxOXh8ahZ5CJmtmnWlOQl5teJdv89z1QG5rRqcmxQPspnK21Xli8d8VGBFju17U9DS7+i36nMqH96qepBNg4rLtOEVWyb7KzofZMvfNIjl8Z608rdax9aBy1cYHPFU33ygyCnm7WhocD9qIRSRiNVOvqM//efYLYX+teUcbp3n06ZBQuL3XEmcU2ZjaTzIJl9zL4HCh7iRhQnLOyLmfzwRtR6whOJU+m14D8SObVTPZkA94ZC9Njz5P4ru9y+lDHcvp+Dyg2Zo590Jzev7feLsSuP6hQu4XipBW68uaGmuWt8YZI+Qk5aB3CIhWnX2hLut+gEtJRUo+D0VmXkyOHTwRnv72tt1U1l4HRcuXEeppC28urREg8QtvYOsC9kotu+Mbm6SuleDnPI/ISoK8HtqJvJkDujg3R761FJRkI3Ui3cAxw7wbGunvimek0rkfzkCHT9qj8Mpq9CjoVNjV5uXUy7jQbN28O7UvMZHaJW4k5GIW9aeeL5N1bsMUpyc0QGDM97D4/hZijVNYsdalN7JwoXsYth37gY3iZZr/MbYlctnalFR8DtSM/Mgc+gA7/b21fapLMxByoU/UNnKEy+4WstXcMcf57lZPGWnQukOnmhrVx+jluJO1gVkF9ujczc3aFdbDtIyclEkbIXOnu6oqbY682Ho2/+vpxKF1y/gwvVSSNp6oYuOBMflOw2PN11IcfdKOi7fKoGpnTu6dmoFy1qnNSRG9Mn9JGJMF5VFN5GZ/jsemtjDw6sjmotUGxjafKQu3HVMV0zJYygn5QL+qGwFz+6usFaooTExURvmQzkpuPBHJVp5doer8gQaNNrn/66aYwiV+dg84t/A5u/wfw15AEQLTR9PlSi6noLUm3y4Pe9pWB+jR+eV+ZuhnPL/NeiZFzY4HuWkISO3CMJWneHpbltrjg3vgeT+3qiejbOecMmu5m9qeo0YMRD5xxiPUxA2aCAOD07ATws6oYEfKOmhAimLfdDz667YdnwzgtyFuJ/0GSYM/Q/y/v0TUj7srtrPiBEjRow87ZSeC0XQ9g5Yt2kM2jRNz/uUU4pzoUHY3mEdNo1pw/kGx/8yxqbXyFNMBZIWvYiXP0oDr+scHDgRgb663nRpJJV3jmHRmLexNiEfJmITlEvFaP9GGHZ8MR3ddd9iZsSIESNGnjYqK1FpYvI/1fzJv9LQhM3ZiH6MTa+RpxrZo+u4eK0Ujp303zrRNFTgQc5F/HanHFYuHdGh+ZP8cNWIESNGjBgx8ldibHqNGDFixIgRI0aMPPMY3ws3YsSIESNGjBgx8sxjbHqNGDFixIgRI0aMPPMYm14jRowYMWLEiBEjzzzGpteIESNGjBgxYsTIM88z1vSW4NzmuVi8K1O1XD9Kzm3G3MW7VEtNgDQX6Vn3FV81+7fz6Awi536IfVdkqhVGnllKzmHz3MXYlanrZ1Rr8ghnIufiw31XFEv6Y0CGawfCMXfdKdVy/ZFdO4Dwuetw6n59oqISj7IO4bO5EzFiUD/49x+CcR+sww9XG/fjtA2T5Z9BvXKZRm7gyKGyazgQPhfrTt1XragvBvhQzbxZL19+2uGqT42PL338rf7ehHbU6duy6zgY8QHT30nkN9kUZfj92+V4f9YszFK8ZmP2+x9g3qIViIz5GbfKVLv9Y3myPleFhu/V0xekuenIakKffcaa3jLk/nwUP164o1quH2W5P+PojxdUS42EFYfPh/tgwq7cp6LprSxKRWzkdpy68SwUDyN6KcvFz0d/xIU7BlzgVBYhNTYS20/dUCzqjwEZ8hJ2sGSfrFquP7K8BOyIjEHyQ0O/NEaKjKg30a37WERmiNB1YCBGvtIJstMr8PoLA7Dsp4b/uH79ZfnnUJ9cppkbOHKoLA8JOyIRk/xQtaK+cPhQ7bxZH19+6uGqT42PL338rf7ehHbU5dulZ9dhXngcyLMbHJqss6nAH/FfYsOOE/jt3n3cv38P9+7eQW76UXw8yQ9er65FqlS16z+SJ+tzVWj4Xj18QXbtcwz3mYBducamVwcSjN6agfOr+quW64dk9FZknF+lWmokVIT8u0VPx7u8Rv63kIzG1ozzWNW/vr/v3cQx0ASUJYcjePYJtF54HMlHN2HZnJl4b/5qfPPTcXzYOR3hU1fi/D/+3Zamp+F2bFwObTS182YjfPnp42/W7d9JE9pRu2/LcCPfBqM3RSOsn0S1rungNQ/Awm07sXOn/BWN3QcSkLQrGBZnwrHqQMMvvP8nqYcvUFE+7hY1bRf1lze9j757F73HrcHXK0fheUdz8IW2aB8wHwdzVV1/ZT5OfxyMPu0dYME3hZnIDh79pyM6S305VZF7BMtH+8JZIgRfbI/Ory/CIcXxj/Ddu70wMDRB9XdvjFu5HaHDO+M5kQAWrXti6jdZyIieit7OzSAQ2MBj8AokPFAqVS5br4Ghir/lVN6Jx+ogX7SxEjA57NFh0Gx8k6X6SPXRd3i39zis+XolRj3vCHO+ELbtAzD/YC5klXmInjIBX1ySInv7OPgFb0OOXLyyazi4JBDeLS3BNxPDoWMAZu+6iBLliBoUn1yEAb0mYUfNK5yy84gY0htT92h5p8AAvemm/rpiykH86iD4trGCwEwE+w6DMJvtX/WBM6edUYZrB5cg0LslLPlmEDt0RMDsXbhYrYxHOL8hGH7t7GEhEMDayQejwuJwW5v/s7nvmeKHoauS2KgqKtLwyQg/TP7qD7agmt+ar7Fy1PNwNOdDaNseAfMPolqceuuvEnfiVyPItw2sBGYQ2XfAoNnfoMo99MuvlOetiK1YOtgDNkIhJK698XZUMtuigkO/8ncgco8sx2hfZ0iEfIjtO+P1RYeU85H7Zq+BCE2Qa6MS+ac/RnCf9nCw4MOUjWXn0R/To7OgbWaaMVCCjJ0z8bKHLUQCa7gPWIDj+TXfJeIeuyRjJ2a+7AFb5lPW7gOw4Hg+DH+fqRg/bPwC6a0mImyOL5qp1ioQeeHdiJV4f4wXhIqTNV6WyvzT+Di4D9o7WIBvymxq54H+06Oh2wU4bPToPDYE+6GdvQWLH2s4+YxCWNxtZUOnyB9vIWLrUgz2sIFQKIFr77cRlawuoHrzj5yKXBxZPhq+zhII+WLYd34diw6x/MM2adixXr5dM4cySjKwc+bL8LAVQWDtjgELjkPTBbjG5vKhGmjLmwU1fVm+jz6dGxDnnHFbCz02rMzfgyl+Q7EqSX3VVZH2CUb4TcZXf2hLVLV0Wx/dFJ/EogG9MGlHzU8Oy3A+Ygh6T92jWtaEM/a4cvj5DQj2awd7CwGzvRN8RoUhrjoB68k/BfswrXcQFiweiY62FrD1nodTt2ra0YD8Z6hvM8quHcSSQB/4B3+IFW+/DO+A2dhVVUj01WnlHg3EBHb9+8Gb/yd+/y2PLXPlnwLsm9YbQQsWY2RHW1jYemPeKXaBV4/cbJDeOOsqd07XGx/abKulgdHrexr1iaHD1uV50Zgy4QtckmZj+zg/BG/LkQed3nxTsG8aegctwOKRHWFrYQvveVpu25D/OMVfyb2oABKJLMn15QW0Mz6JEg+GUUBLPrWYeEC5fW8QOYra0ZjPjlFSejrb/hEFuvBJEriT7st3kKbQcl9LsvZ+mzYdT6Lkk1E0qasFSQZF0tWKexQVICKHYPlY8r+FxBc706DQWDqbkkAbRzkT38qOnF74N22O+5kSY+dRL4mIeq68JB9ZKZtDsOJvKk+n1f4Ssun+Dm08kkgpZ7+lFcNcybztFDryQLEzBYhEZOn6Mi3YGU9JiQcpLKAl8VtMpAOFhZS2P0whd5thSylqfyo9oGI6E9KVzK2fp8nrD9PZxDjaNtuP7AUuNGl/PsmUZ1VTsIdGPyemXqsuUYVqVempd8ndsh99erVqjRouvclufEb9xC407USp8gAN6qurckpf7U8Sm+70zsYjlJhylr5dMYxczdvSFIVyVLrUY+fiMyHU1dyanp+8ng6fTaS4bbPJz15ALpP2Uz5TRvnP/6GuFh0oOOokpWT8Ssc+DiQnQWt6+0iR4ngNZDfos35icpl2gqpnJ/2J3vcQk9/qbLag9AuRpSu9vGAnxScl0sGwAGrJb0ETDxQqduf0u1qUp68mf4kNdX9nIx1JTKGz366gYa7m1HbKEWZrLvmV+haInmPz/5yOnz1Nuxb0I0e+E/1rv/xs3PqVpiwnX0tr8n57Ex1PSqaTUZPY+SQ0KPKqXPnMNx0o+MBj+cQoyFFE7cZ8RseS0imd+elHgS7ElwTSTqVjVOtOTs0YKDr5HnkIn6OXPviK4s/FU3RIX3I04xHfb7ViO+fYRSfpPQ8hPffSB/RV/DmKjw6hvo5mxOP70ersuj5cB2kihXTik/3471j0cNBoWe7R3iBHErUbQ58dS6L0dOYjHwWSC19CgYoBasNlo3L6+T9dyaJDMEWdTKGMX4/Rx4FOJGj9NildgNlIKCDRcywffH6czp7eRQv6ORLf6V+kdAGO/ENSSlnuS5bW3vT2puOUlHySoiax80kGUSTLDzXtWL/cUDOHFtHJ9zxI+NxL9MFX8XQuPppC+jqSGY+viivusTl9SAMtebOmL3PqnDvOueJWE/021JZTpT+9Tx5iXf5dU7f11U0B7Rn9HIl7raJL6oJA77pbUr9PWczXhtPfOXRZ/jP9h9XVDsFRdDIlg3499jEFOgmo9dtHmFfozz+y2xtpgMCEzL3eoZ1nzlDM3gTKz69pR678Z7hvs0JCIV3Nyfr5ybT+8FlKjNtGs/3sSeAyifbLC4neOq0cQj+ldOpdNxK0n0P/lapWqSg8NZM8+Lb05jdMX5x59jZtHCAgE3MvemfnGToTs5cSLu3Wf0wduPTGXVe5fI4rPrTatnbzwuV7GjGtx9bpKbQ/TJ6D29CwpVG0P/UBR76R0e2NA0hgYk5e7+ykM2diaG9CvlKmGvwtTa9Q4E9rr1VpSkrxM91J9EIY+1tGd87vonXbT9dQpJQSZrVTbL/I9CWNn0nuQk9amKz2wKITYTR28gY6X1ozqagchBmzKv+UHp9CTnxnmnJcrmyGLI82vCyiFpMPKRZrBlNp3FRyFvWgiOoMw7gXTSNtrWjodqZIVdHyX3utumFVyCZ6gcLkgpanUWh3MXku+pWlF0ZhDL1lJ6aeEVnVTaz8/NuGSsi8/3q6Xttx6E/aH9yChN1DKU0xQDH9OMWZrAM20Y06+3LrzZCm12BdlcbRVGcR9YhQN+TyMaJH2pLV0O0kdzP9di6kmLfsSNwzgrLUyqC8bUNJYt6f1jNlPI4NIttmvSns14dK/Vbk0I+bI+lAhpZMZVDTy+bnv5bU4sTTTHcRvRB2kS1w60+TUoqb6kyiHhHqAsS4Fz2SbK2Gktw99MuvlEf4YjhlVh3P9LtliISsXt9Kd0q49KvUpdBzIanDoIhOhI2lyRvOy5VfnVRkd87TrnXb6XSNzCRNmEXtqvxUZ9NbSLHj7Ens/3G1T5DsJm1+1UrhJ4pFjrELY8eRvdifPlYPQDc3v0pWAgOb3seHaHILPnWcl8hmrJ9GyyK7Q+d3raPtp2tcgEoTaFY7pY/UkZYzBh5TbJAtNesdRr8+VI5YkfMjbY48QEoXkOcPIb0Ynll9vCxvCw2RWNHrW+9QCVf+UfivkDwXJqt1U3SCwsZOpg3nS2vYsb65oUYOLYylcfZi8v84Wy3jzc30qpVAFVdcY3P7UB1q582aBZJT51xxzh23mui3YeOa3vrr5s/9wdRC2J1ClQWBin+cQs7WAbSpbkHg9ncuXT6OpSDbZtQ77FdSTr2Ccn7cTJEHMpjk+vOPojESimhA5E11LGk0Ohz577Ghvs3mGfMW2Yl7UoS6kLChttFQiTn1X3+dZFx1mhNl08t/ricFzw2hkBD2mvcBzQgOoI4SM5L0Wk4/sylx51l50ysk0YBIuqnahfOYOnDoTcZVVx9x+Bx3fGi1bS04fa+mL3DksfK0UOou9qRFv8p9nivfKJteoWgARVYpWQt/yz29PIkb2jpWndoEEkkz8Crkb3WbwMF3NMb7PEJsRAimTRiBAT6dMCwyG7LKSlRSJQoyL+KmdTf4dhYoD2dY9F+I6C3T4VvnFhEerNw90MpUtWRuCbFZCzi34StXmJjDXMyDrKL2Bx0y5KWm41bFJWwa4YUuXbooX31CcabkMa5kZis/RudJ4NbWkUmtxEQiQTNeBcrK6n5EVXE1HZeK26BnbzeoxGEHOMDfrxNkl9NwsVy1rppmGDhmCBzS9+GblAqgOB57Dv2JvqOHo0Udq3HpTbWbXgzXlSwvFem3KnBp0wh4VemmSx+EninB4yuZyFZ9aqHTzhVXkX6pGG169oabWhlw8PdDJ9llpDFliPpNwHinX7DYpyVaew3E+PnfodB3FAZ3tlTtX194kLi1hVocCSTNeKgoM8TvlIdUI8tDavotVFzahBFeVfPvgj6hZ1Dy+AoymQK45TeFq39ftK2aP/OFHr5tUXYpA1m5HPotLUDmxZuw7uYLdRhYoP/CaGyZ7qtaVmLi4IvR433wKDYCIdMmYMQAH3QaFolsGZuXPseoyEFGViFaefugTQ0Ze/VoB7PqRX1jlyMnIwuFrbzhox4ADr16oF3VAFzwLJjPAWWluj57VtNoWdjcfEePh8+jWESETMOEEQPg02kYIrNl7PjKOrdkcMeACP0mjIfTL4vh07I1vAaOx/zvCuE7ajDULuAK/75tq/OBiUMP+LYtwyUmay5H/iktyMTFm9bo5tsZahfoj4XRWzBdIxE2PDdU5DBfLGwFb582NWTshR5qpekfu5zbh+qDYXlHT5wbELeaGGDDhmJAfNWm2cAxGOKQjn3fpKACxYjfcwh/9h2N4XUKQgWnv3Pq0qQfJox3wi+LfdCytRcGjp+P7wp9MWpwZ1hWGpB/eDZwdrZlZ9WF7vx3Kd9Q367A1fRLKG7TE73VhYQN5Q+/TjJcTrsIRVmtR53WSdl95P52BVeusNdvObgLd7yx4gASf1iEF0TycxqSZ3mwcXaGrUqQhuVm3Xq7UspRV9Oz9fucofGh17bcvleTSoPzmBzDchnPxhnOVUrWQkNyT6PhmZpWJ1ElPNX/K5EXMwm9x+/B407+8O/eFf4TR+L1cwsRclm5R7m8QTUzBb/qEL3wwOermrZqeOz8qj/1IJUyA1t1R9DcYHTU2N8EzTq4M8VlyCcCNhUNdIpVJmPuYAa+hsZ5MDVjK5jBZFp83LxfEIa32YHY3YmY478XR6UD8fHQ5lqcjVtv3NRDV1Ipa/qt0D1oLoI1lQOTZh3grpqjbjuXseaZmVFTGWx/M6Yh5rxyZdgMwqfnUvDq7q8Re/hHnNwyD1+vW4PhmxIQM6nGhUMNNFUoD4Kaa5iudRqrvvqTQukeQZgb3FFTFpNm6CBXgF75rdmOPIjEYg1bmjK/Bruwq+TUbzmSFGHAV09BB5V5MZjUezz2PO4Ef//u6Oo/ESNfP4eFnI5RARk7h4ncP6thMouE1efkGrtCOYBGkuGJRBByCV0FvyO6ePDxRWYG7lb2Qataji/LiUX45j/gO+VdDOR/2zhZKvOYXXpj/J7H6OTvj+5d/TFx5Os4tzAE2l2AOwZsBn2KcymvYvfXsTj840lsmfc11q0Zjk0JTG8KFxBBLNbwAHlqYy5QyZ1/ypPYpbkZTDkTYSNyg/wCl51P0wVEEKmVxjE2tw/VCwN0nsFG1h3nBsRtLfTZcKKiJtdK3Mx2GmlHJw3QjXk/BA1vgx2xu5E4xx97j0ox8OOhaK6lvnP6O6cubeDw6TmkvLobX8cexo8nt2De1+uwZvgmJOwZKHcN/flHXhvN9FlZT/4rZ7oxyLflZVVRSDTmKT+3sqzKlNapT53WAa/FUITt+Qi9qjszTQzLs3LfNKs+d8Nysx69cdbVcg6fMyA+5ArlsG298n49bM2db5TI+w59rqclXP5GKm8gZuMe3Ou/DknJP2D3F2uwZMYQNC//U24y9p8J7FycYFWQjcs1nmiqyNqCqWOX4tAtbQ8PNARTtHB1gnlxCax7BmH8+PHK19hB8HZvD8+2+q5gq2ANo+ovOWbOrnAyu4GMjAdsHlWUsKuv34DWLnCt3W/KEfbCWyPccP1wNNZEHwNefQuDbVXbasKpt6bFtAWbi3kxSqx7IqhKN+PHYpC3O9p7tq2+ktWJmTNcncxwIyMDVc/FySlJS8dvaA0XV1PcT9qNdftuo9vkZYjafw7ZN9Owtk8RjkQf1vIwmzypEcqkj9UlqOw2bt8zcOb11Z9pCya/OYpLrNEzqGr+4zF2kDfc23uCuYcB8suQe+kSihQDyilivnEVpm7t0aENh37N7ODiZIWC7Ms1dFGBrC1TMXbpIdWynErciNmIPff6Y11SMn7Y/QXWLJmBIc3L8Sc7jtVn3TAbtXMV4tbFTBRU7yfF5SvX2ZnkcI1tBud2rhDeuohM9QCQXr6C68oBuDGxx6uBfSA8F40dmSwbayBF6vZwrNhwCL+xhN9YWSpvxGDjnnvovy4JyT/sxhdrlmDGkOYo16EozhjAfSTtXod9t7th8rIo7D+XjZtpa9Gn6AiiD99WDiLLxaVLag9AUQYyrprCrX0HtOHIP2Z2LnCyKkD2ZdWDcXIqsrBl6lgsPXRLtYLRiNxg5twOrsJbuJhZoN5PehlX1ErTPzanD2lDM2/WpNF5hzNuaw1QyWFD+UU9lUH6WN3llt2+DYPSToN0I0Svt0bA7fphRK+JxjG8ire0FgRuf+fSpeRBEnav24fb3SZjWdR+nMu+ibS1fVB0JBqH820MzD/60J3/2jc30Lfl82RxYnaDxY1mIYGyrLpCW1ltehqSZxuam3XrrZ2Io662ddfvc/WND63UL++bcOUxXo1s0ER9jiGz+AuRvxPKQ9ndHOQ8ZFOQ3ccvW2di2fcPmdakiqdKzfuNwXDHRKxfsAOZhWyihZnYEboCX/5SCGubppuOdcA4BNon45Pp4ThxU8pkuYvEtRPxSt/hCDtTrNpLDzwBhAJC0cOHSoeyG4Jxg80RFz4DUUkFbF0Jfv82BEtjitFjzBtoX+tKVIkAL7z1Bjpc3YY13wvw2piBmk+wV8OttybFOgDjAu2R/Ml0hJ+4ycJGhruJazHxlb4YHnYG3Nqxw5Bxg2EeF44ZUUkoYAoq+f1bhCyNQXGPMXijPR+83/djxYyZWH4kl43P4uDPm/jjfhlsnZxgXdvMJhI4O9vg3qm9OJjD9pbm4tjytTj6yKC3XBj11Z81AsYFwj75E0wPPwGleyRi7cRX0Hd4GM4UmxggP+HBoXCExFxBiawYl/fMwbIDPASMH47mNlz6NUe/McPhmLgeC3ZkopBlyMLMHQhd8SV+KZS/hahGftXPK7uLnJyHLCnIcP+XrZi57Hs8ZKNK9TqGDV5jV9E2J1fivW0X8EhWiuvfL0Lo3lvVyYVrbJvXJmKkzUmsfG8bLjySofT691gUuhc1r00rLh9F1OZ9SK6RINWYoM24pZjVJRMr3hiHNceusLmy1dKb+GnDvzB2zSV0mLYEE13YlX1jZZG/W8Qrw92cHChd4BdsnbkMShfQoiiuGDDh4ff9KzBj5nIcyVV4AP68+Qful9nCyUllI3qAQ+EhiLlSAlnxZeyZswwHeAEYP7w5bLjyj3k/jBnuiMT1C9gFQSErkoXI3BGKFV/+gkJrG+X4ChqRG2xew8SRNji58j1su/AIstLr+H5RKPaqlcYxNrcP1aF23qxJo/MOV9yqdquCw4YmEmc429zDqb0HoUw7x7B87VEYlnYaoBuG4IW38EaHq9i25nsIXhuDgdoLAre/c+jyMe937F8xAzOXH4Fy6n/i5h/3UWbrBCdrS4Pzj2705D9LQ31bXlbHYbB5HMJnRCFJWUjwbchSxBT3wJg32kNrWa2F/hxkGA3Jsw3LzXr0ZsJVV5/j8Ll6xocODMn71XDkMZ5ACAEV4eFDeTZooj5HdW/vX4b8JnRxi8l0WPV8lPwp0tQl3iT2XsL+ltH9uAX0oq0ZmQgsyFIkIFuvsRQ+P4AkkmG0/Y785mQZFZyJoMEuYjIVmJOYb0Jil8G06r/qp3fVD7KJqcXkw1R1Kul/51B7cU9a+VvVDdYPadsQcfXTtDVvkJef515COA1xsyATEwGJhGbEE7WmAUviSCGG/GZscQuarJ4IlacuIW+xNy1Jld90/ZhOzfIgoamQmnWdQwlSNuLtOFr6ihOJeaYkMheSmagV+c+KpWvK5xK0U55By18QkJnbDDqpPlUtuPXG/SBb/XQlu5dA4UPcyMLEhAQiNheeiFoPWEJxCuUodanbzgzZbYpb+go5iXlkKjInoZmIWvnPotgqZZRn09eTPUliynTVzIrZmU/2vjNoX06NO+xrIM3YRCPcxGTCxjFn47kMWUzTXrKo8SCb5vyYsWiJt5i8l6SyBUP8rhaye5QQPoTcLEzYMSImP49ErQfQkrg7bDSGXvnl8ojI5sXXyL+FgPgCPpkIW1Hf+YcpT3UqLv2SrIDORAwmF7EpCczFxDcRk8vgVaQMA/WDArL7cbTgRVsyYz5sYSkiga0XjQ2fTwESCQ3bzmTV8+0N8jnGLxtIrUUmChn5dj0oOLALmVc9yMY1tjyG4pfRwNYiMuGzefLtqEdwIHUxVz/oU/jlUBLy1Q/naEOWF0fLAzuRhM98RWhJFgJTMm3mTq8u/J6uq9yh0bLI7lPcghfJ1ozp28KSRAJb8hobTvMDJCQZtl0Z87XgslF59tc02VNCpqYiambFbMS3J98Z+0jpAnIb2dCLr/lTC6ZbActjwlZ9af7hPKX/yOXVl3/kexScoYjBLiQ2FZC5mPkQi+/Bq/6reMpabcf65galb6rjPJ6WDWxNIhO5jHyy6xFMgV3Mqx9k44wbDh+qS628mVfjoReGfp3LZdcX5wyuuK2FXhuSlDI2jSA3sQnL5eYsp7vQkMXT6CULQx5kY9RbN3LKKWP5CyQwc6MZugsCgzv29OuynLK/nkyeEhZromZkxfyLb+9LM/blKB9805N/FA87iVvTO8dq1JqaDy8Zkv8M8m05Mrodt5RecRITj9nInMWJqJU/zYq9pn4QUm+d5spBur+9oSbceVb+IJuYWr9zjI1o4DGq/dRw642zrnL5HEd8aLVtHTh8T8MX2N56bE2PT9EsDyHL+82o65x4jnxTrniQTdz6HdInHk/+j6r/fWqoLLyOCxeuo1TSFl5dWsJctV6DigL8npqJPJkDOni3h72Oe20ajewRctIykFskRKvOnnC3rceJ2FVLTsoF/FHZCp7dXVXv8FWgIDsVF+8Ajh080daOY7zKfHw5oiM+an8YKat6qG/21oJBemtSZHiUk4aM3CIIW3WGp7utXvm0UVGQjVSlMuDZ1q7W8ZUoupmJ9N8fwsTeA14dm0Ok2qIVdtV8OeUyHjRrB+9OzVHnuUYOGqI/2aMcpGXkokjYCp093aHpHrrkv48vXm2Dpa32IfvTLricdgtCNy90cqw9O279VhT8jtTMPMgcOsC7vb12/TM/vH7hAq6XStDWqwta1tMxSu9k4UJ2Mew7d4ObpNbb7IaMXXoHWReyUWzfGd3cJA3+eEl69wrSL99Ciakd3Lt2QivLppalEoXXL+DC9VJI2nqhi0GK4rBRZRFuZqbj94cmsPfwQsfmKhvf/wKvtlmKVvuy8WmXy0i7JYSbVyfUdQGu/MPyye+pyMyTwaGDN9rrSISNyw2luJN1AdnF9ujczQ11XYB7bL0+VButebMmjc87+uO2FrpsqKLs7mWkXH6AZu280al5fbNOPXXDfDT/yxHo+FF7HE5ZhR5cE+eMPf26rCy6icz03/HQxB4eXh1Ra+qG5Z86GJr/DPNtBawfyE69iDtwRAfPtuAqq0+EhuTZeh1jqN7k6tBXV7l9rl7xoYt65X3dtq4szEHKhT9Q2coTL7haG5Rv9PFUNr1GlMg/DXicEoZBAw9jcMJPWNDJkA9rjDz9qJPX1S2v6W/kjTybVDe9V7HlNaMHGDEAZUFA2KCBODw4AT8t6GTQx/dPH8b81zCMemsKuC4rjfxdVCRhSXcr2Pp+hNJ/R2CaseF9huCBZ2IKE57uh3aMPOMw25uYmrD/GT3AiCFUIGlJd1jZ+uKj0n8jYto/teGVY8x/DcOot6bA+E7vU4sMj65fxLVSR3Qy+GMjI0aMGDHyLCJ7dB0Xr5XCsdMTvJ3PiJFnHGPTa8SIESNGjBgxYuSZx3h7gxEjRowYMWLEiJFnHmPTa8SIESNGjBgxYuSZx9j0GjFixIgRI0aMGHnmMTa9upBdw4HwuVh36j5bKMG5zXOxeFemcps+Ss5h89zF2JVZ+/eEZLh+MAIfzF2Hk/nafpqkMchw7UA45q47pVo28uR4hDORc/Hhviuq5bqUnNuMuYt3qZYaixS56Vm439QuUwNpbjqynsQJpLlIz7qv+KYl3XHxFPHoDCLnfoh9V2SqFUaeVeoXozVjnqsWND4Xy64dQDirE6e0xmQ9alFT8A+IiSeWv5oKjV6Cm0dnIjH3w32qpX8olfk4uX41Dlx7An5TT33Wxtj06kKWh4QdkYhJfsgWypD781H8eOGOcps+ynLx89EfceFOLWOXnsW6eeGII090c2hqtcuQl7ADkTHJqmUjT4zKIqTGRmL7qRuqFXUpy/0ZR3+8oFpqDKyAfj4cPhN2IfcJ5XTZtc8x3GcCdjX1CVhi+ny4DybsylU2vbri4imisigVsZHbcerGU9yYG2kS6hWjGjHPVQsan4tleQnYERmD5IfanjGvRy1qAp72mHhi+asp0egluKhEUWosIrf/k9/AqsTt2A8w7VsTeDg9gS/Wq5c+62Jseg1CgtFbM3B+VX/Vsh4ko7E14zxW9df8ZR7ZjXzYjN6E6LB+bDQjzzKS0VuRcX6VaqkxEIry76LoCeZzKsrH3SdxAipC/t0iZcMrR0dcGDHyd9DwGK1HLXgi/N3nf7p4YvnLSMMpjseKxefQJ2QKOj6FXyb9Fze9lcjfMwV+Q1chqUy1ChVI+2QE/CZ/pVh69N276D1uDb5eOQrPO5qDL7RF+4D5OJhb9Q4RG+P0xwju0x4OFnyYmolg59Ef06OzIFXtoY3KO/FYHeSLNlYCmIns0WHQbHyTVarayijJwM6ZL8PDVgSBtTsGLDiO/OoL7Uf47t1eGBiaoFquQO6R5Rjt6wyJkA+xfWe8vugQFCI++g7v9hqI0ATVBMuu4eCSQPj4B+PDFW/jZe8AzN51ESWKjfJxe2Pcmq+xctTzcDTnQ2jbHgHzDyrH0kkJMnbOxMsethAJrOE+YAGOq4VlVOJO/GoE+baBlcAMIvsOGDT7G9Scbm0q8/dgit9QrFIbBhVpn2CE32R89QdLKvJ59R6HNV+vxKjnHWHOF8K2fQDmH8yFXlErcnFk+Wj4Oksg5Ith3/l1LDokP4bbFwr2TUPvoAVYPLIjbC1s4T2PXf0+Oo8NwX5oZ28BAZu7k88ohMXdrm6uyq4dxJJAb7S05MNM7ICOAbOx66JS2wZTeQfxq4Pg28YKAuZf9h0GYfY3WdCjPg3kPtxrYGjVAofeHuH8hmD4tbOHhUAAaycfjAqLw+3KSuRFT8GELy5Bmr0d4/yCsS3nLvZN642gBYsxsqMtLGy9Me9EDvZM8cPQVUlQqzENn4zww+Sv/lAta7dBeV40pkz4Apek2dg+zg/B23IUu+vVYcE+TOsdhAWLR6KjrQVsvefhVG31VuYhesoEfHFJiuzt4+AXvA05BbXiQq+ODYmL+vu4/CO30x8Ho097B1jwTVkesINH/+mIztKXOapQybRyO0KHd8ZzIgEsWvfEVCZzRvRU9HZuxvzRBh6DVyDhgcobOfyIO9eV4drBJQj0bglLvhnEDh0RMHsX1O6sy3dUm2vC5q7fTwzQeb31x2UjffIr5XkrYiuWDvaAjVAIiWtvvB2VzLao4IxT3XlaI0blucjgmiKXq2Yt4M7FXGOXZOzEzJc9YMt8ytp9ABYcz2eXu7qodX5Wt76a0V9Ztyxbo+fbkVgz5SWM+iyDbeTOsY2LCfnhp/FxcB+0d7AA35TZ2M4D/adHQ+vhnD6otIv+mFBTqSN/6a31qny8cnsohnd+jtnMAq17TmXbMxA9tTecmwkgsPHA4BUJqA7j+sxRjt5eQk4DclcNKnKPYPloXzhLhOCL7dH59UU4JNePAfrVVlMfnd+AYL92sLdgc7d2gs+oMMRVJxGuHFQbVre+WYtdpiPxr/6WqnV6+iVDYo9Dn/W2j/x7ev86ZHTjs34kdplGJ0pVq0hKP73vQWK/1Yqle1EBJBJZkuvLC2hnfBIlHgyjgJZ8ajHxgGI73dtLQY4iajfmMzqWlE7piQfpo0AX4ksCaed95S51KE+n1f4Ssun+Dm08kkgpZ7+lFcNcybztFDryQL5DEZ18z4OEz71EH3wVT+fioymkryOZ8fjktzqbbb9HUQEicghWyiBNWU6+ltbk/fYmOp6UTCejJlFXCwkNirwqnwAFiBwo+MBjtmcxnQnpSubWz9Pk9YfpbGIcbZvtR/YCF5q0P59pQzmuyNKVXl6wk+KTEulgWAC15LegiQcKFefSRtHJ98hD+By99MFXFH8unqJD+pKjGY/4Kh2Wp68mf4kNdX9nIx1JTKGz366gYa7m1HbKEVJMVwuyG59RP7ELTVMbhqQ/vU8eYj9anV2hmpeILF1fpgU74ymJ6T0soCXxW0wk3aJKKWW5L1lae9Pbm45TUvJJiprUlSwkgyjyahmHL8jo9sYBJDAxJ693dtKZMzG0NyGPfv4PO75DMEWdTKGMX4/Rx4FOJGj9Nh0pYocUn6GQruZk/fxkWn/4LCXGbaPZfvYkcJlE+/NlijNwU07pq/1JYtOd3tl4hBJTztK3K4aRq3lbmiJ3FtkN+qyfmFymnVDtXxeFDzsEVy3o1Vv5z/9hvtOBgqNOUkrGr3Ts40ByErSmt9mECtP2U5jct9sMo6VR+yn1/m3aOEBAJuZe9M7OM3QmZi8l3M6tlketxp/ofQ+xynf12CA9hfaHBZILvw0NWxpF+1PZ/Dh0KLu9kQYITMjc6x3aeeYMxexNoLqqLaS0/WEU6MKnNsOWUtT+VHqgERccOjYgLhri4/f2BpGjqB2N+ewYJaWns9zykUJGSeBOkqcObTGgRi6TkPhiZxoUGktnUxJo4yhn4lvZkdML/6bNcT9TYuw86iURUc+Vl9j+XHNU+YmeXFd8JoS6mlvT85PX0+GziRS3bTb52QvIZdJ+hc71+U4davitdj/h1jmX/mrDZSP98iv1LRA9x+b/OR0/e5p2LehHjnwn+td++dm49asvT2vGKEdN0Yh5pZ6qagFXLuYcu+gkvechpOde+oC+ij9H8dEh1NfRjHh8Vd6tQ83zF1Lcu6q6teMUJSbsoSUBbVjONKOO8xLZdgPqbSNjYm+QI4najaHPjiVRejrzmY/k+URCgdqKMacPshG56n9NCtPq5i+uWi/PQ0I+iZ0HUWjsWUpJ2EijnPlkZedEL/x7M8X9nEix83qRRNSTVl6S67+ec+TsJbjiQm0zrUhTaLmvJVl7v02bjidR8skomtTVgiSDIulqGZd+tdTUkz/Qf9jxHYKj6GRKBv167GMKdBJQ67ePsJlw56A6MBtHDmxGrtNPVsugv1/i6ue4e7P62YfoqWx6hQJ/WnutSqNSip/pTqIXwhRLsjvnade67XS6hsalCbOonegFCruoLUkQlcZNJWdRD4pQOLGKe9E00taKhm7PZ8ETS+PsxeT/cTZV7SG7uZletRJoFARlolHKI/RcSMlSxa6MIjoRNpYmbzgvn4C6uBfG0Ft2YuoZkVU9LsnyaNtQCZn3X0/XZarE7r+W1NONp5nuInoh7KJqRW0KKXacPYn9P6bqnCi7SZtftSKBQoelFDfVmUQ9IkhzuiPJ1mooyaerDYOaXqGA/NdeY1ZUbY+fSe569K6ci5A8FyYzrakoOkFhYyfThvMlBjW9QtEAirxZdcbHFBtkS816h9GvD5XrKnJ+pM2RByiD1eXCmLfITtyTIrLU8sjyttFQiTn1X3+9Wm69lMbRVGcR9Yi4pLYZs3/0SFuyGrqdBXoDml49enscG0S2zXpT2K8PldsrcujHzZF0QD4hVtjTQruT2HMR/VrOFmXypldIogGRVK0SrkKi1walVJ4WSt3FnrRIcQJuHZbLm16hiAZE3tSvz/I0Cu0uJs9Fv7JZMGrGBZeOFfGmLy4a4uMyunN+F63bfrpGspZSwqx2itwid2FDml55jFXFXenxKeTEd6Ypx+WNPIPF9oaXRdRi8iED5ihXib5cV0gxb9mRuGcEqU0ho7xtQ0li3p/WX5dx+E4tOBsOLp1z608Tbhvpl18pj/DFcMqsOp7pd8sQCVm9vpXulHDpV3+erhmjnDVFI+blcqmbTv25mHvswthxZC/2p4/VA9DNza+SlcCApvfBNzTKthkNjKyR2+7vobcc+AY2vY2MCdkdOr9rHW0/LX8DR4U0gWa1U/pMHek5fZDNjqP+16Z2/uKs9ap8LD+fco9SOj7FifjOU0gdxhvoZVELmnyIrajvHDl7Ca640N/0KmqH0JMWqp2apfMwGjt5A50v4dKvlpr6OJaCmA/1DvuVlCW1gnJ+3EyRBzKYd3PnoDoUx9JYO3N69Yt7qhX645Az9rj0WV/7MJ7Ke3p5Eje0dawSzQQSSTPwKpRv2Js4+GL0eB88io1AyLQJGDHAB52GRSJbVonKSm0fCsmQl5qOWxWXsGmEF7p06aJ89QnFmZLHuJKZjZKcDGQVtoK3T5vq3zM3ceiFHu3MVEs1qCxA5sWbsO7mi87VPwVpgf4Lo7Fluq9qWUnF1XRcKm6Dnr3d1L+TbuIAf79OkF1Ow8Vy+QoeJG5toZ6uBJJmPFSUVX9AoUlFDjKyCtHK2wdt1MKiV492UEgry0Nq+i1UXNqEEV6qubJXn9AzKHl8BZnZOsY1BJ4Ebm0dq++JMZFI0IxXgbIy7R/GVRZk4uJNa3Tz7az+GWWL/lgYvQXTfQ27t5Nn4wxn26ozitBvwng4/bIYPi1bw2vgeMz/rhC+owajs2UFrqZfQnGbnujtpr6RyMTBH36dZLicdhEKdXMgy0tF+q0KXNo0Al5VvtKlD0LPlODxlUw0SH169CbqNwHjnX7BYp+WaO01EOPnf4dC31EY3Lnqo6Ha8GDj7IxqlXBQPxsYqEOeDZydbavnU18M07GeuGiQj5vAwXc0xvs8QmxECKZNGIEBPp0wLDIbskqWO3R/nlwDHqzcPdBKpRqeuSXEZi3g3IavXGFiDnMxD7IKmcF+pDPXVVxF+qVitOnZG2pTsDn4+6GT7DLSWPKov+9woS8X1VN/BtiIW35TuPr3Rdsaea6Hb1uUXWL5OpdDv6WG5+n61xQVXLlYsahv7HLkZGShsJU3fNQDwKFXD2grPbWp+C0NWSXOeMG3JTtKhaQnenRW+SMnjYwJNlff0ePh8ygWESHTMGHEAPh0GobIbBmbW6WeWzT0o6/+64e71itG4VnB3aOVqibzYG4phlkLZ6jD2BxingwsjOs9xwquXqJR9bkSBZkXcdO6G3zVTs3S+UJEb5kOA0uqZk0V9cOE8U74ZbEPWrb2wsDx8/FdoS9GDe4MSwNyUG0q7+XiRpEVHB0tVCv0xyFX7HHqswE+WB0rfym1JJFPruYqnqmpuklUwFP9n+2bF4NJPj5488NYpBYI4eY/EcuWjoKTnplIpcyRrLojaG4IQkKqXkuwJmo7It50h5m8SDFVmNVMNDwRREL1edWUK4LBzJRfQyodlLHAYemPr5HAeDCVn4gZRKaYNFtm89VA78AVkLHzm2gKC5FIqDpMCuV0gzC3eq7stWQNorZH4E13DWFqUccw0PiRah6zS31ELWeysvmb8vXsZYAvmNU43GbQpziXchSb5gyBa9E5bJn3Bny9R2HbVRlTdwUzDL+64ChgMivVLat9Ku1IpSwxWqF70NwavhKCJWuisD3iTehVny706c1mED49l4Kjm+ZgiGsRzm2Zhzd8vTFq21XVPb+1kfuLWR29a85NXrBUawyxQQ0M0qF8PjWNUl8M0rG+uGiIj1ciL2YSfHzexIexqSgQusF/4jIsHeVUjyTIA59fu6HgydVRFwP9SHeuK2PNs9wUmnPhMdubye0rTx719h09fqJAn87rqz8DbMQpP8trYrHG+KZmTD5icnPq1/A83ZCaooQrF3OPXaEcQCPeeCIRtJYerRCLS203cddA0+g1cmwjY6IyDzGTfODz5oeITS2A0M0fE5ctxSgOxen3QTZ/nTHBDWetl+/E47M4Vuyuhsd8X/WnBvWdI2cv0Zj6LE/nCqeG4SVVu37V6dsGgz49h5SjmzBniCuKzm3BvDd84T1qG67KDMhBtaByFndMv4Lq+eqPQ87Y49JnA3zQIN9uSuRJlcqkeFytrzLcvn2PqdAQKnEjZiP23OuPdUnJ+GH3F1izZAaGNC/Hn2wA7bFvihauTjAvLoF1zyCMHz9e+Ro7CN7u7eHZ1hYC53ZwFd7CxcwCtRzSy7hyXcvXtJjYwcXJCgXZl2s8MFKBrC1TMXbpIdWyEjNnVziZ3UBGxoMa8ytBWvpvQGsXuNYOPEMwc0Y7VyFuXcxEgVpYXL5ynUnBMG0BVydzFJdYo2eQaq7sNXaQN9zbe6KtrrcI5YmGyiBVGwZlt2/jnladGoaJnQucrAqQfVn9oBkqsrBl6lgsPXSr/r5QeR9Ju9dh3+1umLwsCvvPZeNm2lr0KTqC6MP34MzsbHYjAxlVTyDIKUmDUt2uMETdpi2YzcyLUWLdE0FVvjJ+LAZ5u6O9Z1uD32E1jErcT9qNdftuo9vkZYjafw7ZN9Owtk8RjkQfVvgXy8UcyBtqQpn0sTrZld3GbZXhuGygeQKzJtGhEtYMqv6qTaN13BAfr7yBmI17cK//OiQl/4DdX6zBkhlD0Lz8T6YX+X9NS6PnyOLc1ckMNzIyqh+okVOSlo7f0BourqacvqOJfj/hpL7647QRDJBfhtxLl1CkGFBOEculV2Hq1h4d2nDo18zQPN2QmqKCKxdzjs3irZ0rhLcuIlM9ACs9V6Ct9NTGrF1XdBRfR3JSjdj+MwlJWep34PTm2EbGROWNGGzccw/91yUh+Yfd+GLNEswY0hzlOhXXSB/Uhkb+4q719U3f9Z2jGVcv0dD6rMAEdi5OsCrIxuUaAV6RtQVTxy7FoVvyi9b66bfyfhJ2r9uH290mY1nUfpzLvom0tX1QdCQah++14chBdauBqe1zLLcV4sED1unK0dsvHeSMPS591t8H5Vr8SzGBxNkZNvdOYe/BHPk1D3KPLcfao49qXZ3oRn7VwSu7i5ych0wJMtz/ZStmLvseD+Wj6Xj60TpgHALtk/HJ9HCcuCllufQuEtdOxCt9hyPsTDG72HkNE0fa4OTK97DtwiPISq/j+0Wh2HtLm9LM0W/McDgmrseCHZkoZIotzNyB0BVf4pdCa9U+KuyGYNxgc8SFz0BUUgEzdQl+/zYES2OK0WPMG2iv9dKSCxu8NnEkbE6uxHvbLuCRrBTXv1+E0L23VE5hjYBxgbBP/gTTw09AOd1ErJ34CvoOD4N8utowkTjD2eYeTu09iBx2jDT3GJavPYpHhhpGG+b9MGa4IxLXL8COzELmg4XI3BGKFV/+gkJru/r7ggkPv+9fgRkzl+NIrvzRzAr8efMP3C+zhZOTNVP3/7N3JnBRVvv//8wwOwIDBKIimwquEEmkkrikSUkqlmm44E+sv5qZdl0rERPFvGZZaUqmmWi5UGpq3iQlvCmGxS5qmEiCooIQi2wz3/+ZhVWYZwbUyvu872u6Pts53/Pdzvd55jnMJIxUxGLV7CgkFrKgKL+Erxctw96yfpjwggdLiRU4dygKUd8k168Ab4pVACYF2eHs+69i1Q+5TCoVbiasw9SnB2NMxEm0oL5WIoTg0n6snD0HK47ksL7YiP7MxR8FVbBxcoIVG69EKgGVFqGopUlQqISzszVundiDgzrD4eiKdfiu1nAGbWANgUQKCZWiSN8Btw6NRCCBVEIoLSrSFwANaLOOW+Pjmm9cBKi6mY3sIhYpqgL88tkcLP+2iOms0ui/zGE0bR6jLQInjYQidhVmRyVCZ4qvsWjZXpT1m4AXPMQcvqNrpQ4uP+HEVP1x2YjL9zVtEG4fWoVFey+iXFWGC7vnY/kBAQImj0F7ay79Gp+nWzOn6ODKxdxtWz87Fc9bH8fq17cipViFiivf4u3wPWh26mmKMhAzJnXEyeWTsPDz4zj14x68M/kN7M4nfS3INd+2MSY03wgJqnAzOxu6y3/BZ3OWQ3d5M1e32Qfvpmn+4pzrTcXUMXLWEq2bn2tRDJmAMQ4J+GjJdmSUsBuTkgxsD1+Jz38pgZWtjcn6FQouYf/K2Ziz4gh0U+qfyP2jAFU2TnCysuPIQc3MBhae7OaiElnnLunzvuE45Iw9Ln2aah8N+nd7HxyV6bRprBvJhSKSKWSkcAmkpbOeJHP9i/+aF9nlHULpsP6lcs1inuQwb5J7h2m3VAWxtOQJGxIJJWTeTkYSGy+auGoxBSiVNHpbfv3LzI1Q0a34VRToZk5Cdp1MKiKBzJGGhcVSvv4C1a04Wj7ckWRCMUnEYrLtF0JBvRX6F8AbLl7QnFxIJyNHkovcjCQKOYmFcnIZ+S79VLs6tG6VOjv1eiwte9qJ5AIzNl4piWSdyH9uDF3Wre5h7cqpQ+hhqh9uMoV5y8k7LFm/oxlUtyhu+XBylAlJLBGT2LYfhQT1JoVeh5rj8asCyc1cSEKJjKQiAckch1FYbEv60VBJ6ZvGkptcyGRUMFldKHDpLHrSvMFCNnkHCq03DBM1jLzl3hSWrFtE0ByqwpMUOdKF5GYSUsjFJJS70Mh3f9KtsDfoC7qX7uWOr9DRBmsoqrN2UqinkszMZGRhyXQvtiPf2fsoW/vGOrsmdhk97SQnATuuYHaWdfKnuTGXdYup6AZtGiElcf/V9Ftzb7jrUd2Kp1WBbmQuFJJExmwmkJHjsDCK1ThLaxayGdJbdRbtDPUkJbtFl1lYkpz5np3vbNqnGxDdOTGX3KVmJLXoQ/PjcmjjMDk5vnK0fqECozJ9E411k5NQxMbMbOcSuJRmPWmu910OG9w5QXPdpWQmtaA+8+M1ZxvUofavN8gd6ZWGRmmWO3RirjtJzaRk0Wc+xec1iQtDOjYmLkz2cRUVxC6hJ2xE7HxzaieTkI3XRFq1OICUytG0jfXLvZCtsUyVP80nD3l/Wl3nTEW0NVBelycMj1HnJ4ZynWbhYuyyp8lJLiAzZlcps28n/7kUo0senL7TFMN+wqVzbv3dBZeNDMqvkUdG1k88S/4dJNo8J5R2osGLD1Oevisu/RrK040WsnHNKS0uZNNcbDgXc89XbG6KW07DHWUkFLNxim2pX0gQ9VYY89cbGGVp9PmMQeSmZHmtXSfynTSHxrJ47vPWWd1xjhzbpphQFVDskifIRsT0b96OZBIb8pq4ihYHKEk5elvd3NoQrlzFGRNNaSZ/GZzr78rHlfTTfA+SN5wTirZSoFyfq1oxRsO1hPYEA3HB8dcb2PHCk5E00kVOZhIFixkhO3ckvastPrj029ycWk1ZO0PJU2nGcowFWbL5QWznS7P3ZesWgXHloLuopFPzu1O7oR9S3To3A3FoTD1nUJ+tsI9A8x99/fsAYZX5hSRcuG2Bbt490d7Uv1evLsGVlBRcqVCiq1dvdFTo93OhKkZ2ajpySqXo1MsTXWzqXwbXUYH8zBRkldmh12NuUHI8B68pvITkjDyo7LvD28OufqHQXdSgMCsZ5/IBh+6e6Grb8pmmUJGfiZSsMtj1egxuzQirKs5GanoOSqWd0MuzC+4abjNU3byApAu3YdHNGz1NNkxLsPFfSkZGngr23b3hYddQkFb4groUuRlpuFQkhJ27F3q0l+kP6KkpRFbyOeTDAd09u6KhutU3NmPsy8Dmb/4f2hu0rwrF2alIzymFtFMveHaxMWDftqJGaW4G0i4VQWjnDq8e7VE/InZnnJ2ElD/U6OTZF653PcLTw+6WLyRdwG2LbvDu2R53q7FlG6hLspGU8gfUnTzxuKv+KZgBHRoNi9PspBT8oe4Ez76udz99vAc6NtXH1SVXkJJyBRXKrvDq3RHGpo7W0/Yx1hRmIVmXPODZ1bbJ9YZ8pxk4/cQwrdGfYRu1JH8BPn2mM5Z12oesD3rjQuo1SN280NOh6ei49WtUnm7tnKLHYC42pu2KfGSmZKHMrhcec1Ma9xWsOh/pCddg5fkoOteu/as8jtndRyL99QuIm+uk32k4x7YtJlh+upKClCsVUHb1Qm9jFNdGH2xKs/mLc643hVaM0YhaojXzcx0sP19KzkCeyh7dvT3QeEo1Xb/q0lxkpF1CkdAO7l49cPeUaigHNUZ18X0M8zuIUQmxmNel/mlwi3FoVOwZ0qdp9vmLil4enr+CCpwOD8a27uuxaULnB/1uDw8Pj9HUF72/b3nWcCH/v0pNEpb69MfOPltxbHMwukgLkPjhFIx6Mw8v/zcR7/Q1vCiKh+f+UIL/zPTBfPOtSFzr97eLXX7e5/kfQoYnwvYhii94eXj+5gggEJpBKGh5QeT/PCIvzF79BpxPTIO7UoF25g4Y8M4VDF67BQv5gpfnL8MCwyPW4ckfI7H1kn5B298I/kkvDw8PDw/PP5Wa28g+9xvyqy3h0qM72pv2fgIPz/8UfNHLw8PDw8PDw8Pz0MN/y8vDw8PDw8PDw/PQwxe9PDw8PDw8PDw8Dz180cvDw8PDw8PDw/PQ85cUvZU5acgsqP2Fkr85qss4sGoB1p8o0O/g4WmOcpzevABLd2Xot5vwl/iRCpcPrMKC9Sf0222kMgdpmQW4X5Fb+tMnWLDsK2Te9RNuOspPb8aCpbv0Ww1QXcHByH+xcR7HjX9IWuG5/7ToL81RfBIbFryDfRc1q805YvkexJXq8gGsWrAeJ/4p82AzPAxjMI1K5KRlQjdcLh/huS+weXT/yn9h4UdxuNlKt3vgRa/q8icY4zMFu3L+IYGiykP89g3Ye7ZIv4OHpzmqkPPzd/g+JV+/3YS/xI9UyIvfjg17z+q32wBLNp+M8cGUXTn3qehVoyz1a3z8aSwut1D0VuX8jO++T9Fv1VNxaj0WRv4AePWFPf/dFY+elvylOdSlyYjZsA0nrmqcjyOW70FcqfLisX3DXpwt+ueuI38YxmA87EbnkzHwmbILutKFy0d47gflJ9/HwjVxMPPuC7tW5voHPkVQ6Q3cLP2HFLw8PEajxPjP0nHm3aH67YcMKsWNm6X37SmvMSjHf4b0M+/qt2pR4eoNa0zYvBMRg/W/xsTDw2jeX4zhIY9lnlZAKL1xE/WlC+8jDx4V/rhpi4mbo7H8SQv9PtN5oEWvOi8aM6Z8ivOVWdg2yQ8hW7M1e5EftwbBvp1hKRFBZtcdI+Z9icwK3TXF37yGgZNWY1v4GPR6RAaJuSP6z2TH06Mxc6AzLCQSWLuPxMr427oLWHs3fnwPIYM8YG8uhplIBlv3oXg1OhOV+jMMUp6OHXOegrsN68uqC4YtOYYbDW9k1fmIWxMM386WkLC27bqPwLwvM6EX1wBMrt0z4DfqXSRW6XehBqnvj4Vf6BfaLd1Y12Ln6nF41EEBsdQGHgGLcTDHuD/wXJNzBCvG+8JZKYVYbodez72NQ5pr1Tewe4YfRr2byO5P9dSk4v2xfgj94g+2UYh9swYieMlSPN/DBuY23lh4ohzFZz5GiF832JlLmC6c4DMuArHXa6O+CpcPhiHIuyPaiUWQ2/dAwLxdOFeuP2wQwzZnmsCZj0Pg180O5sy+Vk4+GBcRi7quDVGTgyMrxsPXWQmpWA67Xs/h7UM5LFw0GJaZW/+G5CrGN68NwPDweO2ZnH7EoYPCfbMwMHgJlj7fAzbmNvBeeEJrxx/fC8EgD3uYi80gktnCfeiriM6s9exypO+Yg6fcbSCTWKHLsCU41rhTVF0+iLAgb3RsJ4ZIbo8eAfOwi8to6jxEz5iCT89XImvbJPiFbEW21q1+xHshg+Bhbw6xGRuDrTuGvhoNnTgafQzEpNXbED6mFx6RSWDu2B8zWaykR8/EQGcLSCTWcB+5EvG3GxiWCvFTRCA8rJnPWbrgyelRSCrRHdLYZ8DwcN0GQ50fhzXB/THk/1Yg4v8Gw2vEPHxZnzjw2sBJWLtzNcY96gCFWAobjwAsPljrCxy02Y9MyVmttIsGztjW22HtTqwe9ygcFGJIbTwQsPggat3asB254Ijl4jP4OMQP3ezMmb2t4OQzDhGx19lVmmMaG72EyM+WYaS7NaRSJVwHTkfU2WLtpVq48q0BOzX2F1PmhSaxzBVXnHGpSQc7MOcpd9iwOLDqMgxLjt1gZZTplB1/G8MGTMP2ht+UVp1BZOBAzNzN9dSxBjlHVmC8rzOUUjHkdr3w3NuH9H7ArR+uMbTaj1q0IfecyRIlZg0MxpKlz6OHjTlsvBfixDUDPscwPdbUyIuegSmfnkdl1jZM8gvB1uzCJj5iTB1jeG7X5TNfdLaUMB+yQ/eG+awF1Dd2Y4bfKLxbryAW/u9jrF8ovvhDM+L7Gf+trAH0uXn1tnCM6fUIiylzOPafycaajuiZA+FswXK/tTtGroyHbmqo9c2eGDg1Au9M8kaHJr5puFZpgubv9D4wSlJpf0QQuYg70+hlUbQ/+TZVp60hf6U19X1lIx1JSKJTX6+k0a4K6jrjCN1ml9yKCiAWCOQ8IpxiTiVR/MZx5Cy2JFunx+nlzbH0c0IMLRygJFn/1bo+bu2hYAcZdZvwIR1NTKO0hIP07yAXEiuDaEeB7pSWKaXjr7uT9JEn6V9fxNHpuGhaNNiBRAIx+a3JYserKW2NPymt+9IrG49QQtIp+nrlaHJVdKUZRzTSGkJFVz8cQnKXWfRDhX4XVdJ/33Anud8a7ZZmrDJZO3J9agntiEukhIMRFNBRTB2mHtAeN0hlEq3wbUdW3tNp07FEOns8iqb1MSfliA30e9VV+nCInFxm/UD1Xf+X3nCX68aluk4bh0lIqPCiV3acpJN791B8XgK9ya7vHhJFx5PS6dej71GQk4Qcpx9hWiIqO7mI+iis6NHQj+jwqQSK3TqP/Owk5DJtP91Q6bpoCS6bV//8JvUx704hUccpKf1XOvpeEDlJHGn6EU3PhqikpBW+1M7Km6ZvOkaJZ49T1LQ+ZK4cQRt+r+GUmUv/huW6RVEBMrIP0ZzL5UdcOlDR9Y3DSCJUkNcrO+jkyb20J/4Gc+1gcpB1owkfHqXEtDQm378pyEVMyqAdpHHt0uOvk7v0EXryX19Q3Ok4il40mBxEAhLr/YspgBb1UZDVo6H00eFTlBC7leb52ZHEZRrtN2i0EkrdH6Htq/PoZRS1P5nJeIv2BDuQrNsE+vBoIqWlJdDBf2tiW0lB2kDT6ENKYrkzjQiPoVNJ8bRxnDOJLW3J6fGXaXPsz5QQs5AGKGXUf/V5dr5+zAIzsvaZRZ/Gnqb4XUtoSHsxuUw/RIWaFjX2sQ/RCKRRIK3xV5J131do45EESjr1Na0c7UqKrjNIG4q3oihAJqN2rk/Rkh1xlMjyQERARxJ3mEoHSnRNtEzb/ciknNVquzBUHLGt90tZO1d6askOiktkdooIoI7iDjRVqwguOxrGsB9X089vMr11D6Go40mU/utRei/IiSSO00kXMsxGUgnJHnmUQj85Rqd+3EVLhjiQ2On/aL+2a658a9hOjfyFY15QXf2QhshdaJY2OTeMZe644opL1gC97i6lR578F30Rd5riohfRYAcRCcR+tCarRtuG0RTupvGPyGnAu+ep9sqKE69Rl3ZD6AM2ZkNUJq0g33ZW5D19Ex1LPEvHo6axfKakERt+59QP9xha60eGbFjFOWeqrm+kYRIhKbxeoR0nT9LePcfpP0sM+FwrY60kdT9FaPTReTQti9pPybcb+4gxdYzBuZ0rn7VAY7/VUfnfN8hdXm+X+xX/ra4BtHEvJrnzCAqPOUVJ8RtpnLOYLG2d6PGXN1PszwkUs3AAKWX9afV5NgYu36z+2WCt0pQHW/QyqlPDqa/ck97+tZptVVDsTGeS9YskzdhquRX9PNlYjqJtNzT6YROIpEFyqDhGM5zE5DzjGN3R7lBR3sdPkaxDqG4r/wztWr+Nfmyg9cr4udRN9jhFnGvQSXOUxNAkOzn5v5dVl1BUuZvpGUuJbgKpiKWZzjLqF1mfcDROE/28DVmO2kZMXAMYV/RKJf607nKt7JUUN6cLyR6P0G+3TGXcHOoi9aS3zlbq97A89UMETQz9mM6UG1P0Skk2bAPl1nZ9J4aCbSxoYMSvVKTdV0PZ32+mDQfSWQlUQntfsiV5/0jKrFMEs8PWUaRUDKWPrhjyeG6b34kJJhuLgRTxaxFrlVGTTd9v3kAH0jmqlco4mtNFSp5vnWWa01P6A0VMDKWPz9zilJlL/4blapAEufyIUwe6AlAqG0Yb6gyiovwzu2j9th8bJJRKip/bTSvfuZoSiplkR3L/96huHlXl0uZnLEmi96+SvS+Rrbw/RdYrgFR5W2mUUkFDP7qiG1NLVKdSeF85eb79KytFGKp8OrNrPW378Ub9dZXxNLebjB6POMfGrdGHVNt3fejOICexM804potc1jl9/JSMOoQe0mzox/wk/ftC3QAod/MzZMmS2xcsuTUsYipiZ5KzrB9FNlYgPW9jSaN0iUNbUPmvu1wnnzZGjMkD98SPjM9ZbbKLUUUvs4P/Oqp3a834dHbitqMhuPz4DsUE25DFwAj6VZdEWMh8T5s3HCBdyGhsJKUnVmXUx0neFgpUWtJzn+WTiivfGrRTRSN/4ZoXWi56ueKKKy416WAS2cn96b36BnR+3dBHjOZP2h/SgaR9wylVG4hl9P0MZ7IK2ERX64fWDLpcJvV8i+qniFL6IWIihX58hlM/nGNorR8ZtGG5cUWvVEbDNuTq+zXsc62PtWpKDe9Lcs+3SVu6NPIRY+uYlucWznzWAsYVvfcj/ttQA+hzsyY/6S6toGMznEjsPIPqp4aP6SlZBwo9dIfTNw3XKnfz1y77UOUhOe0aas5vwliv3ujdW/cZFH4S5XcuIiNL98heYNkF7p3MtP+GQIF2chE6OHeGWLtDCIVCDoFKt/pFaO+L8ZN9UBwTiUWzpmDsMB/0HL0BWSo11GrDXyjVZKcjs6QTvH06Q98ba28A+nXT/Y65Ki8ZaddqcH7TWHjpZe3dexDCT5bjzsUM6MVtEwKlG7o61JpFCKXSAoIarobVKMw4h1yrx+DbS6LfB5gPfQvRW16Fr1S/wyACWDs7w6a2a9kQTJnshF+W+qCjoxeGT16Mb0p8MW5kL7Sr+R1p58vQuf9AuNUqislq7++HnqoLSD1Xrd/XDEbYXDZkCiY7/YKlPh3h6DUckxd/gxLfcRjZq52+keZRF2bgXK4VHvPthTotmA/FW9Fb8OpjuUbJbEj/xsrF5UdG+721M5zrDMJk9R2PyT7FiIlchFlTxmKYT0+M3pAFlZr5dnU20jNL0MnbB53rO8WAft2g67UGv6edR1nn/hhYrwB2ij/8eqpwIfUcDFjtbljbvuMnw6c4BpGLZmHK2GHw6TkaG7JULM7U+q89BbDs4o760G0HuagDnDvrIhdCBRRyAVQ19V/xmTn3g59L3QBg/8Tj6FKRibSLDWNAhbzkNFyrOY9NY73q9Nd7UDhOlt/BxYws3Vf9AiXcujqwVnQIlUpYCGpQVWU4D9wTPzI6Z91juzSLAEq3rqh3ayWUFgLUVDEtGWXHFuD0YyGGTJkMp1+WwqejI7yGT8bib0rgO24k6kLGzBX+g7s2iJN+8O1ahfPpF1HJkW8vXjdgpyZJr9XzQg1XXHHEJdUgOz0TJZ284VPfAOwH9ENtOjANCwyfEAj7tH34Mon5T1kcdh/6E4PHj0GHWvs2h7oQGedyYfWYL+qnCHMMfSsaW1715dBPNfcYWulHBmPNuImLubc1nJ1tmEQaZAZ87j7FmrH5vMW5xch81mruQ/y3pQbQILBEF/dO+rgXQNFODlEHZ9RPDQrIBSpopgbO2DVUq+iaa4ShMHkAVKKS6d2ybzAWLFqERbWfsLWI2haJF7voIkogFusni3oEgnqnbYg6by+m+fjgxXdikFwohZv/VCxfNg5OxoyUaVjFVCJqmIwEMsikAt2/KyuZ81mib/CCelnZJ2xtFLZFvgi9uIZp4kUaozXcJTAzq5sAdOj75qBa4x0iM4gNnN64a01CbtQzzMxEDXqzxogPTiPpu02YH+iK0tNbsPAFX3iP24rfVVWsUGHdiRsPWMCuF2naVTUZZCOMsLn1CHxwOgnfbZqPQNdSnN6yEC/4emPc1t+17+q1SHUNOy6CWbNKME5mg/o3Vi4uPzLW75ksorru1cjbOw0+Pi/inZhkFErd4D91OZaNc9IHMRu7JkE07hQymbRuBFU6Begnaz0sjjSXqNWqlhNcc6jzsHeaD3xefAcxyYWQuvlj6vJlGNco0AQQs9htjEDTZcuIJRA3bIIJp9ls+mPplToFInhBA/0tCsPaqG2IfLGLboysI6bCRjTnGXdxL/zIhJx1L+zS+JzmYrsFRRhlx5bg9mPrER/gdNJ32DQ/EK6lp7Fl4Qvw9R6Hrb/rI4bFhVzesC82biYqsQmXM9+ygrJlOzWm9fMCV1xxxaUmHWgbaGRfgUyGunRgIoohwRjT+SJivkpAYewefFc5HBNGta/rr3mqtQWEyEzcbAxw6YdzDK31I4OxpqdJADSdM7VxXp8oDfrcPc2BdRifzxtHYb3MRuWzFrlLQU3y5f2I/7bUAAwBy493J8gm+tHBHbuGahX9KQ3gGtm9hw2sDrMOcHVSoKzcCv2DJ2PyZN1n4ghvdPHwRNe6p1zGosbVvRux+9ZQrE88i/989SnWhs1GYPtq/MlyqCaPGkLk3A2u0ms4l1HIWtJTeQEXrzDrMsw6uMJJUYZyq/4I1ss6efJEjPDuAg/PrvVPSVtA43hUVYk7df5QhevXb9X31WqEsHVxgmVhFi40eHm7JnMLZk5chkPXNE5PqKq8Ux8eVddx/VbLPasLEvHV+n24/lgolkftx+msXKSuG4TSI9E4fKszs5sIV9PT9S+a6yhPTcNvcISLa1NvbgCnzYGCxK+wft91PBa6HFH7TyMrNxXrBpXiSPRhg4vZhLYucLIsRNaF+kULTAnYMnMilh2VtV5mLWqj5eLyo1b5vfoq9m7cjVtD1yPx7H/w1adrETY7EO2r/2R9sP+JnNHNVYpr5zJQWN8pLly8wqZtDSI4uzpBdDUd6Y0VgLTfAEcXVxjWACtW9f/SoL66Fxt338LQ9Yk4+5+v8OnaMMwObI9qYwLNAKrci/itVL/BKElLQ7bIFe6N7ijN0IGNRVFWDqv+wXX6mzxxBLy7eMCTOVFbEtv99aOmtNUumsLetNhuSJvsyOXHyttI/Go99l1/DKHLo7D/dBZyU9dhUOkRRB++rmtDlYPz5xsYvJTp4XczuHl0g5Qj3z5iZ8BOh67pd2how7zAFVdccamxbzdXSK+dQ0Z9AywdXERtOjAZ6QC8NNYNVw5HY230UeCZlzCS5U2DCG3h4mSJwqwLDXJVDTK3zMTEZQc59MM9htb6kcFYYzY0ec5UFxjwuVttirWGpUsj2lzHtCGfaQppqkJlvYJY+F+HkeHf+vhncXFv82BLcMeuwVqlmYKhLXNDqxBIpJBQKYqKNNFihYBJQbA7+z5eXfUDcitZDryZgHVTn8bgMRE4Waa7xhQ0dx6CqpvIzi5i6lKh4JfPMGf5tyjS3I0ZXgjJbhiexdTnrXF89evYmlIMVcUVfPt2OPZc0yvOKgCTguxw9v1XseqHXNaiCjcT1mHq04MxJuIkDIsrhNLZGda3TmDPwWyNNMg5ugLrvitu5d1lYxRDJmCMQwI+WrIdGSUs2ZZkYHv4Snz+SwmsbG3g7GyNWyf24GA2U3JlDo6uWIfvilvuWSi4hP0rZ2POiiPI0SyRrPkTuX8UoMrGCU5WdgicNBKK2FWYHZWIQmbK8ktfY9GyvSjrNwEveDR3v1YLl82FEFzaj5Wz52DFkRymJU3XufijoAo2Tk6wMuSxiiGYMMYBCR8twfaMEhYQJcjYHo6Vn/+CEiu3NsiswQS5uPyoVX4vglgkQNXNbGQXsXZUBfjlszlY/m0Rs2clKtjd7rNTn4f18dV4fWsKilUVuPLt2wjfc61ugrANnISRilismh2FRJ0C8PWiZdhb1g8TXvBo9i67DoEEUgmhtKhIN9lrnpYIqnAzOxs6cX7BZ3OWQycOV6C1DBUdRuSb+5FdoUbpuWi8sfwQxM9OxqhHGhveKmASguzO4v1XV+EHnQKRsG4qnh48BhGtSRwNua9+dDdtsotQaXJsN6JNduTw4zsCXNq/ErPnrMARXRLBn7l/oKDKBk5O+j8vR7dxaNUi7L1YDlXZBeyevxwHBAGYPKY9hFz51qCdrHXt62n9vMAVV1xxqUkHU/G89XGsfn0rUopVqLjyLd4O34O6dMDOOncoClHfJKPB360wgASPv/QCuv++FWu/leDZCcPB/QecFBgyYQwcEj7Cku0ZKGHVQknGdoSv/By/lFhx6odzDK31I4M2tDV9zhQa9rnWx5oAEqkEVFoEbenSiLbXMa3NZ0KlM5ytb+HEnoPQhf9RrFj3HYwN/9bHv+09z4MtweWbhmuVZgoG/bu9D447J2iuu5TMpBbUZ348keoWxa8KJDdzIQklMpKKBCRzHEZhsfnaF6s1L4DLO4TSYf0LzlT5E833kFP/1b/VvWRdtDWQ5LULFgpiackTNiQSSsi8nYwkNl40cdViClAqafQ2XZuGUN2Ko+XDHUkmFJNELCbbfiEU1FuhXxSiOR5PqwLdyFwoJIlMSiKBjByHhVFsPlfLjMp02jTWjeRCEckUMlK4BNLSWU+SeYOFbI3GStWUHOZNcu8w/bYhVFR4MpJGusjJTKIguVhIcpeR9O5PuqWflembaKybnIQi1q9MQS6BS2nWk+YNFrLJyfGVo/WLYVjfWTtDyVNpRmYyC7KUi0ls50uz92Xr9M6uiV32NDnJBey4gtlNRp3851LMZe1b/obhsDlVZ9HOUE9SmpmRzMKSjUVMdr6zaV923RvzLaIqPEmRI11IbiYhBZNZKHehke/+pF1ByyUzp/4NytVwYYNmiIb9yLAOdIu65I6v0NE6g6ioIHYJPWEjYuebUzuZhGy8JtKqxQGkVI6mbRr/Y23GLR9OjjIhiSXMXrb9KCSoNyn0/qVp43rsMnraSU4CM+YHUuaHnfxpbsxl3eI0g9yhE3PdSWomJYs+8yn+TgHFLnmCbEQsDszbkUxiQ14TV9HiACUpR2+jfCZLVICcOoQe1i/e0oTufPKQ96fVv9VFLm0NlOt1phuzotsoChnSgaQyGYmZ7hz836Sj13Sx1XBhkub8W/GrKNDNnIQs1mVsLAKZIw0Li2V9s8OaxRLyDhRab0yqTg4jb7k3hSVzj/ae+hFHzmqbXThiW+uXje3AFEFh3nLyDktmXXPZUX9NS3DEcnXWTgr1VJIZG5eFpZzEYjvynb2PdCHDbCSzpiee9acOzF8lLGdJOw2mxYfztNdq4Mq3huzU0F+45oVqA3+9wXBcGRGXGl+NW07DHWUkFEuYDmypX0gQ9VbULja6QZtGSEncfzXVhQYX1em04nEJidxm0/F6FzeMqpBORo4kF7kZSRTMFkI5uYx8lzRTBPe8yTGGNviRwVjjmDO1C9nkjvRKfaI07HNsHK2NtTsn5pK71IykFn1ofnzeXT5iUh3TdG7R6NdQPmuRSkrfNJbc5EISsdiXKVwocOksetK84UK2+xT/ra0B7srNlfTTfA+SN/T/oq0UKLenkAN3jPBNjlqlCQLNf/T17wNDXZKNpJQ/oO7kicdddXf8quJspKbnoFTaCb08u8Cm7q32VsDuFq+kpOBKhRJdvXqjo0K/32gqkJ+ZgqwyO/R6zA3Ku24WVCjOTkV6TimknXrBs4tN/Uv4nLC7qgtJuHDbAt28e6K9ke/qG01NIS4lZyBPZY/u3h6waygYu1u6kHQBty26wbtnexjTtbo0Fxlpl1AktIO7Vw+0l+kP6KkpzELyuXzAoTs8u9qaoAcum6tRmpuBtEtFENq5w6tHezTp2gA1KLyUjIw8Fey7e8OjkRLaJrNpcnH5kel+ry65gpSUK6hQdoVX745ozrUr8jORklUGu16Pwa25TpmPZCWfQz4c0N2zK2yNVQCLq+ykFPyh7gTPvq6wEqpRciUFKVcqoOzqhd6mB1rzqEtxJSkZuWI3POrZ/BjrUBUjOzUdOaVSdOrliS5tShxNuZ9+1AyttYuGVsR2PW23o0E/ZvbMzUjDpSIh7Ny90KM2iRR8imc6L0OnfVn4oPcFpF6Tws2rJxzuCiiufGvYTnW0cV4wFFfGxCVrAJkpWSiz64XH3JSNvmZV39iMsS8Dm7/5f2jfTMjehfoGPh/bA//2OIykd/uZ5Hs1hZeQnJEHlX13eHvY1V9rjH4MjIE10AY/MmTDVsyZLflcLa2KNTa+7CSk/KFGJ8++cG3mKWKb65hW5rOqmxeQdOE2LLp5o6fJRUXb4v+e58HmMMI3uWqVWv6SopeHh4eH53+cuqL3d2x5tuVbx4efCpwOD8a27uuxaUJnzncONW8U3EmKwIjhhzEy/r9Y0vPefZXMw/OwY8w9JQ8PDw8Pz71FIIDQTMj+r6UVQv8ryPBE2D5EGVHwoiYRYX0tYeP7b1S8HIlZfMHLw2MS/JNeHh4eHh6efwQqFF85h8sVDujZ8NUEHh4eo+CLXh4eHh4eHh4enoce/vUGHh4eHh4eHh6ehx6+6OXh4eHh4eHh4Xno4YteHh4eHh4eHh6ehx6+6OXh4eHh4eHh4Xno4YveBpSf3owFS3fptzgoPokNC97BvosqtlGO05sXYOmuDN2xu1Dh8oFVWLD+hH7bVNp6/b2nMicNmQV1v6PJw8PDw8PDw/O3hi96G1CV8zO++z5Fv2UYdWkyYjZsw4mrmh/irkLOz9/h+5R83cG7UCEvfjs27D2r3zaVtl5/b1Fd/gRjfKZgVw5f9PLw8PDw8PD8M+CL3gYox3+G9DPv6rdMQYnxn6XjzLtD9dsPN1R6AzdL+YKXh4eHh4eH55/DX1D0qpEftwbBvp1hKRFBZtcdI+Z9icwK/eHiM/g4xA/d7MwhkVjByWccImKva396EcXf4LWBLyHys2UY6W4NqVQJ14HTEXW2WHupFnU+4tYEw7ezJSQiGey6j8C8LzNR2zxqcnBkxXj4OishFcth1+s5vH0oB5qXFIq/eQ0DhofrzmM93vjxPYQM8oC9uRhmrC1b96F4NToTlfoz6inGN68NwPDweP12OdJ3zMFT7jaQsTF0GbYEx240+HPI6hv48b0QDPKwh7nYDCKZLdyHvorozNqWOa5nqPPjsCbYF50tJex6O3QfMQ9f1isRZz4OgV83O5hLJLBy8sG4iFhcb7FOrcLlg2EI8u6IdmIR5PY9EDBvF86V6w83QJ0XjRlTPsX5yixsm+SHkK3Zmr0cNtXYbRJWbwvHmF6PsDGZw7H/TCZvOqJnDoSzhQQSa3eMXBmP21oZuXVffOZjhPh1g505u9bKCT7jIhDb8gB5eHh4eHh4/tfR/DjFg6Q6bQ35K62p7ysb6UhCEp36eiWNdlVQ1xlH6DZV089v9iHz7iEUdTyJ0n89Su8FOZHEcTodKWUX34qiAKmEZI88SqGfHKNTP+6iJUMcSOz0f7S/QNs6pa3xJ6V1X3pl4xFKSDpFX68cTa6KrjTjyG12vJKSVvhSOytvmr7pGCWePU5R01h/yhG04fca1nwAyexDNA2xvvZQsIOMuk34kI4mplFawkH6d5ALiZVBtIP1pbr6IQ2Ru9CsHyo0J1NUgIzsQw5oLy09/jq5Sx+hJ//1BcWdjqPoRYPJQSQgsd8a7fFbe4LJQdaNJnx4lBLT0ijh4L8pyEVMyqAdpBkG1/VMibTGX0nWfV+hjUcSKOnU17RytCspus4gzTCrf36T+ph3p5Co45SU/isdfS+InCSONF2rxLspO7mI+iis6NHQj+jwqQSK3TqP/Owk5DJtP91Q6U+qpSSV9kcEkYu4M41eFkX7k5nVDNqUobWbmOTOIyg85hQlxW+kcc5isrR1osdf3kyxPydQzMIBpJT1p9Xnazh1zwZIb/Yxp+4hUXQ8KZ1+PfoeBTlJyHH6EWp+hDw8PDw8PDz/6zzgoreCYmc6k6xfJGlqm1puRT9PNpajaNuNOxQTbEMWAyPo1yJdtVWT/T1t3nCA0ks0J2qKJyk9sSqDai9X5W2hQKUlPfdZPqkqYmmms4z6RZ6vO84uoujnbchy1Da6URlHc7pIyfOts6z81VP6A0VMDKWPz1Q0KnpV+Wdo1/pt9GODqq8yfi51kz1OEedqDBS9JRQzyY7k/u9RVp2QubT5GUuSaItWFeWf2UXrt/3YoKCspPi53Uj2eASdq+G6nmkxdiY5y/pRZGMl0vM2ljRq2w26ExNMNhYDKeLXItYboyabvt+8gQ5oldiUEtr7ki3J+0dSZl1zKsrbOoqUiqH00ZWmVS+rOVPDqa/ck97+tZptcdlUs6G7WfFbk6W3SwUdm+FEYucZdOyOdgez48f0lKwDhR66w6l7NkAKtrGggRG/ks5Naij7+8204UA6Gw0PDw8PDw8Pz9082NcbVHlITruGmvObMNarN3r31n0GhZ9E+Z2LyMgSYsiUyXD6ZSl8OjrCa/hkLP6mBL7jRqJXO30bZq7wH9wVZvpNoX0/+Hatwvn0i6jMS0batRqc3zQWXvq2e/cehPCT5bhzMQMXr2fgXK4VHvPtVf+b5eZD8Vb0FrzqK9Xv0CG098X4yT4ojonEollTMHaYD3qO3oAslRpqtYFfbq7JRnpmCTp5+6BzvZAY0K8bRLoN2PuOx2SfYsRELsKsKWMxzKcnRm/IgkrN2q7mul6FvOQ0XKs5j01jvep02HtQOE6W38HFjCwIh0zBZKdfsNSnIxy9hmPy4m9Q4jsOI+uU2ICa35F2vgyd+w+EW21/Ghn9/dBTdQGp56r1+1qA06ZVuvMEluji3klvNwEU7eQQdXBGZ7F2B4QKBeQCFWpUmuFy6F42BFMmO+GXpT7o6OiF4ZMX45sSX4wb2QvNjJCHh4eHh4eH50G/01uJSlYDWfYNxoJFi7Co9hO2FlHbIvFiFxGsR3yA00nfYdP8QLiWnsaWhS/A13sctv6ueeuWIZBBLm8othlErJIiVjCishJVsETf4AX1bbNP2NoobIt8EV2ohpWMIpiJBfprW0adtxfTfHzw4jsxSC6Uws1/KpYvGwcnTo2xPjSFm0hXouoQQCaTsv9qUCNv7zT4+LyId2KSUSh1g//U5Vg2zklvDK7rNcPUKhHBCxrocFEY1kZtQ+SLXSCyHoEPTifhu03zEehaitNbFuIFX2+M2/q79t3lxlRBVQOIxA37Yz2aiZimWJGpMlDga+G2qRaBGGJ9gVuHQFB389IQbt1bY8QHp5H03SbMD3RF6ektWPiCL7zHbUWtm/Dw8PDw8PDwNOTBFr1mHeDqpEBZuRX6B0/G5Mm6z8QR3uji4YmuyttI/Go99l1/DKHLo7D/dBZyU9dhUOkRRB++rmtDlYPz50t1/9ZQmo70383g5tEN0g6ucFKUodyqP4L1bU+ePBEjvLvAw7MrHrFzgZNlIbIu6BfGaajJxJaZE7Hs0DX9Dg1qXN27EbtvDcX6xLP4z1efYm3YbAS2r8af7EJNfd0iImd0c5Xi2rkMFNadV4kLF6+wcpahvoq9G3fj1tD1SDz7H3z16VqEzQ5E++o/NSUm1FzXszKxg6sTFGXlsOofXKfDyRNHwLuLBzy7KnE78Sus33cdj4UuR9T+08jKTcW6QaU4En347sVsrD9XJxGupqfrF5HpKE9Nw29whItr00qVwYrVOrhsamOqi3HrXl2QiK/W78P1x0KxPGo/TmflInXdIJQeicZhfjEbDw8PDw8PTzM82KIXVgiYFAS7s+/j1VU/ILeS1bA3E7Bu6tMYPCYCJ+8IcGn/SsyeswJHcjTr9GvwZ+4fKKiygZOTla4Juo1DqxZh78VyqMouYPf85TggCMDkMe0htArApCA7nH3/Vaz6IZeViircTFiHqU8PxpiIkyhTDMGEMQ5I+GgJtmeUsAKqBBnbw7Hy819QYmWta1+P5smnoOomsrOLWBmmQsEvn2HO8m9RpHmyWfenIJrDGs9OfR7Wx1fj9a0pKFZV4Mq3byN8zzXWjgYRxCIBqm5mI7uI7VEV4JfP5mD5t0XaJ9UVnNczLQZMQpDdWbz/6ir8oFMiEtZNxdODxyDi5B0ILu3HytlzsOJIDpOWafHPXPxRUAUbJydY3WVxWwROGglF7CrMjkpEIausyy99jUXL9qKs3wS84HH3s1iBRAoJlaKoSFOGc9i0THeNKXDpXii4hP0rZ2POiiPQucmfyP2jAFU2TnDSDLDmAr6L2ox9Zwt1DfLw8PDw8PDw6N/tfXCoblH8qkByMxeSUCIjqUhAMsdhFBabr110VZ21k0I9lWRmJiMLSzmJxXbkO3sfZWtWQGkWRMms6Yln/amDREwSsZCknQbT4sN5ugVbDNWteFoV6EbmQiFJZFISCWTkOCyMYvN1Z6gKT1LkSBeSm0lIIReTUO5CI9/9SftXBhotZCuIpSVP2JBIKCHzdjKS2HjRxFWLKUCppNHb8qnawF9v0IwxbvlwcpQJSczkFNv2o5Cg3qTQL2QriF1CT9iI2PjNqZ1MQjZeE2nV4gBSKkfTNo2cBq/XoKJb8aso0M2chEw+mVREApkjDQuLJe0wq7NoZ6gnKc3MSGZhSXKxmOx8Z9M+rRKbQXWdYpc9TU5yAZnJFMwmMurkP5diLmsWqjXDnRM0111KZlIL6jM/XiuvIZtq7SbvQKGH9avWqJJ+mu9B8v6r6bdakYq2UqDcnkIO3OHUvYqqKWtnKHkqzZi8FmTJ7Ci286XZ+7J1C+VKPqdRUjH1DU/VNs3Dw8PDw8PDI9D8R1//PlBUxdlITc9BqbQTenl2gU3dyjKGuhS5GWm4VCSEnbsXerSX6fYXfIpnOi9Dp31Z+KD3BaRek8LNqycc9IfrUaE4OxXpOaWQduoFzy429QvXtNSg8FIyMvJUsO/uDQ+7xkfrUJfgSkoKrlQo0dWrNzoq9PuNpCI/EylZZbDr9RjclI0fsapLriAl5QoqlF3h1bsjmmva0PVaVMXITk1HTqkUnXp5oktjJaI0NwNpl4ogtHOHV4/2uEtNTagpzELyuXzAoTs8u9o20Vlj1CXZSEr5A+pOnnjcVfcU3qBNTcUI3atLc5GRdglFQju4e/VArZvw8PDw8PDw8DTlLyt6W0Vd0fs7tjzLVzg8PDw8PDw8PDzG8YDf6W0jAgGEZkL2f9x/fYGHh4eHh4eHh4enln/Wk14eHh4eHh4eHh6eVvDPetLLw8PDw8PDw8PD0wr4opeHh4eHh4eHh+ehhy96eXh4eHh4eHh4Hnr4opeHh4eHh4eHh+ehhy96eXh4eHh4eHh4Hnr4opeHh4eHh4eHh+ehhy96eXh4eHh4eHh4Hnr4opeHh4eHh4eHh+ehhy96eXh4eHh4eHh4Hnr4opeHh4eHh4eHh+ehhy96eXh4eHh4eHh4Hnr4opeHh4eHh4eHh+ehhy96eXh4eHh4eHh4Hnr4opeHh4eHh4eHh+ehhy96eXh4eHh4eHh4Hnr4opeHh4eHh4eHh+ehhy96eXh4eHh4eHh4Hnr4opeHh4eHh4eHh+eh54EXvaorBxH5xlzMndvcZz4+jCtkZxXj5IYFeGffRd1FplJ+GpsXLMWujBr9DsNU5qQhs0Ct3/p7orp8AKsWrMcJo+QsxU+fLMCyrzJhnAb+Qv6mtio+uQEL3tmn3/qbYZLOKpGTlokH4t4m2vKB8FfKdA/7Lj+9GQuW7tJv/RNQ4fKBVViw/oR+uxUUn8SGBe9g30WVfscD5K/s+2/A3yv/NfYl42OhHKc3L8DSXRn67b85qss4sGoB1p8o0O8wjb/1nPU34sEXvdf+iy8+3orvz99EQUHBXZ8/77Akoy5FcswGbDtxVX+ViVTl4OfvvkdKPnfCUl3+BGN8pmBXzt+86M2Lx/YNe3G2iPR7DKAuQ+rXH+PT2Mt//6L3b2krNUqTY7BhWxsm7PuJ0Tpjk8UnY+AzZRceiHubYMsHxl8p0z3suyrnZ3z3fYp+65+ACnnx27Fh71n9tumoS5MRs2EbTlx98Fnsr+z7r+fvlv8a+5LxsVCFnJ+/w/cp+frtvzmqPMRv34C9Z4v0O0zhbz5n/Y34a15vEDyCpxZtxY4dO5p8tuHtZ+z0J7UB5Xh8ln4G7w6V6ne0DJXewM3Sv3fB+1DD28p0jNYZofTGTTwwlZlgywfGXynTPexbOf4zpJ95V7/Fw/O/i/GxoMT4z9Jx5t2h+m0enn/yO73FZ/BxiB+62ZlDIrGCk884RMReZ/c7mmPf4LUBwxEeX6U/9WOE+HWDnbkEEisn+IyLQOx1NdR50Zgx5VOcr8zCtkl+CNmazc5WIz9uDYJ9O8NSIoLMrjtGzPsSmRXapljTr2HgpNXYFj4GvR6RQWLuiP4z2fH0aMwc6AwLiQTW7iOxMv627gLW3o0f30PIIA/Ym4thJpLB1n0oXo3ORKX+jOYoT9+BOU+5w0YmgVWXYVhy7AYrYRqgzkfcmmD4draEhLVp130E5n2ZCb2YWqjwJ0QEesCayWTp8iSmRyWhRH+Ma5zNUbhvFgYGL8HS53vAxtwG3gs1d5Vc7ZQj/YvZGOpuA5mkHRz7T8eGtTPw5LgPdYfbYKvm5FHf+BHvhQyCh705xGZMHlt3DH01Gpl6ZTc/Bi64bFiMMx+HwK+bHcyZrq2cfDAuIhZM7BbhktN4/26pbzXyomdgyqfnUZm1DZP8QrA1W8XpNzr/Xoudq8fhUQcFxFIbeAQsxsGc2qeVNcg5sgLjfZ2hlIoht+uF594+BO3hJrbkGmNLtjaEOj8Oa4J90dlSApHMDt1HzMOXhpy2ia6+eW0gJq3didXjHoWDQgypjQcCFh/Uya85w6BMBsZeuA+zBgZjydLn0cPGHDbeC3Hi2t19vxT5GZaNdIe1VAql60AWk2fZET01OTiyYjx8nZWQiuWw6/Uc3j6UA51qX8OA4eG68xhVlw8iLMgbHduJIZLbo0fAPOw6V647qBnzwElYu3M1xj3qAIVYChuPACw+qGtLC5cfmGwbFuc75uApbZxbocuwJTh2o/G3UibbrilVl3EwLAjeHdtBLJLDvkcA5u06x3rWYyhm7sKEvKy+gd0z/DDq3UToPJtRk4r3x/oh9Is/2Iber1ZvQ/iYXniE5Wxzx/6YyfSZHj0TA50tmDzWcB+5EvG3ddJwxxmHjVuMe/3hJnDmG4Pc4/zHOXcZ9qWmsVCTcwQrxvvCWSmFWG6HXs+9jUO6hMTsMgDDw+N1J3L4D7dNuOY6E/VQno4dc56Cuw2rI6y6YNiSY2gUMkbM8Ya4l/7Tcm5ivrF7BvxGvYvE+uBA6vtj4Rf6hW6z2dxoOFYNy86kb8XcUQc9YCpPL6DuEleafbxCv6cZVFfpwyFycpn1g35HU6rp5zf7kHn3EIo6nkTpvx6l94KcSOI4nY6UssO3oihAZk8hB+6wU3+mN/uYU/eQKDqelE6/Hn2Pgpwk5Dj9CJWWpNL+iCByEXem0cuiaH/ybapOW0P+Smvq+8pGOpKQRKe+XkmjXRXUdcYRuq1tOoCY0cl5RDjFnEqi+I3jyFlsSbZOj9PLm2Pp54QYWjhASbL+q7WS0q09FOwgo24TPqSjiWmUlnCQ/h3kQmJlEO0o0J1yF6XH6XV3KT3y5L/oi7jTFBe9iAY7iEgg9qM1WTXshGpKW+NPSuu+9MrGI5SQdIq+XjmaXBVdacYRJqXqOm0cJiGBmTX5zPqUYk/H064lQ6i92IWmHyrUdsE1zrtR0fWNw0giVJDXKzvo5Mm9tCf+Bmc7JbGvkbv0EXryX9vpREI87Q4LoM4SIYl6LNQ122pbFTQjz3naE+xAsm4T6MOjiZSWlkAH/625RklBWmU3P4a7UdHVD4eQ3GWWbpPDhtU/v0l9zLtTSNRxSkr/lY6+F0ROEkearnXG5rjFIafx/m2o75LU/RShkbPzaFoWtZ+Sb3P4jbbpAJLJ2pHrU0toR1wiJRyMoICOYuow9YD2eGXSCvJtZ0Xe0zfRscSzdDxqGutfSSM2/N7YllxjNGRrbU/NUJ1Ga/yVZN33Fdp4JIGSTn1NK0e7kqLrDNKLfzdNZIoKkJGsnSs9tWQHxSUymSICqKO4A009UMIpk6Gxq65vpGHMrxVer9COkydp7554unGjad9SksgeoUdDP6Fjp37UxqSD2In+b7/G5pWUtMKX2ll50/RNxyjx7HGKmsZ8QDmCNvxeo7OLfQg7j1F2khb1UZDVo6H00eFTlBC7leb52ZHEZRrtv6HSj1lG7VyfoiU74iiR+WtEQEcSd5hKmmFq/MugH7TCNqXHX9fH+RcUdzqOohcNJgeRgMR+a3QntMJ2qqsf0hC5C836QTNXlNHJRX1IYfUohX50mE4lxNLWeX5kJ3GhaftvsIjliJmmcMR0o74bzEd1s1blf+kNdzn5rcliGzrbiuXONCI8hk4lxdPGcc4ktrQlp8dfps2xP1NCzEIaoJRR/9XntZdzxRmXjU3LOVz5pin3M/9x5yAuX2oUC5VJtMK3HVl5T6dNxxLp7PEomsZ8VzliA/1eo4t3+xCNTrn8h9smXHOdaXoopeOvu5P0kSfpX1/E0em4aFo02IFEArHep7j11JgmNrun/mMoN1XV9asNUy2V9N833Emut9fdufE4/WeJgVjlym+tmTsa8NcUvSIhiWUKUiiafKyfpx2apMxZ9N6hmGAbshgYQb8WadyVqCb7e9q84QCla65vONHdiaFgGwsaGPEr6U6toezvN9OGA+mkObU6NZz6yj3p7V+r2VYFxc50Jlm/SDqvqS313Ip+nmwsR9E2Vh9pAkMqqS0+GRXHaIaTmJxnHGNSaVBR3sdPkaxDqG4r/wztWr+NftQYS09l/FzqJnucIs416KQBJTGTyE7uT+/V9sHazN38DFnW9lsRSzOdZdQv8jwbTS23KPp5G7IctY1uaIteKcme/DddqGsilzY/Y0nKoC+owIhx3o2uYJTKhtGG3NqxcLVzm74cx+w0fANdqRt+Ae1+yZ7EzRW9JtmqGXlU+XRm13ra9qMuiWmpjKe53WT0eMQ51lpzY2iOxgmEy4Z3YoLJxmIgRfxapOu3Jpu+37yBDmidsRk45TTevw33XU2p4X1J7vk26dybw280W1r/9qd1l2slq6S4OV1I9nhE3b+lnm/R2UrdUU3y/iFiIoV+fKaxLbnGyGHr5qiInUnOsn4U2djZ6HkbSxrVvNM2lqm28PRfR/XDi6M5XXQyGfY/w2PXJnapjIZtyK0fbzN9S59YRRl1MZlHWwKVZPncZ5R/RyOHlDzfOst60lP6A0VMDKWPz1Ro7VI70ZfsfYls5f0pMrNeD6q8rTRKqaChH10hlaZfqYT8112uk6Uybg51qc05XH5gsm1KKGaSHcn936P6lKXLNxL9xNca2zUqPEv20ku2cuofmVkvM9Pf1lFKUgz9iOUXjphpAldMt6bo1Yy1flqYQU5iZ5pxTDcraGT9+CkZdQg9pN00HGfcNi4zJedw5pum3Mf8x5mDuH2pYSxo/VrqSW/VByULmwiaGPoxnaloUPRy+g+XTbjnTJP0UBJDk+zk5P9eVp08qtzN9IylROdTRuTqxjS22T31H22ObCk3lRtX9DbKjYZjlTO/tWLuaMhf83qDsAPGfvAf/PDDD40/R1dihEJ/jkFkGDJlMpx+WQqfjo7wGj4Zi78pge+4kejVTn9KLbIhmDLZCb8s9UFHRy8Mn7wY35T4YtzIXmh6quZF8uS0a6g5vwljvXqjd2/dZ1D4SZTfuYiMLN3ze4FlF7h3MtP+GwIF2slF6ODcGWLtDiEUCjkEKt0CCKG9L8ZP9kFxTCQWzZqCscN80HP0BmSp1FCrm1uUVoPs9EyUdPKGT2d9H6xN+wH90E2k21LlJSPtWg3ObxoLL72MvXsPQvjJcty5mAGdmGZw7ucHl7om7PHE411QkZmGi3eMG2dzCKyd4WyjdxsufZ0/h9TMcjg/7ouOdZ6mRP9+vfS6aoIpttLTSB42Rt/xk+FTHIPIRbMwZeww+PQcjQ1ZKqZrdd3rIY2uMQIuG8qGTMFkp1+w1KcjHL2GY/Lib1DiOw4j73JGPZxyGu/fpvRtnN8w/Sjd0NWhVj9CKJUWENSwg+pCZJzLhdVjvugl0R+GOYa+FY0tr/rqt/VwjdFkW6uQl5yGazXnsWmsV52v9R4UjpPld3AxI6v+q2eDCKB064r64SmhtBCgpopdbUgmY8YusIazs42Bd8bM4Oo/GF0bxGQ/366oOp+O8zcycC7XCo/59kJ980PxVvQWvOrb8J3gGvyedh5lnftjoFttQ5qm/OHXU4ULqedQrdkhUMKtq0OdLEKlEhaCGlRVEbcfCE20TU020jNL0MnbB/Upyx4D+nWDLmW13XY1v6fhfFln9B/oxrSoh/Xh79cTqgupOFdtwpzAMD0vcyGAZRd31E8L7SAXdYBzZ32mEyqgkAugqql/faHFODPCxmam5BzOfGOYe5n/OH2vnMuXGqJGYcY55Fo9Bt/6oGRh8xait7yKhmHD7T+6XS3axIjawBQ91GSnI7OkE7x9OtfJI7QfgH76Sd7YXN0899Z/1IXG5iYDNMqNhmLViPzWijqhIS3n5/uKBHbuj6Nfv36NP74esDNSIusRH+B00nfYND8QrqWnsWXhC/D1Hoetv9cnFR3WGPHBaSR9twnzA11RenoLFr7gC+9xW3HXqahEJXMmy77BWLBoERbVfsLWImpbJF7sonNIgVh8V9EmENQbqCHqvL2Y5uODF9+JQXKhFG7+U7F82Tg4GRhnjYoJJhQ1CnKBTAapQL9RWckmCUv0DV5QLyP7hK2NwrbIF6EXE2KJuJGBRSLNFrH/GTfO5hCYmUFUKwdnOzqdEEusxr1tY4qtdDSSR52HvdN84PPiO4hJLoTUzR9Tly/DuCbKbjwGbjhtaD0CH5xOwneb5iPQtRSntyzEC77eGLf19/p3KBtihJxG+7cpfRvpNxr9NPbmWmVVM99kfmQmrtvTIpxjNN3WlTpnQ/CCBr62KAxro7Yh8sUuzUyKzSGAGRtfI+oGY0gmI8bOcoCZQccSQCaXN4pJMxGThVh8VNcwe4lgJubULKo0N9QicePxsr5FbIdardIVMRpZWhompx+YahsmO9sv1AhQBxurTFrXZ5ttV6VivYggbjxopj/toKFigzZ+TjAippuhcXHIbEYN9wggZvNCYwQaM7RIy3FmhI1NiXsj82JL3NP8x+l73L7UkGpdUIIzbIzwH+2eFm1ixJxpih6Y3CqWCRoPUwZZ7SRvZK5uiXvqP8bkpsbBwfrQ1BkN0OSjBrnRUKxy5zfT546GGOf1fzfUBUj8aj32XX8MocujsP90FnJT12FQ6RFEH76uP0mHuiARX63fh+uPhWJ51H6czspF6rpBKD0SjcOaF58FDQxp1gGuTgqUlVuhf/BkTJ6s+0wc4Y0uHp7oasLTQR1qXN27EbtvDcX6xLP4z1efYm3YbAS2r8afrGsWa80ggnM3V0ivnUNGYf0JlRcu4oru4TET0xVOijKUW/VHsF7GyZMnYoR3F3h4doVOTBVyL/6GUu0VGkqQlpYNkas7ukjv0Ti59GXvgT495LhyNhH175j/icTETN3TqCaYZKtmUF/di427b2Ho+kSc/c9X+HRtGGYHtkd1y8o2Ai4bqlGQ+BXW77uOx0KXI2r/aWTlpmLdoFIciT7cYNz1cMpptH9z993YvY3xGwMIbeHiZInCrAsNxlWDzC0zMXHZIf22Dq4xctr6LszQwdUJirJyWPUPrvO1yRNHwLuLBzy7GnrCahwGZbphbfTYW0aFnPPnG8RkKdLTf4eZmwc82rvAybIQWRcaLLyqycSWmROx7NA1/Q4NLD8wPYiupiNdvyhKS3kq0n4DHF1c0ey3KA3g8gPlbRNtI3JGN1cprp3LQH3KqsSFi1eYhjS03XYiZyaz6CrT1+16/aAcqbpBw9XM+DlBEzem5WXNDQShqvJO/URedR3XbzWji3sCl42d8acJOadtefHe5j/OHCTh8qWGCGHr4gTLwixcaNBRTeYWzJy4DIeu1e/j9B/uoOGYM2GSHkTO3eAqvYZzGYX18lRewEX9JN+2XH1v/Udoazg3aR4iUFUl7tQHB65fv9VAz00wOL/d4sxvZibPHY1p6zzRSqpRfPU8MjIymnzOIfOPurXMLSMU4NL+lZg9ZwWO5GjWj9bgz9w/UFBlAycnK905eoSCS9i/cjbmrDgC3al/IvePAlTZOMHJSgiBRAoJlaKoSONsVgiYFAS7s+/j1VU/IJedr7qZgHVTn8bgMRE4WaZt0iRE7NZSUHUT2dlFzAlUKPjlM8xZ/i2KNHeOLSzDtH52Kp63Po7Vr29FSrEKFVe+xdvhe1AXw1YBmBRkh7Pvv4pVP+SyllS4mbAOU58ejDERJ6ETk1B0OBJv7s9GhboU56LfwPJDYjw7eRQeEd6rcXK1o0TgjEnoeHI5Ji38HMdP/Yg970zGG7vzQc0UsKbZqhk0d4eCKtzMzkYR05Wq4Bd8Nmc5vi3S3Di3oGwjMGxDJtel/Vg5ew5WHMlhezRi5+KPgirYODmBiX03XHIa7d9cfQsgkUpApUXQubcxfmMIBYZMGAOHhI+wZHsGStiEV5KxHeErP8cvJY3jjmuMXLZuDquASQiyO4v3X12FH3TOhoR1U/H04DGIaE1wNsGwTO2MH3uLEG4fWoVFey+iXFWGC7vnY/kBAQImj0H7dkMwYYwDEj5agu0ZJayYKEHG9nCs/PwXlFhZ66/XYRs4CSMVsVg1OwqJhcyw5Zfw9aJl2FvWDxNe8GAlGgccfnDHZNtY49mpz8P6+Gq8vjUFxaoKXPn2bYTvuVY38bXZdraBmDRSgdhVsxGVWMgiohyXvl6EZXvL0G/CC/AQGz8naDApLwuVcHa2xq0Te3Awm7VdmYOjK9bhu+Imj7fuIYZt3AMiU3JOG/PiPc1/nDmI25caohgyAWMcEvDRku3IKGE30yUZ2B6+Ep//UgIr6wadc/kPd9BwzHUm6sH6WUx93hrHV7+OrSnFUFVcwbdvh2NP7STfxlx9T/1HYSg32ULp7AzrWyew52A2a6sSOUdXYN13xY2f9DaEY37jym9irvxUcwHfRW3GvrOaHzprBv27vQ8M3UI2rT6a+QjIfOxO4l7IRlSdtZNCPZVkZiYjC0s5icV25Dt7H2Vr3n1utICkmrJ2hpKn0ozMZBZkKReT2M6XZu/L1r0gfucEzXWXkpnUgvrMj2d936L4VYHkZi4koURGUpGAZI7DKCw2X/sStuZld3mHUDqsX59AlT/RfA859V/9W90L50VbA0muf9FeVRBLS56wIZFQQubtZCSx8aKJqxZTgFJJo7fp2rwbFd2KW07DHWUkFEvY2GypX0gQ9VbUL6BT3YqnVYFuZC4UkkQmJZFARo7Dwig2n7WoXcimoG6jQmhIBynJZGLWjgP5v3mUrtV2yDHOu9EtApM7vkJH615YZ3C2U0Zpn8+gQW5KkorbUSffSTRnrDtJ+7ylPdp6W8XdLY+qgGKXPEE2IqYT83Ykk9iQ18RVtDhAScrR2yhf1cIY7qLJQg4uG1Zn0c5QT1KamZHMwpLkYjHZ+c6mfVpnbAZOOU3wb46+75yYS+5SM5Ja9KH58ZWG/YZxl38zmySHeZPcO0y3qSqkk5EjyUVuRhIFk0vI4nTku/STZkFxQ7k4x8hh62ZhcRG/igLdzEnIbCGTikggc6RhYbFanTVLI//SLGyRU4fQw/pFp4zqZArzlpN3WLJmw7BMBsauXawhd6RXGjrWXX3LyPqJZ8m/A4tpCYtJaScavPgw5ellVxWepMiRLiQ3k5CC9S2Uu9DId3+q+6sxdSvWNbEYu4yedpKTgPmHgulB1smf5sZcZiNgaPqVd6DQeiOyYYaRt9ybwpK1Z3D4QStsw/JA3PLh5CgTascmtu1HIUG9SaFfzKKR2VTbNf7rDWz7eiwte9qJ5ALm6woms6wT+c+Nocu6IRmOmSZwxXR1k74r0zfRWDc5CUVM3zIFuQQupVlPmjdYyNbYryp/mk8e8v60+rfazotoa6Bc/5cEdPY0GGdcNjYl5xiRbxpzf/MfVw7i8qWmsVB4MpJGusjJTKJgfQuZ3CPpXV1Cql/IpjmTw3+4cx/HXGeyHuJo+XBHkgnFJGHn2vYLoaDeCr1PaY5z6KkRjW2m2b5n/sMwlJtYcNCmsW4kF7I+FKwvl0BaOutJMm+4kK1JbjQcqxyys/8azE8ln9MoqZj6hqdqz26KQPMfVnD+M1GXIjcjDZeKhLBz90KP9jL9gbtRl+YiI+0SioR2cPfqgYanqkuykZTyB9SdPPG4q+6pgKo4G6npOSiVdkIvzy6wqX9P3nTYndGVlBRcqVCiq1dvdFTo93NRkY/MlCyU2fXCY27KZh7Lq1CcnYr0nFJIO/WCZxeb+hfN9ahLryApORdit0fh2UzH92qczbejRn56Aq5ZeeLRzrWvmFfi+OzuGJn+Ou7EzdXva4yptmqMGiVXUpBypQLKrl7obbSyOeC0oRqluRlIu1QEoZ07vHq0R8veqMEIOY32b0N9s36yk5DyhxqdPPvCVXsbz+03XNQUXkJyRh5U9t3h7WHXwvXcYzRk6xZRFSM7NR05pVJ06uWJLm0Kzrvhksm4sTelAJ8+0xnLOu1D1ge9cSH1GqRuXujp0HTANSi8lIyMPBXsu3vDw85A6zWFyEo+h3w4oLtnV9iarAbDftAa21TkZyIlqwx2vR6Dm/LujNV22zH9ZCXjXD7g0N0TXZsO2oQ5weS8XHUTF5Iu4LZFN3j3bI8H8nMnBm1sSs5pY1685/mPOwdx+lJDmJ4uJWcgT2WP7t4eaDlsOPzHCAzPmabqoQL5mSnIKrNDr8fccPcw25ir75n/aDCUm6pw80ISLty2QDfvnmhvTHBwxSpHfmvV3MH4Zxe9PH9zapC01Af9d/bB1mObEdxFioLEDzFl1JvIe/m/SHqnr/48Hp6Hnfqi9/ctz3JMLjw8PDw89wOO2ycenrYggtfs1XjD+QSmuSuhaGcOhwHv4MrgtdiykC94ef6XEEAgNINQwP5fv4eHh4eH58HCP+nleQDU4Hb2OfyWXw1Llx7o3t7Er9Z4eHh4eHh4eNoIX/Ty8PDw8PDw8PA89PCvN/Dw8PDw8PDw8Dz08EUvDw8PDw8PDw/PQw9f9PLw8PDw8PDw8Dz0PPCiV3XlICLnv4OYrLt/JLnql21YNP9jxBfpdzyMqC7jwKoFWH+igG2U4/TmBVi6K0N3jIvKHKRlFqC5X6YxikZ9P+S0Vs/lp7F5wVLsytD8hFlDVLhyMBL/WrAex2+02gL/IB6wb5pMMU5uWIB39l3Ub/9daCxX+enNWLB0l/bfGlQ5h7F80gj4PzkU0zZ8iY3N+to9pkWf/idQip8+WYBlX2WiZekrkZOWiYJ75HxNbdYU1eUDWMXywIl71eGDpvgkNix4B/su3j0H33f+yr7vOypc+noF3pg7F3M1n3nz8Mb8RVi68mPsPZOn/eWzVsPb7J7x4Ivea//FFx99jrg/7k5hNRcOYcNH+/Cr5ke9H1ZUeYjfvgF7z2oq+yrk/Pwdvk/J1x0zBCviPhnjgym7ctpQ9Dbs+yGntXquysHP332PlPwmAV5xCusXrkIseeIx+/+FL0gesG+airoUyTEbsO3EVf2OvwlN5KrK+RnffZ+i/bfmRuLQ0mlY+V8RBgSNwXCPcpxtztfuNS359D8BdRlSv/4Yn8ZebqHoVeHyJ2PgM2UXcu6R8zW22d2o8uKxfcNenC36Z64BV5cmI2bDNpy4+uBvgv7Kvu8/Nfgj7nN8vP0H/HarAAW3buFG3iX8euQDvPxkTzzx//Ygu5UhyNvs3sG/3vCXosT4z9Jx5t2h+m0DUClu3Cx9gE/SHiZM0LNyPD5LP4N3hzb+SRnV1RuwHr8J0RFDWGv/C/C+eS9Qjv8M6Wfe1W2oS5CXV4IOz8zD8n/NwUvDQrG1GV+757Tg0w8HhNIbN1F6D52vkc14eExE0D4Ab23dgR07diB61z4c/ikDv34xCqWf/z9M35jFbtN4/kr+vkVv8Td4beAkrN25GuMedYBCLIWNRwAWH8ypcxr1jR/xXsggeNibQ2wmgszWHUNfjUZmC98jFB2aj8H+83Dwtn6HhtL/YPHQwXhDu1ON/Lg1CPbtDEsJa8+uO0bM+xKZFZoT1cjdMR39fHzg0+TTL2Rry3dw5enYMecpuNvIILHqgmFLjuFG3QOCYnzz2gAMD4/Xb9cg58gKjPd1hlIqhtyuF557+xByqvMQPWMKPj1fiaxtk+Cn7U+NGz++h5BBHrA3F8NMJIOt+1C8Gp1Z/zWKwb5N159GBzd2z4DfqHeRWKXfxWROfX8s/EK/0G4Vf/MaBk5ai52rx+FRBwXEUht4BCzGwZw6q3HL3Qzq/DisCfZFZ0sJRDI7dB8xD1/qDKPjXuhZI6LG7wYMR3i8foBVl3EwLAg+/iF4Z+V0POUdgHm7zqFce1DT7kBMWrsTq8c9CgeFGFIbDwQsPqhrqyWKz+DjED90szOHRGIFJ59xiIi9Xlc0co61KYX7MGtgMJYsfR49bMxh470QJ5iAXO2Up3+B2UPdYSOToJ1jf0zfsBYznhyHD9M1d/RNdNaSzOpmfPNmM/KU3sCP74VgkIc9zMVmTB5buA99FdG1zmZEvBuC05c5dN6UmpwjWDHeF85KKcRyO/R67m0c0hvVlLjRxMOA4eGswRSse+FZrGGBk//NbAzo/xq+yWniazU5OLJiPHydlZCK5bDr9RzePqQfv5pDf63wae+O7SAWyWHfw1SfNpQnGSbquuryQYQFeaNjOzFEcnv0CJiHXed00tRChT8hItAD1hIJLF2exPSoJJSwFvOiZ2DKp+dRmbUNk/xCsFWTiNX5iFsTDN/OlpCw/GLXfQTmfZmJOvE4clSdzfSUp+/AnKd0cWLVZRiWHLvBSu16uPyh+MzHCPHrBjtzCctNTvAZF4HY681rQyvbS5H4bNlIuFtLIVW6YuD0KJwt1p/AMKivFnKBQQz6g2nyc/tpPeobuzHDbxTerZ9MUJP6Psb6heKLPzTt631x9TaEj+mFR5j+zVmemslsmR49EwOdLZh/WcN95ErE325wvkHfrcLlg2EI8u6IdmIR5PY9EDBvF+rczUTfNQ4p3F56HxFjxIjf8jmStQ9MOWKIi7/IZppzd8/ww6h3E5km9dSk4v2xfgj94g+2YarN2BWcNcM9tpnm7/Q+SCpPL6DuEleafbxCv6eesp1jyVwyiN6/oiK6FUUBMhm1c32KluyIo8SEgxQR0JHEHabSgRLN2bdoT7ADybpNoA+PJlJaWgId/HcQuYiVFLSjQNteU1TXP6fR1tbs+C39HqLbe14ie2Ugbbmmouq0NeSvtKa+r2ykIwlJdOrrlTTaVUFdZxyh2+zcP1MP0mdRURSl/3wSNoqcxObkvehH+lPXXBNK6fjr7iR95En61xdxdDoumhYNdiCRQEx+a7LY8VsUFSAj+5AD2rMrk1aQbzsr8p6+iY4lnqXjUdOoj7mSRmxIo9T9ERTkIqbOo5dR1P5kun1rDwU7yKjbhA/paGIapTH9/DvIhcTKININn7tvU/XHNEhXPxxCcpdZ9EOd+Srpv2+4k9xvjXbrVlQAyWTtyPWpJbQjLpESDkZQQEcxdZiqGyNxyt0M1Wm0xl9J1n1foY1HEijp1Ne0crQrKbrOoCMaw9wzPf+uGQDzO3sKOXCHnVlGJxf1IYXVoxT60WE6lRBLW+f5kZ3Ehabtv8G0oWtX1s6Vnlqyg+ISmQ4jAqijuANN1TlpM1TTz2/2IfPuIRR1PInSfz1K7wU5kcRxOh0p1RzmGuvdqK5vpGESISm8XqEdJ0/S3j3xdKOSo52SWHrNXUqPPPkv2n4igeJ3h1FAZwkJRT1oYUIlO6GhzgzJXHKXbxY0I8/5r4LJQdaNJnx4lBLT0phf/Ft7jTJoB2nNzhnvTVBdpQ+HyMll1g9sg8uXOXTelMokWuHbjqy8p9OmY4l09ngUTetjTsoRG+j3Go6+GsmlGRaLB/sQjZHo9Ffv05ReErIbtog++ew7ysxt6GuVlLTCl9pZedP0Tcco8exxiprGZFaOoA2/17CwMay/B+nThvOkibouO0mL+ijI6tFQ+ujwKUqI3Urz/OxI4jKN9t9g8wDT28ZhEhKYWZPPrE8p9nQ87VoyhNqLXWj6oUIqSd1PEZr80Xk0LYvaT8m3qyltjT8prfvSKxuPUELSKfp65WhyVXSlGfoA4spRdTbTUHqcXtfHyRdxpykuehENdhCRQOxHa7JqNGcb9ofqn+lN5jvdQ6LoeFI6/Xr0PQpykpDj9CMsa92Npm+pREaPMH18cuwU/bhrCQ1xEJPT/+3XxQmHvprNBUyNDVFd/ZCGyF1oljaJc/iDqfJz+GnDvhvLoaPyv2+Qu7xet1EBUhLLnWlEeAydSoqnjeOcSWxpS06Pv0ybY3+mhJiFNEApo/6rz+vPN+y7ZScXUR+FFT0a+hEdPpVAsVvnkZ+dhFym7Wd6MtF376KCTrzmRhKP+fSTJoU2QkXXNw4nqfRp+uQ6d63RlL+LzdhGXX6rLwH+S2+4yxvMtabYjF3BEY/32mZ/76JXKiH/dZeZu+iojJtDXWSPU8Q5FhCqfDqzaz1t+1GTqPVUxtPcbjJ6POIcaULmbgpp9wR7Uo7aSszvGAW08wVbeuSFncxUFRQ705lk/SLpfIOLb0U/TzaWo2jbDf0OPaobR2mulyU5jt1KWdX6nU0piaFJdnLyfy+rTh5V7mZ6xlLSTDFWSXFzupDU8y06WxcwpfRDxEQK/fgMS56pFN5XTp5v/8qmFc3wz9Cu9dvoxwYZrTJ+LnWr1Q9X363Sn3FFr1TiT+su11lNOy7Z4xHaLU65m6EidiY5y/pRZGPD0PM2ljRKY5h7qeeGBULJXnrJVk79IzPr9aHKo62jlKQY+hFdUekCXOK/juqHG0dzuuh02Dx3KCbYhiwGRtCvRbqLarK/p80bDlA6y8ucY20G7UQnldGwDbl1tuRq5/aX48jGYjht0MSanoLd7AZQ3FzRa1jmu3zzLnlUlH9mF63f9mODCbiS4ud20/qF1uxc8d6UhsUlpy9zyN8Ebb9ST3qr3kGo9IcImhj6MZ0p5+irpaJXA/Odj5+Sk+vs47oJo6Gvaf1GSp5vnWWa0VP6A0VMDKWPz5Rz6O9B+jRXnjRN1yV7XyJbeX+KzKxvTJW3lUYpFTT0oyuk0ha9UpI9+W+6UHuKKpc2P2PJJuUvWAavptTwviT3fJt+1ThfRSzNdJZRv8jzDXLYLYp+3oYsR20jTQRx5aiGNiuJmUR2cn96T1uEaVBR7uZnyFKiL8y4fO9ODAXbWNDAiF9Jp44ayv5+M204kE7NqEMnm/QJWpVR31/elkBSWj5Hn+WrOPVV3UwuaEqjIobLH8pMkZ87zltT9ErY3FKr/opjM8hJ7Ewzjmlu4BjamJJRh9BDbIPLd0to70u2JO8fSfXqY/rdOoqUiqH00ZUyk3z3bgwVvay++WocWYpZPssoM6nW0PB3sRnbMKroNd5mep9vMR7vvc0e/OsN2t+eV0Pd3BoATRGu+Y362h+nFyjh1tWh7h0MoVIJC0ENqqrYxUJ7+I6fDJ/iGEQumoUpY4fBp+dobMhSQa1WN/r6qR5rPBs8EuY/7sO3+UyGG99izw8SPMP22arykJx2DTXnN2GsV2/07q37DAo/ifI7F5GRVf8VDMpT8EHwFHwufR1fbv0/dBHp9zehJjsdmSWd4O3TGWb6fUL7AejXrZkL1IXIOJcLq8d80Uui3wdzDH0rGlte9dVv1yO098X4yT4ojonEollTMHaYD3qO3oAsFRsXUy5n363Sn3EIlG7o6lBnNSiVFhDU6PTHJffdqJCXnIZrNeexaaxXnV16DwrHyfI7uJiRhfL7pOea39Nwvqwz+g90q2tXozd/v55QXUjFuWrNDgGUbl1RP1wllBYC1FQ18JdGyDBkymQ4/bIUPh0d4TV8MhZ/UwLfcSPRqx33WFtqFQJrODvb6GOFq53zOJeaiXLnx+HbsT4FKPv3Qy+xfqMRhmTWn9KURvIIYe87HpN9ihETuQizpozFMJ+eGL0hCyrma3VmNxTvhuD0ZVPkV6Mw4xxyrR6Db72DwHzoW4je8ip85fcnbtSFGTiXa4XHfHuh3i2H4q3oLXjVV25Yf6oH6NOceVJogq5r8HvaeZR17o+BbnXSMHH84ddThQup56AVh0nq3M8PLvXBjSce74KKzDRcbBIQqrxkpF2rwflNY+FV6/e9ByH8ZDnuXMxAbRo3lKPqqUF2eiZKOnnDp3Nd57Af0A91qYXL92RDMGWyE35Z6oOOjl4YPnkxvinxxbiRvdBS6Ji5+mNw1wb99fNF16rzSL9YYZy+GsWeYTj9wcwU+Y2Mc5MQwLKLOzrphRMo2kEu6gDnzvpEJVRAIRdAVVP7VbgB3635HWnny9C5/0DUq4/J7O+HnqoLSD1nZnqeM4FqlnurBExe2TXja41mePhsxs5pKR7vg82MiYt7ilAhhxxlKPmzqTbV+LP4T9QI5FCY68USmMGsbqA6authqPOwd5oPfF58BzHJhZC6+WPq8mUY52R4SO2GT8Rom/9i34FcXDuwBz9aBCL4aSt2pBKVTMeWfYOxYNEiLKr9hK1F1LZIvFhb2ar/wN5ZLyDs0jBs3LMMT2oubQlmVBVTsahh7SWQQSatG0UDqjWnQ2Qmrh+jAdR5ezHNxwcvvhOD5EIp3PynYvmycagbPlffrdSfliam0xSrDXcJmNEam61+RJxyN0OlzjAIXtDALovCsDZqGyJf7ALR/dJzlYpNeyKIG7bLrjLTdMQSgko7aLbdopM2j/WID3A66Ttsmh8I19LT2LLwBfh6j8PW31XcY9W3cReaWBHVd8zVjlZi0txoaE/nxJDMzdJIHjXy9k6Dj8+LeCcmGYVSN/hPXY5l45waJyBD8W4II3zZFPmrdQ4CcXOdtyVuDFFdw3xYBLPmO+XQ34P0ae48aYquq1Q1THBxY79mfqATR1WXV8QScSNfEYk0W43zjpbKSnZjaIm+wQsa+P0ihK2NwrbIF+seUBjKUQ2pUTGZhaJG8glkMtSlFk5/sMaID04j6btNmB/oitLTW7DwBV94j9uKFkNHxubIhoM1Y37BRqqJVaP01SQXGITTH0yR38g4b0QTC7I+qdEuAcRifbFUh0AzxBYw5LtVrNDSqK/RYFlbGvtqbh7J9DxnNFVIT78I1SNd4eFQbVyt0RJ/uc2aWk1THDfcY6rNNDZoKR7vvc0Mjeu+IOrcFc6yYiQnpjd5avUnTiVkgDp2QTdz/S4DqK/uxcbdtzB0fSLO/ucrfLo2DLMD26Na8+fONNmhJWQDMXFsRyTs346te/+LR8ZMxBBNf2Yd4OqkQFm5FfoHT8bkybrPxBHe6OLhia42GlUV47/h4/DKwQ5Y8lUUXnI2YEWGyLkbXKXXcC6jkJlHT+UFXLyifZO9MUJbuDhZojDrAurfN69B5paZmLjsEPu35gl5LWpc3bsRu28NxfrEs/jPV59ibdhsBLavRu3wufpurf40CYWqKnGnzsercP36rfo+DMIt992YoYOrExRl5bDqH1xnl8kTR8C7iwc8u9pAck/1XI/I2RVOoqssWd1uML5ypKb9Bji6wLVpXBuDugCJX63HvuuPIXR5FPafzkJu6joMKj2C6MM3OcdqXMBy6cweHn16QH7lLBIbLG74MzERmbpHa40xKPN1dkJD32wG9VXs3bgbt4auR+LZ/+CrT9cibHYg2lf/yfSq+V/b4PRlTvkbIoStixMsC7NwoYFuajK3YObEZTj4y+7W5R0OhLYucLIsRNaFBgswajKxZeZELDv4i2H9PUif5sqTytsm6FoEZ+anoqvpSNcvatFSngqdOK7QiaNC7sXfUKr9t4YSpKVlQ+Tqri1i674ZZJh1YONTlKHcqj+Ca/1+8kSM8O4CD8+u0KZxo2HydXOF9No5ZBTWy1d54SJqUwuX76kLEvHV+n24/lgolkftx+msXKSuG4TSI9E43MC/GqLKOY/z9YNFaXo6fjdzg0c3mZH6Mh4uf3D+0wT5TY1zTaFDVaisn0xQdf06bjWvlrYjcma+K8JVps/G6kvDb3CEi/OfJviuaahvfofPYi6j/TNB8FcYU2u0zF9qMza3mJkRqirv1Be+Vddx/X4Z7T7Y7IEXvbB8GhNGPoJz60MwJfIrHE9MQfLpo/j87WC8sfs2ur/4EvoZ85d1NHe7girczM5GEVOGquAXfDZnOb4t0tzsV+hPag4JfCeOg+uptVj7U2c8H9wfuu6sEDApCHZn38erq35AbiVr82YC1k19GoPHROBkWQ0ufBqCCWtyMXjZCow2z0ZGRobuk5mjleEurJ/F1OetcXz169iaUgxVxRV8+3Y49lxr7mQFhkwYA4eEj7BkewZKWMIsydiO8JWf45cSK5bZJZBKCKVFRWw60wxfBEHVTWRnFzHHVKHgl88wZ/m3KNI8idEMn6vvVulPCKWzM6xvncCeg9manpBzdAXWfVfc9H69RTjlbgargEkIsjuL919dhR90hkHCuql4evAYRJwsu7d6bohtICaNVCB21WxEJRYyvZfj0teLsGxvGfpNeAEehu95mkcowKX9KzF7zgocydGsjq3Bn7l/oKDKBk5OVtxjNRKudpSBMzCp40ksn7QQnx8/hR/3vIPJb+xGPjVTwHLI3NQ370bzVEKAqpvZyNY5G375bA6W65ytblV9q+HyZS75m6AYMgFjHBLw0ZLtyChhib8kA9vDV+LzX0pgZSttZd7hQDEEE8Y4IOGjJdieUcLqpRJkbA/Hys9/QYmVLYf+HqRPc+TJO6bp2jZwEkYqYrFqdhQSC5n3lF/C14uWYW9ZP0x4wUP/9IdQdDgSb+7PRoW6FOei38DyQ2I8O3kUHmG2lUgloNIiFGmczyoAk4LscPb9V7Hqh1yWVVS4mbAOU58ejDERJ2F8BOmwfnYqnrc+jtWvb0VKsQoVV77F2+F7UJdaOHxPKLiE/StnY86KI9Cp40/k/lGAKhsnOFk1P/3S7UNYtWgvLparUHZhN+YvPwBBwGSMac9uyIzSlwlw+EMPkSnymxbnQqUznK1v4cSeg8hmbVfmHMWKdd+h2NjJxGRsEThpJBSxqzA7KhE69X2NRcv2oqzfBLzQQ8Thu6wG+C4Km/edRYN7oLupvo0/zutrg9SfcWLvOrwSGIromuew4q0AtOOsNfTttMRfaDPN6yLOzta4dWIPDuqMhqMr1uG7+2a0ttqsGfTv9j5QVLd+pNVBPUgpEmg0pf0IpB1owKydlFn7drRm8YW8A4Ue1r/8zKhODiNvuTeFJVezRgoodskTZCMSksS8HckkNuQ1cRUtDlCScvQ2yq97KbsZas7RqiekJO67jFIaLkJT3aL4VYHkZi4koURGUiafzHEYhcXmk0r78jWb2fXyNvpIA2lrkb6NJqhuxdHy4Y4kE4pJIhaTbb8QCuqtaGaBlebkQjoZOZJc5GYkUchJLJSTy8h36Sftcs47dGKuO0nNpGTRZz7FXYulJU/YkEgoIfN2MpLYeNHEVYspQKmk0duYvJrmDPXdWv1VptOmsW4kF4pIppCRwiWQls56kswbLGSTdwilerNVU3KYN8m9w7RbqgJuue9GRbfiV1GgmzkJ2XUyqYgEMkcaFhZbJ+c903PDRT+aU6/H0rKnnUguMGPjlZJI1on858bQZa3faNqVU4fQw8w6eqqTKcxbTt5hyfodd1OdtZNCPZVkZiYjC0vWv9iOfGfvo2zti/rcY22KduGY3JFeOVq/IMSYdsrSPqcZg9xIKRVTu06+NGnOWHKX9qG3zmoG11hnhmVu4ps5TeVRUUHsEnrCRsTiypzaySRk4zWRVi0OIKVyNG3TCMQV701ptJCN25cNy98UFRWejKSRLnIykyhILhaS3GUkvatxEK6+qhvIxWi4KEq3gKOFhWyaw4UnKXKkC8nNJKSQi0kod6GR7/5Et43R34P0aUN5UnO6ibq+HruMnnaSk4Cdr2B+KuvkT3NjLmsXRTJhaeMwBXUbFUJDOkhJJmN6ETuQ/5tH6Zrej++cmMv81oykFn1ofnwlEy+eVgW6kbmQ2UjGxieQkeOwMIrVOz5XjmpkMybfrbjlNNxRxvqVsLHYUr+QIOqtqF3IxuV71ZS1M5Q8lWZkJrMgS2ZXsZ0vzd6XXb8IqQHavq2foGf9O7A8xvoTSqnT4MV0OE8/WA59NZ8LGtN0AZlhfzBFfrnr1IcAADWzSURBVG4/bdx3JaVvGktuciHrU8H6dqHApbPoSfOGC9ka+2LlT/PJQ96fVv9W23sRbQ2U6/OUMb57nWKXPU1OcgEbj4L5row6+c+lGN1gOXy3hD4fpakbwilVd3oTdAvZ2I2HvjYQMBtJyNLBgwYGL6NvfquTislhOIaa8vexmaYE2ERj3eQkZLpTMB26BC6lWU+aN5hrTbGZzucNxWPbbHY3As1/mIH+EipunEfahesoE1rBuWcfuFpzvMtyF2qUXElBypUKKLt6oXdHhX5/21AVZyM1PQel0k7o5dkFNvXrWVpJBfIzU5BVZodej7lByfF8vabwEpIz8qCy7w5vD7v6hS3qEmQnpeAPdSd49nVl94sluJKSgisVSnT16o3mh2+o79bqrwo3LyThwm0LdPPuifam/s17Ng5uuZtBVYzs1HTklErRqZcnutxlmHuk57uoQWFWMs7lAw7dPdHVts0OwXRQityMNFwqEsLO3Qs92sv0B/RwjtVIWmhHnZ+OhGtW8Hy0c93ihsrjs9F9ZDpev3Acc5t7R9WQzE19s7nLS64gJeUKKpRd4dW7I+5NtNZihC9z6bwpNYW4lJyBPJU9unt7wK7OBPcn7+hgvnYpGRl5Kth394ZHfadG6e9B+rTBPNkKXWcln0M+HNDdsyuaE0ddegVJybkQuz0Kz0Y6Z/bITkLKH2p08uwLV63zqVCcnYr0nFJIO/WCZxcbA7owgop8ZKZkocyuFx5zUzb5ipTbH9SluchIu4QioR3cvXqgJXUUfPoMOi/rhH1ZH6D3hVRck7rBq6cD7jrdCH2ZhmF/MFZ+DabGedXNC0i6cBsW3bzR0+TJpHXUFGYhWTdYeHa1bewbpvpuG2hbrfHX2YwZDReSLuC2RTd492yv/7b8/nKvbPaXFr08PDx/DTVJS+HTfyf6bD2GzcFdIC1IxIdTRuHNvJfx38R30NfU+08eHp42U1f0/r4Fz96/WouH538WjmdhPDw8DyMir9lY/YYzTkxzh1LRDuYOA/DOlcFYu2UhX/Dy8PxFCARCmAkFjRbn8fDw3Dv4J708PP/D1NzOxrnf8lFt6YIe3dvf41cOeHh4eHh4/j7wRS8PDw8PDw8PD89DD/96Aw8PDw8PDw8Pz0MPX/Ty8PDw8PDw8PA89PBFLw8PDw8PDw8Pz0MPX/TeD1SXcWDVAqw/UaDfcZ8pPokNC97Bvosq/Y6/EeWnsXnBUuzK0Pxc0j8ck+1aiZy0TBQY+vWehxoVLh9YhQXrT+i328gD9PPy05uxYOku/VZbeQB+UJmDtMwC/M+6WguoLh/AqgXrceIBBKHq8n6s/NdCfBR3k7fD34pinNywAO/su6jf5mlKZU4aMv9HJiq+6L0fqPIQv30D9p4t0u+4v6hLkxGzYRtOXP0bFpZVOfj5u++Rkv83LMhNxSS7soLvkzHwmbILOf+zM6AKefHbsWHvWf1223iQfl6V8zO++z5Fv9UWHoAfsJuxT8b4YMquHL7YaoIqLx7bN+zF2aL7vV67HCffX4g1cWbw7mvHT6x/J9SlSI7ZgG0nrup38DREdfkTjPGZgl3/IxMVH5s89xfleHyWfgbvDn0wv7Tz94FQeuMmSvkq5B+JcvxnSD/zrn6rLTwAP6BS3LhZyhe8fyWqP3DTdiI2Ry/Hkxb6fTw8/wCo9AZu/g9NVA++6C0+g49D/NDNzhwSiRWcfMYhIvZ6XcJW58dhTbAvOltKIJLZofuIefgys0J/lJvy9C8we6g7bGQStHPsj+kb1mLGk+PwYXoNa/wGds/ww6h3E1GlPx81qXh/rB9Cv/hDu6m+8SPeCxkED3tziM1EkNm6Y+ir0cis1B5G4b5ZGBi8BEuf7wEbcxt4Lzyh6RQ75jwFdxsZJFZdMGzJMdxo+GCB9fvjeyEY5GEPc7EZG5ct3Ie+imh9o8XfvIaBk9Zi5+pxeNRBAbHUBh4Bi3Ewp3VPR6suH0RYkDc6thNDJLdHj4B52HWuXH9UY4KPEeLXDXbmEiavE3zGRSD2unFOr5N1NbaFj0GvR9h4zR3Rf+aXyEyPxsyBzrCQSGDtPhIr42/XXoDXBgxHeLxG48U483EI/LrZwZydZ+Xkg3ERsdB1XYxvXhuISau3IXxMLzzC7GfO7Dfzy0ykR8/EQGcL5i/WcB+5EvG3a2WtwuWDYQjy7oh2YhHk9j0QMG8X6obK4WuccNi1ZV9RIy96BqZ8eh6VWdswyS8EW7M1try/8up8vxusZVIouz6NxTs+xCsDQ/HFH6wFI3yfBR/i1gTDt7MlJCIZ7LqPwDymfxOiD+k75uApdxvImPxdhi3BscaBgPy4NQj27QxLCdOXXXeMmMd8x/gOGlN1GQfDguDdsR3EIjnsewRg3q5zTAodbfXzAcPDazfw2sBJWLtzNcY96gCFWAobjwAsPpgDXYS25NfN+cFN7Js1EMFLluL5HjYwt/HGwh+yuW2DGuQcWYHxvs5QSsWQ2/XCc28fQk51HqJnTMGn5yuRtW0S/EK2QuNqBnNA4T7MGhiMJUufRw8bc9h4L8QJdshw7jUUuyZQdhxvDxuAadsbPpWuwpnIQAycuVu/3RJq3PjxPYQM8oC9uRhmzEdt3Yfi1ehM6NMzi4EdmPOULv9bdRmGJcdusNuOBhj08VbkoNrc3nMgpka8g0neHRrl9jbnoAZw2cc02XXnvxT5GZaNdIe1lOUM14GYHnWWHdHR7FzHFcMGx8ttP0Nwzc1GwzEfc2Eoz6pv7MYMv1F4N7Euklkov4+xfvo8zGh9jcNtMy77NLXpo7PexIwpn+J8ZRa2TfJDyNZszjaMqVe4xliTcwQrxvvCWSmFWG6HXs+9jUO11xsTo2t3YvW4R+GgEENq44GAxQdhdLmk+Tu9D45q+vnNPmTePYSijidR+q9H6b0gJ5I4TqcjpZrDabTGX0nWfV+hjUcSKOnU17RytCspus6gI7d1LRikJJZec5fSI0/+i7afSKD43WEU0FlCQlEPWphQSaS6Sh8OkZPLrB+oQn8JVf6X3nCXk9+aLLZxi/YEO5Cs2wT68GgipaUl0MF/B5GLWElBOwrYcRVd3ziMJEIFeb2yg06e3Et74i/T8dfdSfrIk/SvL+LodFw0LRrsQCKBWN8ma3VPMDnIutGED49SYloaJRz8NwW5iEkZtIM0rd6KCiCZrB25PrWEdsQlsuMRFNBRTB2mHtBez4Xq6oc0RO5Cs35goyo7SYv6KMjq0VD66PApSojdSvP87EjiMo3231AxHf9Mb/Yxp+4hUXQ8KZ1+PfoeBTlJyHH6EdKYgAuNrFKxnJxHhFPMqSSK3ziOnMWWZOv0OL28OZZ+ToihhQOUJOu/uvYCCpDZU8iBO6zrN6mPeXcKiTpOSem/0tH3gshJ4kjTtca/RVEBUhLLnWlEeAydSoqnjeOcSWxpS06Pv0ybY3+mhJiFNEApo/6rz2ubLju5iPoorOjR0I/o8KkEit06j/zsJOQybT/dUHH4GielHHY17CslqfspIsiFxJ1H07Ko/ZTM/Pe+ylt6guZ6SMmm3xzaduI0nfictd3JnGQSP1qTVWOE71dT2hp/Ulr3pVc2HqGEpFP09crR5KroSjOMCj4mwvHXyV36CD35ry8o7nQcRS8aTA4iAYn91miPV6etIX+lNfV9ZSMdSUiiU1+vpNGuCuo64wgZ00MjP6cyOrmoDymsHqXQjw7TqYRY2jrPj+wkLjRt/w1S3QM/l9mH1G4wH5ZRO9enaMmOOEpMOEgRAR1J3GEqHSjRhFTLfn2XHxRcp43DWE5SeNErO07Syb17KP56Dodt2GbSCvJtZ0Xe0zfRscSzdDxqGutTSSM2pFHq/ghtPuk8ehlF7U+m2xw5QHV9Iw2TCEnh9QrtOHmS9u6JpxuVhnOv4dg1hULaPf4Rkg94l84zt9RScYJe69KOhnzwu35HC9zaQ8EOMuo24UM6mphGacwO/9boVhlE2vRcepxe1+f/L+JOU1z0IhrsICKBWB8DnD5ueg4ynNvbmoMawDk3miq77nyJ7BGWjz6hY6d+pF1LhpCD2In+b39Lc90NjhjmGC+X/QzCNTcboEHu08A1HxuEI882zlE6Kv/7BrnL9T7YphqHy2aa5g3ZpxmbHo2j/REaPXam0cuiaD+bqLjyNGe9wjXGyiRa4duOrLyn06ZjiXT2eBRNY7laOWID/V5jTIzKSNbOlZ5asoPiEpkfRARQR3EHmqpJxkbwgIveOxQTbEMWAyPo1yJWgDFqsr+nzRsOUDqTtyJ2JjnL+lFkXTZk3Iqm520sadS2G/odLXP7y3FkYzGcNlzRta2hYPdLZC82suhV5dOZXetp249s0tQfpsp4mttNRo9HnCPm0lqnkcqG0YZc/RklMTTJTk7+72Wx4zpUuZvpGUuJfsJSUf6ZXbR+24+ssNEdZ41S/NxuJHs8gs6xi7SFpMSf1l2uPaGS4uZ00R43hoaBVrL3JbKV96fIzHodqvK20iilgoZ+dIVUd2Io2MaCBkb8SjoT1FD295tpw4F0MsZldLLWTiKMimM0w0lMzjOOMetqUFHex0+RrEOodktXMOiK3jsxwcw+Ayni1yKdfmuy6fvNG+iAxvi1Ac0KpPqmZ5CT2JlmHNO1zAZCHz8low6hh9hGCe19yZbk/SOpfqis762jSKkYSh9dKTPoa5xw2ZXTV6opNbwvyT3fpl+rNQfvr7ylX08mOxmze13sqOjKJyPIwtiityKWZjrLqF/k+brxamwS/bwNWY7aRtzRV0Ixk+xI7v9enf2YwmjzM5Zam7IOKHamM8n6RdYXO4xb0c+TjeUoMiK8G08oJXvpJVs59Y/MrJeX+cfWUUpSDP2IrpS13c8bFb1SCfmvu1xn68q4OdRF9jhFsAA27NdN/EClKXqlJBu2gWpTCKdt9PlA6vkWnWVpTEcp/RAxkUI/PsO6SKXwvnLyfPtX1ptGNYZzQLWm6JXKaNiG3LrxcOVew2M0jT/3h1AHaV8KT9UGBpV9P4OcrQJo09VaaZpHlX+Gdq3fRj/WJ1IWcnOpm94OJTGTyE7uT+/VOyDlbn6GLGtjgNPHTc1BXLnd8HxnCtxzo6my686XPrGKMmqbZMe3BCrJ8rnPKF/VzFzHGcOGx8tlP4Nw5lsDNCp6uedjQ3DlWa6it201DpfNuOzTnE016SOc+so96W1tguLO01z1CtcYtblT6klv1SczKv0hgiaGfkxnio2MUf91VN99HM3povMDY3jArzfIMGTKZDj9shQ+HR3hNXwyFn9TAt9xI9GrnQp5yWm4VnMem8Z6oXfv3rrPoHCcLL+DixlZ9V/9NUsNfkvNRLnz4/DtWD8sZf9+6CXWb3AhtIfv+MnwKY5B5KJZmDJ2GHx6jsaGLBXUanXd12QCa2c42+j6qMlOR2ZJJ3j7dIaZdo+mmQHo101UuwV73/GY7FOMmMhFmDVlLIb59MToDVlQsTbV+kYFSjd0daiVWwil0gKCGsMjvpsa/J52HmWd+2OgW600Gnn84ddThQup51AtG4Ipk53wy1IfdHT0wvDJi/FNiS/GjeyFdvrzuRBYdoF7J337AgXayUXo4NwZOjULoVDIIVDdvdhINmQKJjv9gqU+HeHoNRyTF3+DEt9xGNmrtmcBLLu4o77pdpCLOsC5s96AQgUUcgFUNSo21N+Rdr4MnfsPRP1Qma79/dBTdQGp58wM+Jr+dANw2tVIX6njvsqrwpWM8/jT4TE84VInLTr5P4nutW7IgSovGWnXanB+01h41cZe70EIP1mOOxczkMXlijXZSM8sQSdvH3SuVxgG9OsGrQiqPCSnXUPN+U0Y61Xbfm8MCj+J8jsXkcHZQWNqfk/D+bLO6D/Qrc4+mv78/XpCdSEV58za7ueNECjh1tWBaVWHUKmEhaAGVVVkhF83RQBrZ2foUwg36kJknMuF1WO+6CXR74M5hr4VjS2v+uq3azEiB2h2CKzh7GyjHw937hWaPMaWsRg+AYH2adj3ZRKTtgxxuw/hz8HjMaaDYYUI7X0xfrIPimMisWjWFIwd5oOeozcgS8XyqLoa2emZKOnkDZ96B4T9gH6oDVnjfNyEHKRp32BuNzTf6ZozDmPnRlNk12AGV//B6FqnLnv08+2KqvPpuKhP3w3nOu4YFhocr2H73ZUxG2Nqvm0R4+bj5mlrnm1rjaPBgM0qjcuxjWzaFCPzdMv1CtcYL+J6xjnkWj0G3/pkBvOhbyF6y6voW2BcjCrduqK+eyWUFgLUVHFrT4ORU+K9w3rEBzid9Ay+2hmDw98fx5aFO7F+7Rhsiv8KAyqZ0JZ9EbwgBD1qjapFCIvuXYwTljQBpP93CzT2a42j6/eo87B32kBM3n0HPf390bePP6Y+/xxOv7UIF3RnaBGYmUEk0G+wBKJi8okaCieQQSatPUGNvL3TMHDybtzp6Q//vn3gP/V5PHf6LSxq0KimzUZDZoZtDVWaYlMkbqwrAZOX7VCrVWzs1hjxwWkkPfMVdsYcxvfHt2DhzvVYO2YT4pmcDebJFhGIxfoCtx4B64MT6xH44HQSnvlqJ2IOf4/jWxZi5/q1GLMpnundip0ggJi13RiBRvxmqGLJWzPUxl4hMBOxsTObqthIR7bka3sxjWugXHY10lfquc/yMssKmLBmDdxGoFCAzXGNaNH3KyuZhJboG7wAIY2DD0KL7ujSWOxmqIGKzaXCxgqDTCbVe3IldOEdjAUhPRr7utAC3bk7aEyVivUoQmN1CmCmc3SoyBoj2+jnjWBOyEK0EXWqNejXTvqTGsLkZHZvYpqWbcPKVE2dIjIT33VNc3DnAN22WV0S05ifI/da2xsYY4MbD2NQDEHwmM7YHvMVEub7Y893lRj+3ii0N1zzspBjcTBwMnbf6Ql//77o4z8Vzz93Gm/pE2mNzgEbjVsgk6EuFRvh4+lMw8bnIO7c3vJ8Z0xM18NpH+2/TZFdA4tPuZy1UI+ZiJ2smUP1243mOiNi2Nq+5fFOlX1t0H4GMTnftoRx83HLGJNnG0eyJh/Vp9m21jiGbGZEjk1uatOmGNFGuq6NRseYXLVwjZFOa5MZxM3JYGSMmrWYjLnhSDP3GHUBEr9aj33XH0Po8ijsP52F3NR1GFR6BNGHb6KDqxMUZeWw6h+MyZMn6z4TR8C7iwc8u9Y+lWgJEbr16QH5lbNIbLC64s/ERGRqH21o0ExchKrKO/VuWXUd12/pXzC/uhcbd9/C0PWJOPufr/Dp2jDMDmyP6j/Z8RYqaZFzN7hKr+FcRmFdokDlBVy8or9VVl/F3o27cWvoeiSe/Q+++nQtwmYHon31n+z8+uRybxDBmelQdDUd6XWLvRjlqUj7DXB0cYVZQSK+Wr8P1x8LxfKo/TidlYvUdYNQeiQah01elWIKahQkfoX1+67jsdDliNp/Glm5qVg3qBRHog+bviBG5AxXJxGupqej8VDT8Bsc4eL8pwFfu64/u2W47GqMrwgaBuJ9ldcMnT26QnHtHDL0vqyh4vwF/F77UIfD9806uMJJUYZyq/4Iro29yRMxwrsLPDy7cj+VZOPr5irFtXMZKKwToRIXLl5hxSnDrAMbvwJl5VboH1zb/mRMHOGNLh6e6Gr0Y08dImcmr+gq0tNvN4ihcqTqHB3Ofz4oP+f260Z+0CyGbQOhLVycLFGYdaFBnNQgc8tMTFx2iP2bFTa6nQzuHNC0LNL0bzj3KnH7XsYupBjw0li4XTmM6LXROIpn8NJIG/2xllDj6t6N2H1rKNYnnsV/vvoUa8NmI7B9NXQhx8bdzRVSTQzUOyAL2YuoTcVt9vGmcOV2g/Mddw6qh8s+XHNjS6iQc/48SvVbYP9KT/8dZm4edU/HG8EVw8rbBsabx2E/fR8t0Jq5uVnaNB8bkWc1xSBVofJOfeFbdf06dKffCzsasJm0lTm2YYJqc57mGuMjsHNxgmVhFi40SBw1mVswc+IyfCdwvrcx2gz3oAkTEApwaf9KzJ6zAkdyNCsla/Bn7h8oqLKBk5MVrAImIcjuLN5/dRV+yGXHVTeRsG4qnh48BhEny3RtGEAZOAOTOp7E8kkL8fnxU/hxzzuY/MZu5JN+UhAq4exsjVsn9uBgNmu/MgdHV6zDd8V6B9U8HRFU4WZ2NoqYPVQFv+CzOcvxbRE7tbJ+5WEjrJ9ld5zWOL76dWxNKYaq4gq+fTsce67VGlTzNEqAqpvZyNY1il8+m4PlukZNWBlvHLaBkzBSEYtVs6OQWMiyffklfL1oGfaW9cOEFzzY3dUl7F85G3NWHIHOBH8i948CVNk4wcnqfrqDEIJL+7Fy9hysOJLDyiFN17n4o6AKNk5OML1rWwROGglF7CrMjkqEbqhfY9GyvSjrNwEv9BAZ9DVOuOzK6SsCSKQSUGkRirST7v2V1yIgBOPsT+Lfr3+KpCIVc+0jCA/fjbzaZMzl+1YBmBRkh7Pvv4pVP+Qy+6hwM2Edpj49GGMiToI7+qzx7NTnYX18NV7fmoJiVQWufPs2wvdc008kVgiYFAS7s+/j1VU/QBfeCVg39WkMHhMBI8K7MbaBmDRSgdhVsxGVWMi0VY5LXy/Csr1l6DfhBfQQPSg/5/Lrpn7QDFy2gQJDJoyBQ8JHWLI9AyVski/J2I7wlZ/jlxLmGwIJpBJCaVER0wN3DmjyjESL4dx7hzN2K84dQlTUN0iuX0ZuEMnjL+GF7r9j69pvIXl2AoYb8We+NN+SCKpuIju7iPmUCgW/fIY5y79FEZNIE3LWz07F89bHsfr1rUgpVqHiyrd4O3wP6lJxm328KRy5nWO+Y1rDuUNRiPomucHq++Zp69zYPITbh1Zh0d6LKFeV4cLu+Vh+QICAyWNaeOrOEcN3DI+Xy34Gac3c3Cxtm4+58qxQ6Qxn61s4secgdKF8FCvWfYf6NNtWOxqyWetyrEAihYRKUaRNUG3P01xjVAyZgDEOCfhoyXZklLAbjZIMbA9fic9/KYGV87Ntj9GKczgUFYVvWkpG+nd7HxjVWTsp1FNJZmYysrCUk1hsR76z91G29q1lFd2KX0WBbuYkFEpIJhWRQOZIw8JiKb/+vWuDlKV9TjMGuZFSKqZ2nXxp0pyx5C7tQ2+d1S2aqEzfRGPd5CQUyUghU5BL4FKa9aS5fnFSAcUueYJsREKSmLcjmcSGvCauosUBSlKO3sZk0L0ILnd8hY7Wv6dOqltxtHy4I8mEYpKIxWTbL4SCeivqFrIVxC6hJ2xEJJSYUzuZhGy8JtKqxQGkVI6mbWxgmhfD5R1C6bB+vYFm8UtymDfJvcP024Zp/PI8kzF2GT3tJCcB07GC6VDWyZ/mxlzWLnLRtJ21M5Q8lWZkJrMgS7mYxHa+NHtftuHFAHrukrXyJ5rvIaf+q3+ru75oayDJG6181y1kY8annaGepDQzI5mFJcmZrux8Z9M+rfE1L6jLqUPoYf2COE3T88lD3p9W/1bXMm0NlJN9iH6VqOo6xS57mpzkAjYWBUmZTTv5z6WYy/qRGvQ1bgzaldNXiO6cmMt8z4ykFn1ofrxmIeX9lff2qTUU6CIjoVjC5LWlxwMHUidZ/aJDg77PUN2Kp1WBbmQuZGOSSUkkkJHjsDCKNTb4VLcobvlwcpQJSSxhfmXbj0KCepNC/9cbNMfjVwWSm7mQxYKMjV9AMsdhFBabz7yWm6aLRFTXY2nZ004kFzB/UjB5ZZ3If24M6dTZdj9vtJBN3oFC6wOUqpPDyFvuTWHJrDODft3ED+JyaOMwOTm+crR+0RqDyzakKqSTkSPJRW5GEgXzDaGcXEa+Sz9pV3zfoRNz3UlqJiWLPvMpvtJwDtD+9Qa5I73SMIlx5V6OMd7YNIKk4oaxykU1pa94nCQiN5p9vF6vhlAVxNKSJ2xIxOQzbycjiY0XTVy1mAKUShq9TeNDbAxxy2m4oy4GxCwG+oUEUW9FfQwY9nFTcxB3bjcc0zdo0wgpifuvJm61cc2NpsquOV9G1k88S/4dmK5YvAqlnWjw4sOUp22v+bmOK4YNjZfbfgYwIt+2SJOFbFw248Jwnq2k9E1jyU0uZPlIwfKSCwUunUVPmtceb0uNw2UzhkH7tGDTOydorruUzKQW1Gd+PEcbmnTIVa9wjVFFhScjaaSLnMwkCpZLhCR3GUnv6pKZyTHKkjGFecvJOyxZt31jE41g9Z+mJmkOgeY/+vr3waEuRW5GGi4VCWHn7oUe7WX6A3pUxchOTUdOqRSdenmii039C8+GUOenI+GaFTwf7Vy3WKXy+Gx0H5mO1y8cx1wn/e0ru9u8kHQBty26wbtnezT+2QQ1Sq6kIOVKBZRdvdC7o0K/n4sK5GemIKvMDr0ec4OyyZ2yuuQKUlKuoELZFV69O8LYVltNTSGyks8hHw7o7tkVtk1UqC7NRUbaJRQJ7eDu1QNNTXD/UKM0NwNpl4ogtHOHV4/2aGvXNYVZSD6XDzh0h2dXWzQaKpevcWLIrly+wo5nJyHlDzU6efaFq/4J432Vt+oGzif9hlL73uid9w68hp/B9LQfsaCL/vmeQd/XoEJxdirSc0oh7dQLnl1sGstnBBX5mUjJKoNdr8fg1jQQGKribKSm56BU2gm9PLvAyPBugRoUZiVDp05PdG3i6A/Ozw35dfN+cBecttH4ziUkZ+RBZd8d3h529bZRlyA7KQV/qDvBs6+r7psTjhzQLAZzr4Exqm9g89iXgc3f4P9xvZyrRY0bn49Fj3974HDSu+hnrA+wcV5JScGVCiW6evVGs+m5Ih+ZKVkos+uFx9yUzXyd2XYfbwhnbjcQ0+obm6FT2//jfKdZSyvnxrspwKfPdMayTvuQ9UFvXEi9BqmbF3o6GBcgBmPYUA4zxn4t0tq5+W7aPB9z5NmqmxeQdOE2LLp5o2f7ZiK5VXY03mam5lh1STaSUv6AupMnHnfVfbPY5jzNNUaWny4lZyBPZY/u3h6wa3S4LTHKcsvmsXgZm3Hg/7XX72uAtvR9SKj+9W3ykrrSpJ1ZVMa2a279TOuedSDZo0tJ/6CXh+d/hkZ/H5KH5z5y59QyCnr5S8rhfFrF0JxT+iut8LOlfqsyjHry/nByh04tC6KXv8zRquTB0swTM55W8eDyLG8zo7hzipYFvUxftpCMjLm3/Mcg8pqN1W8448Q0dygV7WDuMADvXBmMtVsWoi/3skgenocLgRBmZkIjFlLx8LQN2RNh2Bc1AZ05Z5QaJIb1haWNL/5d8TIiZ/Vs9h3j/w1keCJsH6ImdH7Ai2s0CFh6MIOQJQc+PbSRB5ZneZsZhewJhO2LwoQWktFf83rDfabmdjbO/ZaPaksX9Oje/v6/SsDDw8PDYxSq4is4d7kCDj2bfqXJw8PDc395KIteHh4eHh4eHh4enoY8VK838PDw8PDw8PDw8DQHX/Ty8PDw8PDw8PA89PBFLw8PDw8PDw8Pz0MPX/Ty8PDw8PDw8PA89DxkRW85Tm9egKW7MvTbLVN+ejMWLN2l32qA6goORv4LC9Yfx43an6/k4eH5+1OZg7TMAhgXtsU4uWEB3tl3Ub9diwpXDkbiXwvW43ijBKBCzuHlmDTCH08OnYYtmS39pjAPDw8Pz9+Vh6zorULOz9/h+5R8/XbLVOX8jO++T9Fv1VNxaj0WrooFeT4Ge/45OA/PPwPVZXwyxgdTduUYV/SqS5EcswHbTlzV79BTcQrrF0biB3ihb8MEUH4IS6etxH9FAxA0Zjj6OPDJgYeHh+efxkOWuZUY/1k6zrw7VL/dMsrxnyH9zLv6rVpUuHrDGuM3RSNiiFK/j4eH528PleLGzVIjn/K2jOrqDVhP2IydEYOh+zFOHeqSPOSVdMAz85bjX3NewhPWfNHLw8PD80/jgWfu4m9ew8CXIvHZspFwt5ZCqnTFwOlROFusPwFVuHwwDEHeHdFOLILcvgcC5u3CuXL9YRTjzMch8OtmB3OJBFZOPhgXEYvr2tmuGN+8NgDDw+O1Z6ImB0dWjIevsxJSsRx2vZ7D24dyWGmrk2PA8HDdeYyqywcRFuQD/5B3sHL6U/AOmIddtZ0Wf4PXBk7C2p2rMe5RByjEUth4BGDxQV1bzVKeji9mD0U3axkbY1c8vXgHPnxlIEK/+IPNoDewe4YfRr2byEarpyYV74/10x3XokZ+3BoE+3aGpUQEmV13jJj3JTIr9IebQTcGb3RsJ4ZIbo8eDcfAqMk5ghXjfeGslEIst0Ov597GoRw2Ak55NHodiJciP8Oyke6wlkqhdB2I6VFn2RE9rI0f3wvBIA97mIvNIJLZwn3oq4jOrNQe1tp90lrsXD0OjzooIJbawCNgMQ5q+m8BdX4c1gT7orOlhLVnh+4j5uHLWgW0xibqfMStCYZvZ0tIRDLYdR+BeV9molalxWc+RohfN9iZSyCxcoLPuAjE6hyLc3zNYYz8q7eFY0yvRyCTmMOx/0x2PB3RMwfC2YLJYO2OkSvjcbvOtw3ZoBD7Zg1E8JKleL6HDcxtvLHwBLM9x5jZoPFxiB+62ZlDIrGCk884RMRe1xWPJo25DMffHoYB07Yjp0HlWXUmEoEDZ2J3foOdelrWtxo3ds+A36h3kVjvkEh9fyz8Qr/QbzdAnYfoGVPw6flKZG2bBL+QrcjWuLUh/TdFr6f+Q/4PKyL+D4O96vVUk7IOLzy7hsmSj29mD0D/175hOjecp4zxd6545eHh4eG5x2h+nOJBcisqgKQSGT3yaCh9cuwU/bhrCQ1xEJPT/+2nAna87OQi+v/tnQtYVOW6x/8zw1wRGHCDIDhcE69w8IKaiVqaFGxvaSlKusPdY8bxtPex0DohbhF2ZmaZRkRaT7aP5iUsRXfiZWsJhToEg4EhoQmiKaKACMzwnm/NDMMMyqzB7Hb2+vng4/q+b9Z63//7re97nVkvM1jlRv+RsJ72Hs+n3E1/odGeMgp4KpsuG4hav36RBjv3o3mZh0irO0X7X5tGGpkfLchp4M5OmdEK8pq3m/27mbQrI6mHWwQtyDhABScOUeZTg8lZPYk2VOiNdii85nEmcRelpMEqcmM2rd97nPJzN9FfRnuSLOApyuYueiWTohUK6hH4EC378AgV5H9KqdG9Seozn3bXm05hSwMdfi6U5B4jafHmw5R3+H12Pl9yVsho9OpyIsMFenO8kgIWHaRb5ldQ8xf0175KUz+jtXg1RandaejTGyknX0vHd62iKYEqClmYQ9eMIzrB50OzllZG9iC3iAWUcaCAThzKpKcGO5N60gaqaOGzh9NVTjLFH1hc3qYDx/9F/1g2nrylGvpTNhc1NuLjOPJW3Eez3txPBcXFlP/pqzQtQErqaR8a42rUW9GDAh9aRh8eKWD9qRTdW0o+87lY3YHWYlodpSb3oU/Txpx80h7fRaumBJIqZCHlcAJ0OyatVLw6itTuQ+npjTmUrz1Ou1ZNoUBVCC3kTtj6Nb3I9Og3L5MOaXV0av9rNE0jI78FOSya/P7dhiP2y6Wk9J9EKTuPk/boRprpLyXXnhoa/ud3KPfrfNr5wv2kVoyiv5dy3+nOEwNDDW2cICOxKpye/vAYHdv+MR293GzfZ6bJ1y+ye6LfPMo8pCXdqf302jQNyfwWEHc7ddfn2m1P0B+U99MrRns5btHh/wymHuPXEbvlbLGrt4EuvDmelAGL6GDHhKQv/tqXlKNXm4+tqaei7FSjbX2mLKfM7EK6xqe/1T3INzcMNXm09fUnaaDMkyYkvU3v7fuWannWKd75zne/CggICAjcc36dpFc+gtJK2ndBA1VnxZLa9Y/03qXrtH12T1KOSqdvLZsk6980mdSqB2n9OQM17YwjD5cxlHqqjvUw9JX0+TsbaLeOy3Sskt7mI7Q4WE5hL51g26WZhoOUOieB3vrqlmlTMie99dtnU0/lKErvuCgZqjfRZLWKHlx/jgzGBEVGUWu/N12T0XxkMQUrhlPq6c67OaNhF8V7KmhUeilZvDz3Nk1ycTTpvUW5z/iTYmQ6WfIHxpUtj5GH62TafNncYAWfD02cvfIweumERQ0mRyrNSXiLvrrpWNIrH5FGHWGrpqxYNbn+8T26ZDDQpa/+QW9s/pdxwzfRTEefu48Uw1OJk8gYd1kUrf3eoiAdWRxs7L8Tt3KfIX/FSEq3FYAe83ClyZwA3Y3JrVx6xl9BI61iwvm15TEPcp28mS437aQ4Dxcak3qK6kwTiyo/f4c27NaxlIrfv844aj+nr2nELTqwUENS/4V0oMnYwCR+ix5S+FDCHq6BJwatXNIrJ8WEDVTVbiOfz9REO+M8yGVMKp0yOc1up8/pnQ27SVfffZ/pRjbN85HT0JQilkYyGj+nhf5uFJ1xwRIjCzx6dy/pZbQWUcpQJYX9zynjtXn1t056eXUyx0IZSImHOIPqedcpvvnOu+aY2wQEBAQE7h2/yoNpksAojAuRmI/E8BoZiZCWUuhOf4fi0kb0GTUGQe3dXH/UaAwwlKHodCsU459EvOYkXh7WG37hExG/9BPUR85EzMAe5vEm2mpLcLrKDUMiB8Ly9e7OD+KlLVl4NlJubuDQo6K4FI19RmFMx0Uh9orC6AEGlBWdRivXIFIjKMTb8jyIWK2Gi0iPlpbbv8XZcK4EpTe8MWREACxe+kbhgX5O5iMeDNUoLL4IfWkGpocPwqBBpp+xKcdws+kMSsotn/ma4fNBh0slp1HlNgSRAzu+7N75wZewJetZ2MjRJRIERo1DR9i8MDIyBC2lOpzRsxhFPoH4YdexMz0Ji56cjgnDBmDKhnIY2trQZpZIpA5CiKUASAy12gUifWdfOAyoLizGRX0pMqaHW/wfNDYFx2424UxJuekxjO7EpLoQxRf1KM2YjvD28w0ai5RjN9F0pgTl4vF4Ml6Dky8PQ2+/cEyMX4pP6iMxM2YgenBz0AH/OnDUflcE9/U1zxERVD2UcPLxRx+psQFilQpKkQF6yyfi9mLANYjg7u8PD7MgvD63KDD+yXhoTr6MYb39ED4xHks/qUfkzBgM7NFdnxkuEzEr1gvFO/4XWmZP45Ft2HNjHJ6Y6mOJkQWFPb1/Kg7qb4ZfJ/PAdvQVvOsUR9fz3cE1R0BAQEDgnnLbXvRLIFIoobS+ssSJbeeEtrYWGNhm6SS1TQ5FrN8JbKM1sJ3WfRLW5WmxL2MJYgMbkJf1AmZERmDmpgrbZzlb9eyYnVcqMjd0TYvpomy0FSIJnFhDW5uBWWY6lnTsT0bsnZlEzGaJ1QiRCiql7Sts8wYukWhvaUYz2xtdh8bh+aQkJLX/JK9B5uZ0PB58e/LM50MLlzk5SWBPjq7t4RBBoVTaTBgJOx+IjWN/qrc/hWHDHsffdhaiVh6EqPkrsHymxma8iAloK2HXxjSbBEDc81b+JyVjTeZmpD8ebPKzOzFpbmaJjiuGxj1vdb4kJK/JxOb0xxHs5I5J6/Kg3ZeBJbGBaMjLwgszIhExcxMqDI75Z41j9kshNSe4FkSiThpZYy8GHOy17F6xaMDrM3c7rUOedh8ylsQisCEPWS/MQGTETGyqaO22z4AK4+Omos+ZndiaX4vcj/eheeIsTO51p1fY09s8xHZCsnlMnZu6xCH923FAJ1scWKeMx13Pd4fWHAEBAQGBe0rX+9fPiOF8KUobzAeMBp0OFZIghPYPQqDGCRfYsal4x8TNomJ8Bz8EBEpwtWAr3thRgyEJK5CZnYfyqiKsHduAnC17zcVsJsQ9A6BxrUV5mbkoh0P/LbKemYPley6aGzic4B+ogdMFHXS2F0Xxd4BfQCA65yV8SPqEIkR1EadLrnRc+1Ypyiy7OZesEVqamzo2t5Ya1Fwxj5b4MB1UaLzphlFx8YiPN/3MmRSB4NAwhLS/lWeBz4dgeAdo4FpbjjIrkfTfZuGZOcux5yKXLNmxx4gB50tL0RG2Buh0FZAEheI+8QVs37gNVx58AwUn/omt765BcmIserXe4FKADg0cRgIf5o+q8SbcRsVZ/I+fMwkRwaEIC/Ho9sSV+ARCo2rETbdRiGs/X/wcTIoIRmhYCNTXCrD1jR2oGZKAFZnZyCuvQtHasWjI2YK91ee76d+9t9+EnRjclpjx++yBqyjY+gZ21AxBwopMZOeVo6poLcY25GDLZ9q7iqn8/tmYHnQOe7eswZb9wCOzY9h1bqftqh292RyVsISRWprR1DEhUVNjdT/dhsgqpeye/rw63Xa7+fOsU3wrxr1fcwQEBAQE+Lm7vfcnQtf2IC1pO87cNKCxbBuWrNgNUXQ8pvbyROzcGKhy05CYWYBaPdsHzu5C0vLtaBw5CzNCpRCdzcaqxMVYmXMeXA25/kYVfrjaAg+NBm7W3qjGY9ZUb+SvX4YPSurR1laPkg9SsOr9k6h3czcPMtEzdi5iVLlIS8xEgemi2JW0HNsbR2LWjNBO79Y4gEs05s30wrFX/wvvautgaD6PnJQUbKs2J71iNfz93XHl8Mf4tJJ5wfr3r1yLfdfbd3g3RM+dBs8Tr+PZtIOoYkMMP+Zj7fyHMW5qKo41modZweeDy/hZmOqdj/XLPkBJPUta6kvwQcoqvH+yHm49PXjs4SBc25OGpO1ncNPQiLJtS7BitwjR8VPRS+wEqZMILT9WorKObeKGqzj53mKs+KzO+C5aF/XydnGLnotpnifw+rNpOGgSAPlr5+PhcVOReicB+HCLxtxpnjjx+rNIO1jF5o4BP+avxfyHx2Fq6jE0ic4ie1UiFq/MwXnTxELVD1fR4qGBxk3Wbf/uuf1G7MXAPMQaHp8bxSKczV6FxMUrkWNyGjeqfsDVFg9oNO53F1PZcMye0Q8Vm9bgM9mjmDXRxdxhi9iu3k5Q+/vD/cphfPxpJfe5B87vX4m1+653/Q6oSAa5jNBQV8e86Kb+fDqZh3XQk2ed4l8x+NccPcr2ZeKdHSdQa5UXCwgICAj8BMzP9v5iGAvI3EfQo1E+JJPKSCqWk++4pbS32ly6Yaih3OUPk0YpIolCRXInBflGPUc7vzeWxhC1ltNHCWGklkhI4eJKSqmUPCMTaUclVxBiVcjGMNQeo/SYAFJKZKRSSkmsDKCYV740/vYD60I2rgilJnc5PaxRkkiiIJXciRS+UfTczu9NBTlc0ZHShxL2miuMGK2FyRShjKDkQrNdnbl2nFbHBpBCLCWZTEo9h8fSGF+FuTCMqFmXQdODlCRm/qmYnwGxL9OiB5wt/WS4QkfTYinIWUximYLpICKF3wRKzr3URZELjw+sv/ZYOsUEKEkiUzHdxKQMiKFXvuTU4LPHpKv7iEcpyofFjPkjlvvSuKV7yRQ2A13NXUYjPJyYrc7UQyEjj/A5lLY0mtTqKbT5kqmwR+mTQB0StlJhcgQpI5LNx51hrzmaRrFBziQWy0jB/BEp/GhCci6x091VTAxXjlJabBA5i8UkU8jJSaQgvwnJlGs8YSuVf5RAYWoJm3cu5Mrmi9QzkhJ3VJLeAf9up7v2N9OXS0JJOerv9F17bVPdJopVetG83e2FbHZiYPztDUrye3p/RzEiw77P3O30ESWEqUnC5oyLq5KkUk+KTNxBlfq78dlEq24lDZc5UVDiIeqITmfs6c1o1lHG9CBSitk8VrE5GRBLLy96gJy7KmRjVzr8XF+SS+TkMngJHW3m0d/mtzfw62RbyMY12F+n+Oc73/1aT+9PlpN0aAoVdbHECAgICAh0DxH3lzn//UW4+u4j6LPcFzvK12FQWREuyoMQPsAbCnN/O/rachSevgR490NYSM+OYjQjbWioKkHx2TqIPfsivH+v217fgR61ZwtRUm2AV78IhHranskGfS3KC0/jErzRLywEPe0MdYwWXC7V4rsGLwwaVI2/hU/EVwuK8cXzwebuH1GmLcM1l/sQMaAX7lRPZrheiSLdeTTIfTEwLBgefDbx+cD6zxaWoNrghX4RobCRo0t7ruLdR/pgue8OlK8bhLKii5AHhWOAt63qbfXn8M0353BLHYLwQb2hMrf/JAzXUVmkw/kGOXwHhiGYVwA+DLheWQTd+QbIfQciLNjDZm61NVShpPgs6sSe6BveH72sXLwr/+6Z/Y7F4M7Y95n7drKqkmKcrRPDs284+ls5fTc+t11+H9P7v4rQvVq8MtK+v/b05u6fH8u0KLvmgvsiBqAXX8FlWz0qtd/ghzZfhA0NNH3y0y39eXS6A/bXKQe452uOgICAgEBX/HpJb0UWHnVkv/7/QsuX+O/BnZLe3w0dCVdF1qN2/oMh8PPxe4gB9zl8E7SpkzBxbwyOfrEMA7r9bJCAgICAgMDPwy/+TK9IJIZELOKK1P/NEEEskUD8u3ScxUtssv3fLmy/GX77MdAXJGOoqwciX72FP6cvEhJeAQEBAYHfEMD/ATmqsRPh/C8uAAAAAElFTkSuQmCC;" vertex="1" parent="1">
          <mxGeometry x="480" y="-60" width="651" height="209.88" as="geometry" />
        </mxCell>
        <mxCell id="zb_kXf3CehQWzueffiuh-2" value="CURSO" style="whiteSpace=wrap;html=1;align=center;" vertex="1" parent="1">
          <mxGeometry x="670" y="300" width="100" height="40" as="geometry" />
        </mxCell>
        <mxCell id="zb_kXf3CehQWzueffiuh-3" value="EDICION" style="whiteSpace=wrap;html=1;align=center;" vertex="1" parent="1">
          <mxGeometry x="1070" y="300" width="100" height="40" as="geometry" />
        </mxCell>
        <mxCell id="zb_kXf3CehQWzueffiuh-4" value="INSTRUCTOR" style="whiteSpace=wrap;html=1;align=center;" vertex="1" parent="1">
          <mxGeometry x="1070" y="500" width="100" height="40" as="geometry" />
        </mxCell>
        <mxCell id="zb_kXf3CehQWzueffiuh-5" value="ESPECIALIDAD" style="whiteSpace=wrap;html=1;align=center;" vertex="1" parent="1">
          <mxGeometry x="1070" y="700" width="100" height="40" as="geometry" />
        </mxCell>
        <mxCell id="zb_kXf3CehQWzueffiuh-6" value="Da_origen" style="shape=rhombus;perimeter=rhombusPerimeter;whiteSpace=wrap;html=1;align=center;" vertex="1" parent="1">
          <mxGeometry x="860" y="290" width="120" height="60" as="geometry" />
        </mxCell>
        <mxCell id="zb_kXf3CehQWzueffiuh-7" value="Dictada_por" style="shape=rhombus;perimeter=rhombusPerimeter;whiteSpace=wrap;html=1;align=center;" vertex="1" parent="1">
          <mxGeometry x="1060" y="390" width="120" height="60" as="geometry" />
        </mxCell>
        <mxCell id="zb_kXf3CehQWzueffiuh-8" value="Su" style="shape=rhombus;perimeter=rhombusPerimeter;whiteSpace=wrap;html=1;align=center;" vertex="1" parent="1">
          <mxGeometry x="1060" y="590" width="120" height="60" as="geometry" />
        </mxCell>
        <mxCell id="zb_kXf3CehQWzueffiuh-11" value="ID_curso" style="ellipse;whiteSpace=wrap;html=1;align=center;fontStyle=4;" vertex="1" parent="1">
          <mxGeometry x="500" y="310" width="100" height="40" as="geometry" />
        </mxCell>
        <mxCell id="zb_kXf3CehQWzueffiuh-12" value="Descripcion" style="ellipse;whiteSpace=wrap;html=1;align=center;" vertex="1" parent="1">
          <mxGeometry x="550" y="230" width="100" height="40" as="geometry" />
        </mxCell>
        <mxCell id="zb_kXf3CehQWzueffiuh-13" value="Costo" style="ellipse;whiteSpace=wrap;html=1;align=center;" vertex="1" parent="1">
          <mxGeometry x="670" y="200" width="100" height="40" as="geometry" />
        </mxCell>
        <mxCell id="zb_kXf3CehQWzueffiuh-14" value="Duracion" style="ellipse;whiteSpace=wrap;html=1;align=center;" vertex="1" parent="1">
          <mxGeometry x="570" y="380" width="100" height="40" as="geometry" />
        </mxCell>
        <mxCell id="zb_kXf3CehQWzueffiuh-15" value="" style="endArrow=none;html=1;rounded=0;exitX=1;exitY=0.5;exitDx=0;exitDy=0;entryX=0;entryY=0.5;entryDx=0;entryDy=0;" edge="1" parent="1" source="zb_kXf3CehQWzueffiuh-11" target="zb_kXf3CehQWzueffiuh-2">
          <mxGeometry relative="1" as="geometry">
            <mxPoint x="800" y="310" as="sourcePoint" />
            <mxPoint x="960" y="310" as="targetPoint" />
          </mxGeometry>
        </mxCell>
        <mxCell id="zb_kXf3CehQWzueffiuh-16" value="" style="endArrow=none;html=1;rounded=0;exitX=1;exitY=1;exitDx=0;exitDy=0;entryX=0;entryY=0;entryDx=0;entryDy=0;" edge="1" parent="1" source="zb_kXf3CehQWzueffiuh-12" target="zb_kXf3CehQWzueffiuh-2">
          <mxGeometry relative="1" as="geometry">
            <mxPoint x="800" y="310" as="sourcePoint" />
            <mxPoint x="960" y="310" as="targetPoint" />
          </mxGeometry>
        </mxCell>
        <mxCell id="zb_kXf3CehQWzueffiuh-17" value="" style="endArrow=none;html=1;rounded=0;exitX=0.5;exitY=1;exitDx=0;exitDy=0;entryX=0.5;entryY=0;entryDx=0;entryDy=0;" edge="1" parent="1" source="zb_kXf3CehQWzueffiuh-13" target="zb_kXf3CehQWzueffiuh-2">
          <mxGeometry relative="1" as="geometry">
            <mxPoint x="800" y="310" as="sourcePoint" />
            <mxPoint x="960" y="310" as="targetPoint" />
          </mxGeometry>
        </mxCell>
        <mxCell id="zb_kXf3CehQWzueffiuh-18" value="" style="endArrow=none;html=1;rounded=0;exitX=0.5;exitY=0;exitDx=0;exitDy=0;entryX=0.25;entryY=1;entryDx=0;entryDy=0;" edge="1" parent="1" source="zb_kXf3CehQWzueffiuh-14" target="zb_kXf3CehQWzueffiuh-2">
          <mxGeometry relative="1" as="geometry">
            <mxPoint x="800" y="310" as="sourcePoint" />
            <mxPoint x="960" y="310" as="targetPoint" />
          </mxGeometry>
        </mxCell>
        <mxCell id="zb_kXf3CehQWzueffiuh-19" value="" style="endArrow=none;html=1;rounded=0;entryX=1;entryY=0.5;entryDx=0;entryDy=0;exitX=0;exitY=0.5;exitDx=0;exitDy=0;" edge="1" parent="1" source="zb_kXf3CehQWzueffiuh-6" target="zb_kXf3CehQWzueffiuh-2">
          <mxGeometry relative="1" as="geometry">
            <mxPoint x="800" y="150" as="sourcePoint" />
            <mxPoint x="960" y="150" as="targetPoint" />
          </mxGeometry>
        </mxCell>
        <mxCell id="zb_kXf3CehQWzueffiuh-20" value="(1,1)" style="resizable=0;html=1;whiteSpace=wrap;align=right;verticalAlign=bottom;" connectable="0" vertex="1" parent="zb_kXf3CehQWzueffiuh-19">
          <mxGeometry x="1" relative="1" as="geometry">
            <mxPoint x="36" as="offset" />
          </mxGeometry>
        </mxCell>
        <mxCell id="zb_kXf3CehQWzueffiuh-21" value="" style="endArrow=none;html=1;rounded=0;entryX=0;entryY=0.5;entryDx=0;entryDy=0;exitX=1;exitY=0.5;exitDx=0;exitDy=0;" edge="1" parent="1" source="zb_kXf3CehQWzueffiuh-6" target="zb_kXf3CehQWzueffiuh-3">
          <mxGeometry relative="1" as="geometry">
            <mxPoint x="800" y="150" as="sourcePoint" />
            <mxPoint x="960" y="150" as="targetPoint" />
          </mxGeometry>
        </mxCell>
        <mxCell id="zb_kXf3CehQWzueffiuh-22" value="(1,M)" style="resizable=0;html=1;whiteSpace=wrap;align=right;verticalAlign=bottom;" connectable="0" vertex="1" parent="zb_kXf3CehQWzueffiuh-21">
          <mxGeometry x="1" relative="1" as="geometry" />
        </mxCell>
        <mxCell id="zb_kXf3CehQWzueffiuh-23" value="Fecha_inicio" style="ellipse;whiteSpace=wrap;html=1;align=center;" vertex="1" parent="1">
          <mxGeometry x="1050" y="190" width="100" height="40" as="geometry" />
        </mxCell>
        <mxCell id="zb_kXf3CehQWzueffiuh-24" value="Lugar_dictado" style="ellipse;whiteSpace=wrap;html=1;align=center;" vertex="1" parent="1">
          <mxGeometry x="1180" y="210" width="100" height="40" as="geometry" />
        </mxCell>
        <mxCell id="zb_kXf3CehQWzueffiuh-25" value="ID_edicion" style="ellipse;whiteSpace=wrap;html=1;align=center;fontStyle=4;" vertex="1" parent="1">
          <mxGeometry x="1230" y="280" width="100" height="40" as="geometry" />
        </mxCell>
        <mxCell id="zb_kXf3CehQWzueffiuh-26" value="" style="endArrow=none;html=1;rounded=0;entryX=0.5;entryY=1;entryDx=0;entryDy=0;exitX=0.25;exitY=0;exitDx=0;exitDy=0;" edge="1" parent="1" source="zb_kXf3CehQWzueffiuh-3" target="zb_kXf3CehQWzueffiuh-23">
          <mxGeometry relative="1" as="geometry">
            <mxPoint x="810" y="110" as="sourcePoint" />
            <mxPoint x="970" y="110" as="targetPoint" />
          </mxGeometry>
        </mxCell>
        <mxCell id="zb_kXf3CehQWzueffiuh-27" value="" style="endArrow=none;html=1;rounded=0;entryX=0.5;entryY=1;entryDx=0;entryDy=0;exitX=0.75;exitY=0;exitDx=0;exitDy=0;" edge="1" parent="1" source="zb_kXf3CehQWzueffiuh-3" target="zb_kXf3CehQWzueffiuh-24">
          <mxGeometry relative="1" as="geometry">
            <mxPoint x="810" y="110" as="sourcePoint" />
            <mxPoint x="970" y="110" as="targetPoint" />
          </mxGeometry>
        </mxCell>
        <mxCell id="zb_kXf3CehQWzueffiuh-28" value="" style="endArrow=none;html=1;rounded=0;entryX=0;entryY=0.5;entryDx=0;entryDy=0;exitX=1;exitY=0.5;exitDx=0;exitDy=0;" edge="1" parent="1" source="zb_kXf3CehQWzueffiuh-3" target="zb_kXf3CehQWzueffiuh-25">
          <mxGeometry relative="1" as="geometry">
            <mxPoint x="810" y="110" as="sourcePoint" />
            <mxPoint x="970" y="110" as="targetPoint" />
          </mxGeometry>
        </mxCell>
        <mxCell id="zb_kXf3CehQWzueffiuh-29" value="Nombre_instructor" style="ellipse;whiteSpace=wrap;html=1;align=center;" vertex="1" parent="1">
          <mxGeometry x="890" y="470" width="100" height="40" as="geometry" />
        </mxCell>
        <mxCell id="zb_kXf3CehQWzueffiuh-30" value="Fecha_nac" style="ellipse;whiteSpace=wrap;html=1;align=center;" vertex="1" parent="1">
          <mxGeometry x="890" y="530" width="100" height="40" as="geometry" />
        </mxCell>
        <mxCell id="zb_kXf3CehQWzueffiuh-31" value="ID_instructor" style="ellipse;whiteSpace=wrap;html=1;align=center;fontStyle=4;" vertex="1" parent="1">
          <mxGeometry x="1210" y="460" width="100" height="40" as="geometry" />
        </mxCell>
        <mxCell id="zb_kXf3CehQWzueffiuh-32" value="DNI" style="ellipse;whiteSpace=wrap;html=1;align=center;" vertex="1" parent="1">
          <mxGeometry x="1230" y="530" width="100" height="40" as="geometry" />
        </mxCell>
        <mxCell id="zb_kXf3CehQWzueffiuh-33" value="" style="endArrow=none;html=1;rounded=0;entryX=0;entryY=0.25;entryDx=0;entryDy=0;exitX=1;exitY=0.5;exitDx=0;exitDy=0;" edge="1" parent="1" source="zb_kXf3CehQWzueffiuh-29" target="zb_kXf3CehQWzueffiuh-4">
          <mxGeometry relative="1" as="geometry">
            <mxPoint x="810" y="600" as="sourcePoint" />
            <mxPoint x="970" y="600" as="targetPoint" />
          </mxGeometry>
        </mxCell>
        <mxCell id="zb_kXf3CehQWzueffiuh-34" value="" style="endArrow=none;html=1;rounded=0;entryX=0;entryY=1;entryDx=0;entryDy=0;exitX=1;exitY=0.5;exitDx=0;exitDy=0;" edge="1" parent="1" source="zb_kXf3CehQWzueffiuh-30" target="zb_kXf3CehQWzueffiuh-4">
          <mxGeometry relative="1" as="geometry">
            <mxPoint x="810" y="600" as="sourcePoint" />
            <mxPoint x="970" y="600" as="targetPoint" />
          </mxGeometry>
        </mxCell>
        <mxCell id="zb_kXf3CehQWzueffiuh-35" value="" style="endArrow=none;html=1;rounded=0;entryX=0;entryY=0.5;entryDx=0;entryDy=0;exitX=1;exitY=0;exitDx=0;exitDy=0;" edge="1" parent="1" source="zb_kXf3CehQWzueffiuh-4" target="zb_kXf3CehQWzueffiuh-31">
          <mxGeometry relative="1" as="geometry">
            <mxPoint x="810" y="600" as="sourcePoint" />
            <mxPoint x="970" y="600" as="targetPoint" />
          </mxGeometry>
        </mxCell>
        <mxCell id="zb_kXf3CehQWzueffiuh-36" value="" style="endArrow=none;html=1;rounded=0;entryX=0;entryY=0.5;entryDx=0;entryDy=0;" edge="1" parent="1" source="zb_kXf3CehQWzueffiuh-4" target="zb_kXf3CehQWzueffiuh-32">
          <mxGeometry relative="1" as="geometry">
            <mxPoint x="810" y="600" as="sourcePoint" />
            <mxPoint x="970" y="600" as="targetPoint" />
          </mxGeometry>
        </mxCell>
        <mxCell id="zb_kXf3CehQWzueffiuh-37" value="" style="endArrow=none;html=1;rounded=0;entryX=0.5;entryY=1;entryDx=0;entryDy=0;exitX=0.5;exitY=0;exitDx=0;exitDy=0;" edge="1" parent="1" source="zb_kXf3CehQWzueffiuh-7" target="zb_kXf3CehQWzueffiuh-3">
          <mxGeometry relative="1" as="geometry">
            <mxPoint x="830" y="350" as="sourcePoint" />
            <mxPoint x="990" y="350" as="targetPoint" />
          </mxGeometry>
        </mxCell>
        <mxCell id="zb_kXf3CehQWzueffiuh-38" value="(1,1)" style="resizable=0;html=1;whiteSpace=wrap;align=right;verticalAlign=bottom;" connectable="0" vertex="1" parent="zb_kXf3CehQWzueffiuh-37">
          <mxGeometry x="1" relative="1" as="geometry">
            <mxPoint y="20" as="offset" />
          </mxGeometry>
        </mxCell>
        <mxCell id="zb_kXf3CehQWzueffiuh-39" value="" style="endArrow=none;html=1;rounded=0;entryX=0.5;entryY=0;entryDx=0;entryDy=0;exitX=0.5;exitY=1;exitDx=0;exitDy=0;" edge="1" parent="1" source="zb_kXf3CehQWzueffiuh-7" target="zb_kXf3CehQWzueffiuh-4">
          <mxGeometry relative="1" as="geometry">
            <mxPoint x="830" y="350" as="sourcePoint" />
            <mxPoint x="990" y="350" as="targetPoint" />
          </mxGeometry>
        </mxCell>
        <mxCell id="zb_kXf3CehQWzueffiuh-40" value="(1,M)" style="resizable=0;html=1;whiteSpace=wrap;align=right;verticalAlign=bottom;" connectable="0" vertex="1" parent="zb_kXf3CehQWzueffiuh-39">
          <mxGeometry x="1" relative="1" as="geometry" />
        </mxCell>
        <mxCell id="zb_kXf3CehQWzueffiuh-41" value="ID_especialidad" style="ellipse;whiteSpace=wrap;html=1;align=center;fontStyle=4;" vertex="1" parent="1">
          <mxGeometry x="900" y="700" width="100" height="40" as="geometry" />
        </mxCell>
        <mxCell id="zb_kXf3CehQWzueffiuh-42" value="Desc_especialidad" style="ellipse;whiteSpace=wrap;html=1;align=center;" vertex="1" parent="1">
          <mxGeometry x="1230" y="700" width="110" height="40" as="geometry" />
        </mxCell>
        <mxCell id="zb_kXf3CehQWzueffiuh-43" value="" style="endArrow=none;html=1;rounded=0;entryX=0.5;entryY=1;entryDx=0;entryDy=0;exitX=0.5;exitY=0;exitDx=0;exitDy=0;" edge="1" parent="1" source="zb_kXf3CehQWzueffiuh-8" target="zb_kXf3CehQWzueffiuh-4">
          <mxGeometry relative="1" as="geometry">
            <mxPoint x="840" y="390" as="sourcePoint" />
            <mxPoint x="1000" y="390" as="targetPoint" />
          </mxGeometry>
        </mxCell>
        <mxCell id="zb_kXf3CehQWzueffiuh-44" value="(1,1)" style="resizable=0;html=1;whiteSpace=wrap;align=right;verticalAlign=bottom;" connectable="0" vertex="1" parent="zb_kXf3CehQWzueffiuh-43">
          <mxGeometry x="1" relative="1" as="geometry">
            <mxPoint y="20" as="offset" />
          </mxGeometry>
        </mxCell>
        <mxCell id="zb_kXf3CehQWzueffiuh-45" value="" style="endArrow=none;html=1;rounded=0;entryX=0.5;entryY=0;entryDx=0;entryDy=0;exitX=0.5;exitY=1;exitDx=0;exitDy=0;" edge="1" parent="1" source="zb_kXf3CehQWzueffiuh-8" target="zb_kXf3CehQWzueffiuh-5">
          <mxGeometry relative="1" as="geometry">
            <mxPoint x="840" y="610" as="sourcePoint" />
            <mxPoint x="1000" y="610" as="targetPoint" />
          </mxGeometry>
        </mxCell>
        <mxCell id="zb_kXf3CehQWzueffiuh-46" value="(1,M)" style="resizable=0;html=1;whiteSpace=wrap;align=right;verticalAlign=bottom;" connectable="0" vertex="1" parent="zb_kXf3CehQWzueffiuh-45">
          <mxGeometry x="1" relative="1" as="geometry" />
        </mxCell>
      </root>
    </mxGraphModel>
  </diagram>
</mxfile>
